NotoSansCanadianAboriginal-SemiBold.ufo
<glyph name="dotlessi" format="2">
  <advance width="303"/>
  <unicode hex="0131"/>
  <note>
dotlessi
</note>
  <outline>
    <contour>
      <point x="77" y="0" type="line"/>
      <point x="226" y="0" type="line"/>
      <point x="226" y="546" type="line"/>
      <point x="77" y="546" type="line"/>
    </contour>
  </outline>
</glyph>
<glyph name="caron" format="2">
  <advance width="480"/>
  <unicode hex="02C7"/>
  <note>
caron
</note>
  <outline>
    <contour>
      <point x="165" y="606" type="curve"/>
      <point x="315" y="606" type="line"/>
      <point x="343" y="652"/>
      <point x="404" y="717"/>
      <point x="440" y="752" type="curve"/>
      <point x="440" y="766" type="line"/>
      <point x="341" y="766" type="line"/>
      <point x="306" y="745"/>
      <point x="274" y="718"/>
      <point x="239" y="685" type="curve"/>
      <point x="205" y="718"/>
      <point x="174" y="744"/>
      <point x="139" y="766" type="curve"/>
      <point x="40" y="766" type="line"/>
      <point x="40" y="752" type="line"/>
      <point x="77" y="716"/>
      <point x="136" y="652"/>
    </contour>
  </outline>
</glyph>
<glyph name="breve" format="2">
  <advance width="441"/>
  <unicode hex="02D8"/>
  <note>
breve
</note>
  <outline>
    <contour>
      <point x="218" y="606" type="curve" smooth="yes"/>
      <point x="329" y="606"/>
      <point x="394" y="671"/>
      <point x="401" y="768" type="curve"/>
      <point x="315" y="768" type="line"/>
      <point x="304" y="716"/>
      <point x="266" y="704"/>
      <point x="219" y="704" type="curve" smooth="yes"/>
      <point x="162" y="704"/>
      <point x="134" y="712"/>
      <point x="123" y="768" type="curve"/>
      <point x="40" y="768" type="line"/>
      <point x="45" y="668"/>
      <point x="103" y="606"/>
    </contour>
  </outline>
</glyph>
<glyph name="dotaccent" format="2">
  <advance width="242"/>
  <unicode hex="02D9"/>
  <note>
dotaccent
</note>
  <outline>
    <contour>
      <point x="121" y="614" type="curve" smooth="yes"/>
      <point x="164" y="614"/>
      <point x="202" y="632"/>
      <point x="202" y="687" type="curve" smooth="yes"/>
      <point x="202" y="743"/>
      <point x="164" y="760"/>
      <point x="121" y="760" type="curve" smooth="yes"/>
      <point x="76" y="760"/>
      <point x="40" y="743"/>
      <point x="40" y="687" type="curve" smooth="yes"/>
      <point x="40" y="632"/>
      <point x="76" y="614"/>
    </contour>
  </outline>
</glyph>
<glyph name="ring" format="2">
  <advance width="325"/>
  <unicode hex="02DA"/>
  <note>
ring
</note>
  <outline>
    <contour>
      <point x="161" y="605" type="curve" smooth="yes"/>
      <point x="231" y="605"/>
      <point x="285" y="649"/>
      <point x="285" y="722" type="curve" smooth="yes"/>
      <point x="285" y="793"/>
      <point x="230" y="837"/>
      <point x="161" y="837" type="curve" smooth="yes"/>
      <point x="89" y="837"/>
      <point x="40" y="793"/>
      <point x="40" y="721" type="curve" smooth="yes"/>
      <point x="40" y="649"/>
      <point x="89" y="605"/>
    </contour>
    <contour>
      <point x="161" y="674" type="curve" smooth="yes"/>
      <point x="130" y="674"/>
      <point x="114" y="692"/>
      <point x="114" y="721" type="curve" smooth="yes"/>
      <point x="114" y="750"/>
      <point x="134" y="768"/>
      <point x="161" y="768" type="curve" smooth="yes"/>
      <point x="187" y="768"/>
      <point x="208" y="750"/>
      <point x="208" y="721" type="curve" smooth="yes"/>
      <point x="208" y="692"/>
      <point x="188" y="674"/>
    </contour>
  </outline>
</glyph>
<glyph name="ogonek" format="2">
  <advance width="277"/>
  <unicode hex="02DB"/>
  <note>
ogonek
</note>
  <outline>
    <contour>
      <point x="162" y="-232" type="curve" smooth="yes"/>
      <point x="194" y="-232"/>
      <point x="217" y="-227"/>
      <point x="237" y="-220" type="curve"/>
      <point x="237" y="-134" type="line"/>
      <point x="225" y="-138"/>
      <point x="203" y="-143"/>
      <point x="184" y="-143" type="curve" smooth="yes"/>
      <point x="159" y="-143"/>
      <point x="143" y="-131"/>
      <point x="143" y="-105" type="curve" smooth="yes"/>
      <point x="143" y="-70"/>
      <point x="164" y="-43"/>
      <point x="209" y="0" type="curve"/>
      <point x="145" y="21" type="line"/>
      <point x="76" y="-26"/>
      <point x="40" y="-77"/>
      <point x="40" y="-127" type="curve" smooth="yes"/>
      <point x="40" y="-192"/>
      <point x="88" y="-232"/>
    </contour>
  </outline>
</glyph>
<glyph name="uni0307" format="2">
  <unicode hex="0307"/>
  <note>
uni0307
</note>
  <outline>
    <contour>
      <point x="120" y="760" type="curve" smooth="yes"/>
      <point x="75" y="760"/>
      <point x="39" y="743"/>
      <point x="39" y="687" type="curve" smooth="yes"/>
      <point x="39" y="632"/>
      <point x="75" y="614"/>
      <point x="120" y="614" type="curve" smooth="yes"/>
      <point x="163" y="614"/>
      <point x="201" y="632"/>
      <point x="201" y="687" type="curve" smooth="yes"/>
      <point x="201" y="743"/>
      <point x="163" y="760"/>
    </contour>
  </outline>
</glyph>
<glyph name="uni1400" format="2">
  <advance width="466"/>
  <unicode hex="1400"/>
  <note>
uni1400
</note>
  <outline>
    <contour>
      <point x="49" y="407" type="line"/>
      <point x="417" y="407" type="line"/>
      <point x="417" y="498" type="line"/>
      <point x="49" y="498" type="line"/>
    </contour>
    <contour>
      <point x="49" y="248" type="line"/>
      <point x="417" y="248" type="line"/>
      <point x="417" y="338" type="line"/>
      <point x="49" y="338" type="line"/>
    </contour>
  </outline>
</glyph>
<glyph name="uni1401" format="2">
  <advance width="827"/>
  <unicode hex="1401"/>
  <note>
uni1401
</note>
  <outline>
    <contour>
      <point x="396" y="-12" type="line"/>
      <point x="431" y="-12" type="line"/>
      <point x="778" y="683" type="line"/>
      <point x="778" y="714" type="line"/>
      <point x="49" y="714" type="line"/>
      <point x="49" y="683" type="line"/>
    </contour>
    <contour>
      <point x="414" y="241" type="line"/>
      <point x="245" y="593" type="line"/>
      <point x="583" y="593" type="line"/>
    </contour>
  </outline>
</glyph>
<glyph name="uni1403" format="2">
  <advance width="827"/>
  <unicode hex="1403"/>
  <note>
uni1403
</note>
  <outline>
    <contour>
      <point x="49" y="0" type="line"/>
      <point x="778" y="0" type="line"/>
      <point x="778" y="31" type="line"/>
      <point x="431" y="726" type="line"/>
      <point x="396" y="726" type="line"/>
      <point x="49" y="31" type="line"/>
    </contour>
    <contour>
      <point x="245" y="121" type="line"/>
      <point x="414" y="473" type="line"/>
      <point x="583" y="121" type="line"/>
    </contour>
  </outline>
</glyph>
<glyph name="uni1405" format="2">
  <advance width="742"/>
  <unicode hex="1405"/>
  <note>
uni1405
</note>
  <outline>
    <contour>
      <point x="69" y="-10" type="line"/>
      <point x="100" y="-10" type="line"/>
      <point x="703" y="342" type="line"/>
      <point x="703" y="374" type="line"/>
      <point x="100" y="725" type="line"/>
      <point x="69" y="725" type="line"/>
    </contour>
    <contour>
      <point x="192" y="191" type="line"/>
      <point x="192" y="524" type="line"/>
      <point x="486" y="358" type="line"/>
    </contour>
  </outline>
</glyph>
<glyph name="uni140A" format="2">
  <advance width="742"/>
  <unicode hex="140A"/>
  <note>
uni140A
</note>
  <outline>
    <contour>
      <point x="642" y="-10" type="line"/>
      <point x="673" y="-10" type="line"/>
      <point x="673" y="725" type="line"/>
      <point x="642" y="725" type="line"/>
      <point x="39" y="374" type="line"/>
      <point x="39" y="342" type="line"/>
    </contour>
    <contour>
      <point x="549" y="191" type="line"/>
      <point x="255" y="358" type="line"/>
      <point x="549" y="524" type="line"/>
    </contour>
  </outline>
</glyph>
<glyph name="uni141C" format="2">
  <advance width="592"/>
  <unicode hex="141C"/>
  <note>
uni141C
</note>
  <outline>
    <contour>
      <point x="187" y="351" type="curve" smooth="yes"/>
      <point x="234" y="351"/>
      <point x="267" y="369"/>
      <point x="296" y="409" type="curve"/>
      <point x="327" y="368"/>
      <point x="360" y="351"/>
      <point x="407" y="351" type="curve" smooth="yes"/>
      <point x="517" y="351"/>
      <point x="553" y="433"/>
      <point x="553" y="567" type="curve" smooth="yes"/>
      <point x="553" y="714" type="line"/>
      <point x="454" y="714" type="line"/>
      <point x="454" y="549" type="line" smooth="yes"/>
      <point x="454" y="484"/>
      <point x="439" y="441"/>
      <point x="401" y="441" type="curve" smooth="yes"/>
      <point x="361" y="441"/>
      <point x="346" y="484"/>
      <point x="346" y="549" type="curve" smooth="yes"/>
      <point x="346" y="714" type="line"/>
      <point x="246" y="714" type="line"/>
      <point x="246" y="549" type="line" smooth="yes"/>
      <point x="246" y="486"/>
      <point x="232" y="441"/>
      <point x="193" y="441" type="curve" smooth="yes"/>
      <point x="159" y="441"/>
      <point x="138" y="474"/>
      <point x="138" y="542" type="curve" smooth="yes"/>
      <point x="138" y="714" type="line"/>
      <point x="39" y="714" type="line"/>
      <point x="39" y="560" type="line" smooth="yes"/>
      <point x="39" y="419"/>
      <point x="88" y="351"/>
    </contour>
  </outline>
</glyph>
<glyph name="uni141D" format="2">
  <advance width="603"/>
  <unicode hex="141D"/>
  <note>
uni141D
</note>
  <outline>
    <contour>
      <point x="442" y="482" type="curve" smooth="yes"/>
      <point x="508" y="482"/>
      <point x="564" y="535"/>
      <point x="564" y="603" type="curve" smooth="yes"/>
      <point x="564" y="671"/>
      <point x="509" y="725"/>
      <point x="442" y="725" type="curve" smooth="yes"/>
      <point x="373" y="725"/>
      <point x="320" y="670"/>
      <point x="320" y="603" type="curve" smooth="yes"/>
      <point x="320" y="536"/>
      <point x="374" y="482"/>
    </contour>
    <contour>
      <point x="161" y="345" type="curve" smooth="yes"/>
      <point x="228" y="345"/>
      <point x="282" y="398"/>
      <point x="282" y="466" type="curve" smooth="yes"/>
      <point x="282" y="534"/>
      <point x="228" y="588"/>
      <point x="161" y="588" type="curve" smooth="yes"/>
      <point x="92" y="588"/>
      <point x="39" y="533"/>
      <point x="39" y="466" type="curve" smooth="yes"/>
      <point x="39" y="399"/>
      <point x="93" y="345"/>
    </contour>
    <contour>
      <point x="161" y="414" type="curve" smooth="yes"/>
      <point x="133" y="414"/>
      <point x="111" y="437"/>
      <point x="111" y="466" type="curve" smooth="yes"/>
      <point x="111" y="497"/>
      <point x="133" y="519"/>
      <point x="161" y="519" type="curve" smooth="yes"/>
      <point x="188" y="519"/>
      <point x="211" y="497"/>
      <point x="211" y="466" type="curve" smooth="yes"/>
      <point x="211" y="437"/>
      <point x="188" y="414"/>
    </contour>
    <contour>
      <point x="442" y="551" type="curve" smooth="yes"/>
      <point x="414" y="551"/>
      <point x="392" y="573"/>
      <point x="392" y="603" type="curve" smooth="yes"/>
      <point x="392" y="633"/>
      <point x="414" y="655"/>
      <point x="442" y="655" type="curve" smooth="yes"/>
      <point x="470" y="655"/>
      <point x="492" y="633"/>
      <point x="492" y="603" type="curve" smooth="yes"/>
      <point x="492" y="573"/>
      <point x="470" y="551"/>
    </contour>
  </outline>
</glyph>
<glyph name="uni141E" format="2">
  <advance width="513"/>
  <unicode hex="141E"/>
  <note>
uni141E
</note>
  <outline>
    <contour>
      <point x="29" y="332" type="line"/>
      <point x="484" y="332" type="line"/>
      <point x="484" y="355" type="line"/>
      <point x="268" y="736" type="line"/>
      <point x="246" y="736" type="line"/>
      <point x="29" y="355" type="line"/>
    </contour>
    <contour>
      <point x="172" y="420" type="line"/>
      <point x="256" y="575" type="line"/>
      <point x="342" y="420" type="line"/>
    </contour>
  </outline>
</glyph>
<glyph name="uni141F" format="2">
  <advance width="354"/>
  <unicode hex="141F"/>
  <note>
uni141F
</note>
  <outline>
    <contour>
      <point x="29" y="332" type="line"/>
      <point x="132" y="332" type="line"/>
      <point x="325" y="714" type="line"/>
      <point x="222" y="714" type="line"/>
    </contour>
  </outline>
</glyph>
<glyph name="uni1420" format="2">
  <advance width="344"/>
  <unicode hex="1420"/>
  <note>
uni1420
</note>
  <outline>
    <contour>
      <point x="218" y="332" type="line"/>
      <point x="320" y="332" type="line"/>
      <point x="127" y="714" type="line"/>
      <point x="24" y="714" type="line"/>
    </contour>
  </outline>
</glyph>
<glyph name="uni1421" format="2">
  <advance width="421"/>
  <unicode hex="1421"/>
  <note>
uni1421
</note>
  <outline>
    <contour>
      <point x="210" y="371" type="curve" smooth="yes"/>
      <point x="339" y="371"/>
      <point x="382" y="442"/>
      <point x="382" y="576" type="curve" smooth="yes"/>
      <point x="382" y="714" type="line"/>
      <point x="283" y="714" type="line"/>
      <point x="283" y="556" type="line" smooth="yes"/>
      <point x="283" y="489"/>
      <point x="255" y="461"/>
      <point x="210" y="461" type="curve" smooth="yes"/>
      <point x="166" y="461"/>
      <point x="138" y="489"/>
      <point x="138" y="556" type="curve" smooth="yes"/>
      <point x="138" y="714" type="line"/>
      <point x="39" y="714" type="line"/>
      <point x="39" y="570" type="line" smooth="yes"/>
      <point x="39" y="430"/>
      <point x="95" y="371"/>
    </contour>
  </outline>
</glyph>
<glyph name="uni1422" format="2">
  <advance width="421"/>
  <unicode hex="1422"/>
  <note>
uni1422
</note>
  <outline>
    <contour>
      <point x="39" y="381" type="line"/>
      <point x="138" y="381" type="line"/>
      <point x="138" y="538" type="line" smooth="yes"/>
      <point x="138" y="606"/>
      <point x="166" y="634"/>
      <point x="210" y="634" type="curve" smooth="yes"/>
      <point x="255" y="634"/>
      <point x="283" y="606"/>
      <point x="283" y="538" type="curve" smooth="yes"/>
      <point x="283" y="381" type="line"/>
      <point x="382" y="381" type="line"/>
      <point x="382" y="519" type="line" smooth="yes"/>
      <point x="382" y="653"/>
      <point x="339" y="724"/>
      <point x="210" y="724" type="curve" smooth="yes"/>
      <point x="95" y="724"/>
      <point x="39" y="665"/>
      <point x="39" y="525" type="curve" smooth="yes"/>
    </contour>
  </outline>
</glyph>
<glyph name="uni1423" format="2">
  <advance width="386"/>
  <unicode hex="1423"/>
  <note>
uni1423
</note>
  <outline>
    <contour>
      <point x="39" y="332" type="line"/>
      <point x="109" y="332" type="line" smooth="yes"/>
      <point x="275" y="332"/>
      <point x="347" y="392"/>
      <point x="347" y="528" type="curve" smooth="yes"/>
      <point x="347" y="657"/>
      <point x="274" y="714"/>
      <point x="119" y="714" type="curve" smooth="yes"/>
      <point x="39" y="714" type="line"/>
      <point x="39" y="624" type="line"/>
      <point x="124" y="624" type="line" smooth="yes"/>
      <point x="214" y="624"/>
      <point x="248" y="594"/>
      <point x="248" y="528" type="curve" smooth="yes"/>
      <point x="248" y="454"/>
      <point x="217" y="422"/>
      <point x="107" y="422" type="curve" smooth="yes"/>
      <point x="39" y="422" type="line"/>
    </contour>
  </outline>
</glyph>
<glyph name="uni1424" format="2">
  <advance width="457"/>
  <unicode hex="1424"/>
  <note>
uni1424
</note>
  <outline>
    <contour>
      <point x="228" y="348" type="curve" smooth="yes"/>
      <point x="339" y="348"/>
      <point x="418" y="431"/>
      <point x="418" y="534" type="curve" smooth="yes"/>
      <point x="418" y="638"/>
      <point x="338" y="721"/>
      <point x="228" y="721" type="curve" smooth="yes"/>
      <point x="120" y="721"/>
      <point x="39" y="638"/>
      <point x="39" y="534" type="curve" smooth="yes"/>
      <point x="39" y="431"/>
      <point x="119" y="348"/>
    </contour>
    <contour>
      <point x="228" y="439" type="curve" smooth="yes"/>
      <point x="173" y="439"/>
      <point x="138" y="483"/>
      <point x="138" y="535" type="curve" smooth="yes"/>
      <point x="138" y="588"/>
      <point x="175" y="630"/>
      <point x="228" y="630" type="curve" smooth="yes"/>
      <point x="283" y="630"/>
      <point x="319" y="587"/>
      <point x="319" y="535" type="curve" smooth="yes"/>
      <point x="319" y="484"/>
      <point x="284" y="439"/>
    </contour>
  </outline>
</glyph>
<glyph name="uni1425" format="2">
  <advance width="512"/>
  <unicode hex="1425"/>
  <note>
uni1425
</note>
  <outline>
    <contour>
      <point x="192" y="332" type="line"/>
      <point x="295" y="332" type="line"/>
      <point x="488" y="714" type="line"/>
      <point x="386" y="714" type="line"/>
    </contour>
    <contour>
      <point x="24" y="332" type="line"/>
      <point x="127" y="332" type="line"/>
      <point x="320" y="714" type="line"/>
      <point x="218" y="714" type="line"/>
    </contour>
  </outline>
</glyph>
<glyph name="uni1426" format="2">
  <advance width="348"/>
  <unicode hex="1426"/>
  <note>
uni1426
</note>
  <outline>
    <contour>
      <point x="210" y="332" type="line"/>
      <point x="309" y="332" type="line"/>
      <point x="309" y="714" type="line"/>
      <point x="210" y="714" type="line"/>
    </contour>
    <contour>
      <point x="39" y="332" type="line"/>
      <point x="138" y="332" type="line"/>
      <point x="138" y="714" type="line"/>
      <point x="39" y="714" type="line"/>
    </contour>
  </outline>
</glyph>
<glyph name="uni1427" format="2">
  <advance width="246"/>
  <unicode hex="1427"/>
  <note>
uni1427
</note>
  <outline>
    <contour>
      <point x="123" y="285" type="curve" smooth="yes"/>
      <point x="164" y="285"/>
      <point x="197" y="318"/>
      <point x="197" y="358" type="curve" smooth="yes"/>
      <point x="197" y="399"/>
      <point x="164" y="432"/>
      <point x="123" y="432" type="curve" smooth="yes"/>
      <point x="82" y="432"/>
      <point x="49" y="399"/>
      <point x="49" y="358" type="curve" smooth="yes"/>
      <point x="49" y="318"/>
      <point x="82" y="285"/>
    </contour>
  </outline>
</glyph>
<glyph name="uni1429" format="2">
  <advance width="454"/>
  <unicode hex="1429"/>
  <note>
uni1429
</note>
  <outline>
    <contour>
      <point x="179" y="334" type="line"/>
      <point x="278" y="334" type="line"/>
      <point x="278" y="485" type="line"/>
      <point x="415" y="485" type="line"/>
      <point x="415" y="575" type="line"/>
      <point x="278" y="575" type="line"/>
      <point x="278" y="714" type="line"/>
      <point x="179" y="714" type="line"/>
      <point x="179" y="575" type="line"/>
      <point x="39" y="575" type="line"/>
      <point x="39" y="485" type="line"/>
      <point x="179" y="485" type="line"/>
    </contour>
  </outline>
</glyph>
<glyph name="uni142A" format="2">
  <advance width="435"/>
  <unicode hex="142A"/>
  <note>
uni142A
</note>
  <outline>
    <contour>
      <point x="169" y="332" type="line"/>
      <point x="268" y="332" type="line"/>
      <point x="268" y="624" type="line"/>
      <point x="396" y="624" type="line"/>
      <point x="396" y="714" type="line"/>
      <point x="39" y="714" type="line"/>
      <point x="39" y="624" type="line"/>
      <point x="169" y="624" type="line"/>
    </contour>
  </outline>
</glyph>
<glyph name="uni142F" format="2">
  <advance width="824"/>
  <unicode hex="142F"/>
  <note>
uni142F
</note>
  <outline>
    <contour>
      <point x="394" y="-12" type="line"/>
      <point x="429" y="-12" type="line"/>
      <point x="775" y="683" type="line"/>
      <point x="775" y="714" type="line"/>
      <point x="641" y="714" type="line"/>
      <point x="412" y="233" type="line"/>
      <point x="183" y="714" type="line"/>
      <point x="49" y="714" type="line"/>
      <point x="49" y="683" type="line"/>
    </contour>
  </outline>
</glyph>
<glyph name="uni1431" format="2">
  <advance width="839"/>
  <unicode hex="1431"/>
  <note>
uni1431
</note>
  <outline>
    <contour>
      <point x="49" y="0" type="line"/>
      <point x="183" y="0" type="line"/>
      <point x="420" y="481" type="line"/>
      <point x="657" y="0" type="line"/>
      <point x="791" y="0" type="line"/>
      <point x="791" y="31" type="line"/>
      <point x="437" y="726" type="line"/>
      <point x="402" y="726" type="line"/>
      <point x="49" y="31" type="line"/>
    </contour>
  </outline>
</glyph>
<glyph name="uni1433" format="2">
  <advance width="722"/>
  <unicode hex="1433"/>
  <note>
uni1433
</note>
  <outline>
    <contour>
      <point x="49" y="-10" type="line"/>
      <point x="79" y="-10" type="line"/>
      <point x="683" y="342" type="line"/>
      <point x="683" y="374" type="line"/>
      <point x="79" y="725" type="line"/>
      <point x="49" y="725" type="line"/>
      <point x="49" y="593" type="line"/>
      <point x="467" y="358" type="line"/>
      <point x="49" y="121" type="line"/>
    </contour>
  </outline>
</glyph>
<glyph name="uni1438" format="2">
  <advance width="722"/>
  <unicode hex="1438"/>
  <note>
uni1438
</note>
  <outline>
    <contour>
      <point x="643" y="-10" type="line"/>
      <point x="673" y="-10" type="line"/>
      <point x="673" y="121" type="line"/>
      <point x="255" y="358" type="line"/>
      <point x="673" y="593" type="line"/>
      <point x="673" y="725" type="line"/>
      <point x="643" y="725" type="line"/>
      <point x="39" y="374" type="line"/>
      <point x="39" y="342" type="line"/>
    </contour>
  </outline>
</glyph>
<glyph name="uni1449" format="2">
  <advance width="410"/>
  <unicode hex="1449"/>
  <note>
uni1449
</note>
  <outline>
    <contour>
      <point x="371" y="329" type="line"/>
      <point x="371" y="434" type="line"/>
      <point x="194" y="535" type="line"/>
      <point x="371" y="637" type="line"/>
      <point x="371" y="742" type="line"/>
      <point x="29" y="547" type="line"/>
      <point x="29" y="524" type="line"/>
    </contour>
  </outline>
</glyph>
<glyph name="uni144A" format="2">
  <advance width="217"/>
  <unicode hex="144A"/>
  <note>
uni144A
</note>
  <outline>
    <contour>
      <point x="59" y="332" type="line"/>
      <point x="158" y="332" type="line"/>
      <point x="158" y="714" type="line"/>
      <point x="59" y="714" type="line"/>
    </contour>
  </outline>
</glyph>
<glyph name="uni144B" format="2">
	<advance width="372"/>
	<unicode hex="144B"/>
	<note>
		uni144B
	</note>
	<outline>
		<contour>
			<point x="138" y="161" type="line"/>
			<point x="138" y="554" type="line"/>
			<point x="39" y="554" type="line"/>
			<point x="39" y="161" type="line"/>
		</contour>
		<contour>
			<point x="333" y="161" type="line"/>
			<point x="333" y="329" type="line" smooth="yes"/>
			<point x="333" y="411"/>
			<point x="302" y="447"/>
			<point x="222" y="447" type="curve" smooth="yes"/>
			<point x="171" y="447"/>
			<point x="128" y="421"/>
			<point x="128" y="421" type="curve"/>
			<point x="119" y="334" type="line"/>
			<point x="119" y="334"/>
			<point x="144" y="362"/>
			<point x="190" y="362" type="curve" smooth="yes"/>
			<point x="216" y="362"/>
			<point x="234" y="355"/>
			<point x="234" y="316" type="curve" smooth="yes"/>
			<point x="234" y="161" type="line"/>
		</contour>
	</outline>
</glyph>
<glyph name="uni144C" format="2">
  <advance width="803"/>
  <unicode hex="144C"/>
  <note>
uni144C
</note>
  <outline>
    <contour>
      <point x="399" y="-12" type="curve" smooth="yes"/>
      <point x="660" y="-12"/>
      <point x="734" y="142"/>
      <point x="734" y="420" type="curve" smooth="yes"/>
      <point x="734" y="714" type="line"/>
      <point x="589" y="714" type="line"/>
      <point x="589" y="385" type="line" smooth="yes"/>
      <point x="589" y="199"/>
      <point x="543" y="113"/>
      <point x="400" y="113" type="curve" smooth="yes"/>
      <point x="259" y="113"/>
      <point x="212" y="198"/>
      <point x="212" y="385" type="curve" smooth="yes"/>
      <point x="212" y="714" type="line"/>
      <point x="68" y="714" type="line"/>
      <point x="68" y="407" type="line" smooth="yes"/>
      <point x="68" y="121"/>
      <point x="166" y="-12"/>
    </contour>
  </outline>
</glyph>
<glyph name="uni144E" format="2">
  <advance width="803"/>
  <unicode hex="144E"/>
  <note>
uni144E
</note>
  <outline>
    <contour>
      <point x="68" y="0" type="line"/>
      <point x="212" y="0" type="line"/>
      <point x="212" y="329" type="line" smooth="yes"/>
      <point x="212" y="516"/>
      <point x="259" y="601"/>
      <point x="400" y="601" type="curve" smooth="yes"/>
      <point x="543" y="601"/>
      <point x="589" y="515"/>
      <point x="589" y="329" type="curve" smooth="yes"/>
      <point x="589" y="0" type="line"/>
      <point x="734" y="0" type="line"/>
      <point x="734" y="294" type="line" smooth="yes"/>
      <point x="734" y="572"/>
      <point x="660" y="726"/>
      <point x="399" y="726" type="curve" smooth="yes"/>
      <point x="166" y="726"/>
      <point x="68" y="593"/>
      <point x="68" y="307" type="curve" smooth="yes"/>
    </contour>
  </outline>
</glyph>
<glyph name="uni1450" format="2">
  <advance width="707"/>
  <unicode hex="1450"/>
  <note>
uni1450
</note>
  <outline>
    <contour>
      <point x="49" y="0" type="line"/>
      <point x="186" y="0" type="line" smooth="yes"/>
      <point x="493" y="0"/>
      <point x="638" y="87"/>
      <point x="638" y="357" type="curve" smooth="yes"/>
      <point x="638" y="628"/>
      <point x="491" y="714"/>
      <point x="186" y="714" type="curve" smooth="yes"/>
      <point x="49" y="714" type="line"/>
      <point x="49" y="593" type="line"/>
      <point x="207" y="593" type="line" smooth="yes"/>
      <point x="399" y="593"/>
      <point x="491" y="526"/>
      <point x="491" y="357" type="curve" smooth="yes"/>
      <point x="491" y="188"/>
      <point x="400" y="121"/>
      <point x="207" y="121" type="curve" smooth="yes"/>
      <point x="49" y="121" type="line"/>
    </contour>
  </outline>
</glyph>
<glyph name="uni1455" format="2">
  <advance width="707"/>
  <unicode hex="1455"/>
  <note>
uni1455
</note>
  <outline>
    <contour>
      <point x="521" y="0" type="curve" smooth="yes"/>
      <point x="658" y="0" type="line"/>
      <point x="658" y="121" type="line"/>
      <point x="500" y="121" type="line" smooth="yes"/>
      <point x="307" y="121"/>
      <point x="216" y="188"/>
      <point x="216" y="357" type="curve" smooth="yes"/>
      <point x="216" y="526"/>
      <point x="308" y="593"/>
      <point x="500" y="593" type="curve" smooth="yes"/>
      <point x="658" y="593" type="line"/>
      <point x="658" y="714" type="line"/>
      <point x="521" y="714" type="line" smooth="yes"/>
      <point x="216" y="714"/>
      <point x="69" y="628"/>
      <point x="69" y="357" type="curve" smooth="yes"/>
      <point x="69" y="87"/>
      <point x="214" y="0"/>
    </contour>
  </outline>
</glyph>
<glyph name="uni1466" format="2">
  <advance width="333"/>
  <unicode hex="1466"/>
  <note>
uni1466
</note>
  <outline>
    <contour>
      <point x="294" y="332" type="curve"/>
      <point x="294" y="422" type="line"/>
      <point x="177" y="423"/>
      <point x="138" y="447"/>
      <point x="138" y="528" type="curve" smooth="yes"/>
      <point x="138" y="602"/>
      <point x="178" y="624"/>
      <point x="294" y="624" type="curve"/>
      <point x="294" y="714" type="line"/>
      <point x="117" y="714"/>
      <point x="39" y="663"/>
      <point x="39" y="528" type="curve" smooth="yes"/>
      <point x="39" y="386"/>
      <point x="114" y="332"/>
    </contour>
  </outline>
</glyph>
<glyph name="uni146B" format="2">
  <advance width="649"/>
  <unicode hex="146B"/>
  <note>
uni146B
</note>
  <outline>
    <contour>
      <point x="435" y="0" type="line"/>
      <point x="580" y="0" type="line"/>
      <point x="580" y="457" type="line" smooth="yes"/>
      <point x="580" y="610"/>
      <point x="506" y="726"/>
      <point x="321" y="726" type="curve" smooth="yes"/>
      <point x="138" y="726"/>
      <point x="59" y="609"/>
      <point x="59" y="467" type="curve" smooth="yes"/>
      <point x="59" y="318"/>
      <point x="150" y="205"/>
      <point x="314" y="205" type="curve" smooth="yes"/>
      <point x="366" y="205"/>
      <point x="405" y="216"/>
      <point x="435" y="235" type="curve"/>
    </contour>
    <contour>
      <point x="326" y="329" type="curve" smooth="yes"/>
      <point x="244" y="329"/>
      <point x="206" y="384"/>
      <point x="206" y="470" type="curve" smooth="yes"/>
      <point x="206" y="551"/>
      <point x="245" y="602"/>
      <point x="321" y="602" type="curve" smooth="yes"/>
      <point x="394" y="602"/>
      <point x="435" y="551"/>
      <point x="435" y="481" type="curve" smooth="yes"/>
      <point x="435" y="442" type="line" smooth="yes"/>
      <point x="435" y="387"/>
      <point x="398" y="329"/>
    </contour>
  </outline>
</glyph>
<glyph name="uni146D" format="2">
  <advance width="649"/>
  <unicode hex="146D"/>
  <note>
uni146D
</note>
  <outline>
    <contour>
      <point x="69" y="0" type="line"/>
      <point x="214" y="0" type="line"/>
      <point x="214" y="235" type="line"/>
      <point x="244" y="215"/>
      <point x="283" y="206"/>
      <point x="335" y="206" type="curve" smooth="yes"/>
      <point x="499" y="206"/>
      <point x="590" y="317"/>
      <point x="590" y="467" type="curve" smooth="yes"/>
      <point x="590" y="609"/>
      <point x="511" y="726"/>
      <point x="328" y="726" type="curve" smooth="yes"/>
      <point x="144" y="726"/>
      <point x="69" y="611"/>
      <point x="69" y="458" type="curve" smooth="yes"/>
    </contour>
    <contour>
      <point x="323" y="329" type="curve" smooth="yes"/>
      <point x="250" y="329"/>
      <point x="214" y="387"/>
      <point x="214" y="442" type="curve" smooth="yes"/>
      <point x="214" y="481" type="line" smooth="yes"/>
      <point x="214" y="550"/>
      <point x="254" y="602"/>
      <point x="328" y="602" type="curve" smooth="yes"/>
      <point x="404" y="602"/>
      <point x="443" y="551"/>
      <point x="443" y="470" type="curve" smooth="yes"/>
      <point x="443" y="383"/>
      <point x="404" y="329"/>
    </contour>
  </outline>
</glyph>
<glyph name="uni146F" format="2">
  <advance width="649"/>
  <unicode hex="146F"/>
  <note>
uni146F
</note>
  <outline>
    <contour>
      <point x="321" y="-12" type="curve" smooth="yes"/>
      <point x="505" y="-12"/>
      <point x="580" y="103"/>
      <point x="580" y="256" type="curve" smooth="yes"/>
      <point x="580" y="714" type="line"/>
      <point x="435" y="714" type="line"/>
      <point x="435" y="479" type="line"/>
      <point x="405" y="499"/>
      <point x="366" y="508"/>
      <point x="314" y="508" type="curve" smooth="yes"/>
      <point x="150" y="508"/>
      <point x="59" y="397"/>
      <point x="59" y="247" type="curve" smooth="yes"/>
      <point x="59" y="105"/>
      <point x="138" y="-12"/>
    </contour>
    <contour>
      <point x="321" y="112" type="curve" smooth="yes"/>
      <point x="245" y="112"/>
      <point x="206" y="163"/>
      <point x="206" y="244" type="curve" smooth="yes"/>
      <point x="206" y="331"/>
      <point x="245" y="385"/>
      <point x="326" y="385" type="curve" smooth="yes"/>
      <point x="399" y="385"/>
      <point x="435" y="327"/>
      <point x="435" y="272" type="curve" smooth="yes"/>
      <point x="435" y="233" type="line" smooth="yes"/>
      <point x="435" y="164"/>
      <point x="395" y="112"/>
    </contour>
  </outline>
</glyph>
<glyph name="uni1472" format="2">
  <advance width="649"/>
  <unicode hex="1472"/>
  <note>
uni1472
</note>
  <outline>
    <contour>
      <point x="328" y="-12" type="curve" smooth="yes"/>
      <point x="511" y="-12"/>
      <point x="590" y="105"/>
      <point x="590" y="247" type="curve" smooth="yes"/>
      <point x="590" y="397"/>
      <point x="499" y="508"/>
      <point x="335" y="508" type="curve" smooth="yes"/>
      <point x="283" y="508"/>
      <point x="244" y="499"/>
      <point x="214" y="479" type="curve"/>
      <point x="214" y="714" type="line"/>
      <point x="69" y="714" type="line"/>
      <point x="69" y="256" type="line" smooth="yes"/>
      <point x="69" y="103"/>
      <point x="144" y="-12"/>
    </contour>
    <contour>
      <point x="328" y="112" type="curve" smooth="yes"/>
      <point x="254" y="112"/>
      <point x="214" y="164"/>
      <point x="214" y="233" type="curve" smooth="yes"/>
      <point x="214" y="272" type="line" smooth="yes"/>
      <point x="214" y="327"/>
      <point x="250" y="385"/>
      <point x="323" y="385" type="curve" smooth="yes"/>
      <point x="404" y="385"/>
      <point x="443" y="331"/>
      <point x="443" y="244" type="curve" smooth="yes"/>
      <point x="443" y="163"/>
      <point x="404" y="112"/>
    </contour>
  </outline>
</glyph>
<glyph name="uni1483" format="2">
  <advance width="402"/>
  <unicode hex="1483"/>
  <note>
uni1483
</note>
  <outline>
    <contour>
      <point x="211" y="322" type="curve" smooth="yes"/>
      <point x="315" y="322"/>
      <point x="363" y="389"/>
      <point x="363" y="464" type="curve" smooth="yes"/>
      <point x="363" y="541"/>
      <point x="312" y="607"/>
      <point x="217" y="607" type="curve" smooth="yes"/>
      <point x="189" y="607"/>
      <point x="169" y="603"/>
      <point x="154" y="596" type="curve"/>
      <point x="154" y="714" type="line"/>
      <point x="60" y="714" type="line"/>
      <point x="60" y="476" type="line" smooth="yes"/>
      <point x="60" y="391"/>
      <point x="102" y="322"/>
    </contour>
    <contour>
      <point x="212" y="402" type="curve" smooth="yes"/>
      <point x="174" y="402"/>
      <point x="153" y="423"/>
      <point x="153" y="464" type="curve" smooth="yes"/>
      <point x="153" y="503"/>
      <point x="176" y="526"/>
      <point x="212" y="526" type="curve" smooth="yes"/>
      <point x="251" y="526"/>
      <point x="272" y="504"/>
      <point x="272" y="462" type="curve" smooth="yes"/>
      <point x="272" y="423"/>
      <point x="248" y="402"/>
    </contour>
  </outline>
</glyph>
<glyph name="uni1484" format="2">
  <advance width="402"/>
  <unicode hex="1484"/>
  <note>
uni1484
</note>
  <outline>
    <contour>
      <point x="192" y="322" type="curve" smooth="yes"/>
      <point x="301" y="322"/>
      <point x="344" y="391"/>
      <point x="344" y="476" type="curve" smooth="yes"/>
      <point x="344" y="714" type="line"/>
      <point x="249" y="714" type="line"/>
      <point x="249" y="597" type="line"/>
      <point x="233" y="604"/>
      <point x="214" y="607"/>
      <point x="191" y="607" type="curve" smooth="yes"/>
      <point x="86" y="607"/>
      <point x="39" y="541"/>
      <point x="39" y="464" type="curve" smooth="yes"/>
      <point x="39" y="389"/>
      <point x="87" y="322"/>
    </contour>
    <contour>
      <point x="190" y="402" type="curve" smooth="yes"/>
      <point x="155" y="402"/>
      <point x="131" y="423"/>
      <point x="131" y="462" type="curve" smooth="yes"/>
      <point x="131" y="504"/>
      <point x="152" y="526"/>
      <point x="190" y="526" type="curve" smooth="yes"/>
      <point x="227" y="526"/>
      <point x="250" y="503"/>
      <point x="250" y="464" type="curve" smooth="yes"/>
      <point x="250" y="423"/>
      <point x="228" y="402"/>
    </contour>
  </outline>
</glyph>
<glyph name="uni1489" format="2">
  <advance width="665"/>
  <unicode hex="1489"/>
  <note>
uni1489
</note>
  <outline>
    <contour>
      <point x="450" y="0" type="line"/>
      <point x="596" y="0" type="line"/>
      <point x="596" y="399" type="line" smooth="yes"/>
      <point x="596" y="623"/>
      <point x="543" y="726"/>
      <point x="330" y="726" type="curve" smooth="yes"/>
      <point x="121" y="726"/>
      <point x="59" y="633"/>
      <point x="59" y="420" type="curve" smooth="yes"/>
      <point x="59" y="401" type="line"/>
      <point x="209" y="401" type="line"/>
      <point x="209" y="441" type="line" smooth="yes"/>
      <point x="209" y="563"/>
      <point x="242" y="602"/>
      <point x="330" y="602" type="curve" smooth="yes"/>
      <point x="425" y="602"/>
      <point x="450" y="547"/>
      <point x="450" y="432" type="curve" smooth="yes"/>
    </contour>
  </outline>
</glyph>
<glyph name="uni148B" format="2">
  <advance width="665"/>
  <unicode hex="148B"/>
  <note>
uni148B
</note>
  <outline>
    <contour>
      <point x="69" y="0" type="line"/>
      <point x="215" y="0" type="line"/>
      <point x="215" y="432" type="line" smooth="yes"/>
      <point x="215" y="547"/>
      <point x="240" y="602"/>
      <point x="335" y="602" type="curve" smooth="yes"/>
      <point x="423" y="602"/>
      <point x="457" y="563"/>
      <point x="457" y="441" type="curve" smooth="yes"/>
      <point x="457" y="401" type="line"/>
      <point x="606" y="401" type="line"/>
      <point x="606" y="420" type="line" smooth="yes"/>
      <point x="606" y="633"/>
      <point x="545" y="726"/>
      <point x="335" y="726" type="curve" smooth="yes"/>
      <point x="122" y="726"/>
      <point x="69" y="623"/>
      <point x="69" y="399" type="curve" smooth="yes"/>
    </contour>
  </outline>
</glyph>
<glyph name="uni148D" format="2">
  <advance width="665"/>
  <unicode hex="148D"/>
  <note>
uni148D
</note>
  <outline>
    <contour>
      <point x="330" y="-12" type="curve" smooth="yes"/>
      <point x="543" y="-12"/>
      <point x="596" y="91"/>
      <point x="596" y="315" type="curve" smooth="yes"/>
      <point x="596" y="714" type="line"/>
      <point x="450" y="714" type="line"/>
      <point x="450" y="282" type="line" smooth="yes"/>
      <point x="450" y="167"/>
      <point x="425" y="112"/>
      <point x="330" y="112" type="curve" smooth="yes"/>
      <point x="242" y="112"/>
      <point x="209" y="151"/>
      <point x="209" y="273" type="curve" smooth="yes"/>
      <point x="209" y="313" type="line"/>
      <point x="59" y="313" type="line"/>
      <point x="59" y="294" type="line" smooth="yes"/>
      <point x="59" y="81"/>
      <point x="121" y="-12"/>
    </contour>
  </outline>
</glyph>
<glyph name="uni1490" format="2">
  <advance width="665"/>
  <unicode hex="1490"/>
  <note>
uni1490
</note>
  <outline>
    <contour>
      <point x="337" y="-12" type="curve" smooth="yes"/>
      <point x="546" y="-12"/>
      <point x="606" y="81"/>
      <point x="606" y="294" type="curve" smooth="yes"/>
      <point x="606" y="313" type="line"/>
      <point x="460" y="313" type="line"/>
      <point x="460" y="273" type="line" smooth="yes"/>
      <point x="460" y="151"/>
      <point x="425" y="112"/>
      <point x="337" y="112" type="curve" smooth="yes"/>
      <point x="242" y="112"/>
      <point x="215" y="167"/>
      <point x="215" y="282" type="curve" smooth="yes"/>
      <point x="215" y="714" type="line"/>
      <point x="69" y="714" type="line"/>
      <point x="69" y="315" type="line" smooth="yes"/>
      <point x="69" y="91"/>
      <point x="124" y="-12"/>
    </contour>
  </outline>
</glyph>
<glyph name="uni14A1" format="2">
  <advance width="392"/>
  <unicode hex="14A1"/>
  <note>
uni14A1
</note>
  <outline>
    <contour>
      <point x="200" y="322" type="curve" smooth="yes"/>
      <point x="298" y="322"/>
      <point x="353" y="381"/>
      <point x="353" y="481" type="curve" smooth="yes"/>
      <point x="353" y="522" type="line"/>
      <point x="257" y="522" type="line"/>
      <point x="257" y="492" type="line" smooth="yes"/>
      <point x="257" y="441"/>
      <point x="239" y="412"/>
      <point x="200" y="412" type="curve" smooth="yes"/>
      <point x="160" y="412"/>
      <point x="143" y="440"/>
      <point x="143" y="497" type="curve" smooth="yes"/>
      <point x="143" y="714" type="line"/>
      <point x="49" y="714" type="line"/>
      <point x="49" y="493" type="line" smooth="yes"/>
      <point x="49" y="382"/>
      <point x="100" y="322"/>
    </contour>
  </outline>
</glyph>
<glyph name="uni14A2" format="2">
  <advance width="392"/>
  <unicode hex="14A2"/>
  <note>
uni14A2
</note>
  <outline>
    <contour>
      <point x="202" y="322" type="curve" smooth="yes"/>
      <point x="302" y="322"/>
      <point x="353" y="382"/>
      <point x="353" y="493" type="curve" smooth="yes"/>
      <point x="353" y="714" type="line"/>
      <point x="259" y="714" type="line"/>
      <point x="259" y="497" type="line" smooth="yes"/>
      <point x="259" y="439"/>
      <point x="242" y="412"/>
      <point x="202" y="412" type="curve" smooth="yes"/>
      <point x="163" y="412"/>
      <point x="146" y="441"/>
      <point x="146" y="492" type="curve" smooth="yes"/>
      <point x="146" y="522" type="line"/>
      <point x="49" y="522" type="line"/>
      <point x="49" y="481" type="line" smooth="yes"/>
      <point x="49" y="381"/>
      <point x="104" y="322"/>
    </contour>
  </outline>
</glyph>
<glyph name="uni14A5" format="2">
  <advance width="624"/>
  <unicode hex="14A5"/>
  <note>
uni14A5
</note>
  <outline>
    <contour>
      <point x="68" y="0" type="line"/>
      <point x="214" y="0" type="line"/>
      <point x="214" y="593" type="line"/>
      <point x="575" y="593" type="line"/>
      <point x="575" y="714" type="line"/>
      <point x="68" y="714" type="line"/>
    </contour>
  </outline>
</glyph>
<glyph name="uni14A7" format="2">
  <advance width="625"/>
  <unicode hex="14A7"/>
  <note>
uni14A7
</note>
  <outline>
    <contour>
      <point x="49" y="0" type="line"/>
      <point x="557" y="0" type="line"/>
      <point x="557" y="714" type="line"/>
      <point x="411" y="714" type="line"/>
      <point x="411" y="121" type="line"/>
      <point x="49" y="121" type="line"/>
    </contour>
  </outline>
</glyph>
<glyph name="uni14AA" format="2">
  <advance width="624"/>
  <unicode hex="14AA"/>
  <note>
uni14AA
</note>
  <outline>
    <contour>
      <point x="68" y="0" type="line"/>
      <point x="575" y="0" type="line"/>
      <point x="575" y="121" type="line"/>
      <point x="214" y="121" type="line"/>
      <point x="214" y="714" type="line"/>
      <point x="68" y="714" type="line"/>
    </contour>
  </outline>
</glyph>
<glyph name="uni14BB" format="2">
  <advance width="362"/>
  <unicode hex="14BB"/>
  <note>
uni14BB
</note>
  <outline>
    <contour>
      <point x="39" y="332" type="line"/>
      <point x="323" y="332" type="line"/>
      <point x="323" y="422" type="line"/>
      <point x="138" y="422" type="line"/>
      <point x="138" y="714" type="line"/>
      <point x="39" y="714" type="line"/>
    </contour>
  </outline>
</glyph>
<glyph name="uni14BC" format="2">
  <advance width="386"/>
  <unicode hex="14BC"/>
  <note>
uni14BC
</note>
  <outline>
    <contour>
      <point x="278" y="332" type="curve" smooth="yes"/>
      <point x="347" y="332" type="line"/>
      <point x="347" y="422" type="line"/>
      <point x="279" y="422" type="line" smooth="yes"/>
      <point x="170" y="422"/>
      <point x="138" y="454"/>
      <point x="138" y="528" type="curve" smooth="yes"/>
      <point x="138" y="594"/>
      <point x="173" y="624"/>
      <point x="263" y="624" type="curve" smooth="yes"/>
      <point x="347" y="624" type="line"/>
      <point x="347" y="714" type="line"/>
      <point x="268" y="714" type="line" smooth="yes"/>
      <point x="113" y="714"/>
      <point x="39" y="657"/>
      <point x="39" y="528" type="curve" smooth="yes"/>
      <point x="39" y="392"/>
      <point x="112" y="332"/>
    </contour>
  </outline>
</glyph>
<glyph name="uni14BD" format="2">
  <advance width="362"/>
  <unicode hex="14BD"/>
  <note>
uni14BD
</note>
  <outline>
    <contour>
      <point x="39" y="332" type="line"/>
      <point x="323" y="332" type="line"/>
      <point x="323" y="714" type="line"/>
      <point x="224" y="714" type="line"/>
      <point x="224" y="422" type="line"/>
      <point x="39" y="422" type="line"/>
    </contour>
  </outline>
</glyph>
<glyph name="uni14BE" format="2">
  <advance width="377"/>
  <unicode hex="14BE"/>
  <note>
uni14BE
</note>
  <outline>
    <contour>
      <point x="48" y="333" type="line"/>
      <point x="338" y="333" type="line"/>
      <point x="338" y="411" type="line"/>
      <point x="191" y="411" type="line"/>
      <point x="245" y="463" type="line" smooth="yes"/>
      <point x="310" y="525"/>
      <point x="334" y="559"/>
      <point x="334" y="608" type="curve" smooth="yes"/>
      <point x="334" y="671"/>
      <point x="286" y="724"/>
      <point x="191" y="724" type="curve" smooth="yes"/>
      <point x="97" y="724"/>
      <point x="41" y="670"/>
      <point x="39" y="594" type="curve"/>
      <point x="133" y="594" type="line"/>
      <point x="133" y="627"/>
      <point x="155" y="643"/>
      <point x="187" y="643" type="curve" smooth="yes"/>
      <point x="219" y="643"/>
      <point x="237" y="626"/>
      <point x="237" y="605" type="curve" smooth="yes"/>
      <point x="237" y="576"/>
      <point x="203" y="543"/>
      <point x="159" y="500" type="curve" smooth="yes"/>
      <point x="48" y="392" type="line"/>
    </contour>
  </outline>
</glyph>
<glyph name="uni14BF" format="2">
  <advance width="608"/>
  <unicode hex="14BF"/>
  <note>
uni14BF
</note>
  <outline>
    <contour>
      <point x="74" y="0" type="line"/>
      <point x="544" y="0" type="line"/>
      <point x="544" y="121" type="line"/>
      <point x="279" y="121" type="line"/>
      <point x="361" y="200" type="line" smooth="yes"/>
      <point x="506" y="340"/>
      <point x="549" y="412"/>
      <point x="549" y="512" type="curve" smooth="yes"/>
      <point x="549" y="633"/>
      <point x="472" y="726"/>
      <point x="307" y="726" type="curve" smooth="yes"/>
      <point x="150" y="726"/>
      <point x="59" y="645"/>
      <point x="59" y="517" type="curve"/>
      <point x="201" y="517" type="line"/>
      <point x="201" y="571"/>
      <point x="240" y="601"/>
      <point x="302" y="601" type="curve" smooth="yes"/>
      <point x="368" y="601"/>
      <point x="403" y="560"/>
      <point x="403" y="507" type="curve" smooth="yes"/>
      <point x="403" y="436"/>
      <point x="343" y="373"/>
      <point x="260" y="289" type="curve" smooth="yes"/>
      <point x="74" y="100" type="line"/>
    </contour>
  </outline>
</glyph>
<glyph name="uni14C0" format="2">
  <advance width="932"/>
  <unicode hex="14C0"/>
  <note>
uni14C0
</note>
  <outline>
    <contour>
      <point x="611" y="-12" type="curve" smooth="yes"/>
      <point x="768" y="-12"/>
      <point x="873" y="90"/>
      <point x="873" y="250" type="curve" smooth="yes"/>
      <point x="873" y="412"/>
      <point x="764" y="509"/>
      <point x="600" y="509" type="curve" smooth="yes"/>
      <point x="49" y="509" type="line"/>
      <point x="49" y="389" type="line"/>
      <point x="385" y="389" type="line"/>
      <point x="357" y="347"/>
      <point x="346" y="303"/>
      <point x="346" y="243" type="curve" smooth="yes"/>
      <point x="346" y="90"/>
      <point x="458" y="-12"/>
    </contour>
    <contour>
      <point x="612" y="107" type="curve" smooth="yes"/>
      <point x="537" y="107"/>
      <point x="475" y="159"/>
      <point x="475" y="244" type="curve" smooth="yes"/>
      <point x="475" y="332"/>
      <point x="526" y="392"/>
      <point x="609" y="392" type="curve" smooth="yes"/>
      <point x="685" y="392"/>
      <point x="743" y="338"/>
      <point x="743" y="251" type="curve" smooth="yes"/>
      <point x="743" y="164"/>
      <point x="690" y="107"/>
    </contour>
  </outline>
</glyph>
<glyph name="uni14C2" format="2">
  <advance width="932"/>
  <unicode hex="14C2"/>
  <note>
uni14C2
</note>
  <outline>
    <contour>
      <point x="321" y="-12" type="curve" smooth="yes"/>
      <point x="474" y="-12"/>
      <point x="587" y="90"/>
      <point x="587" y="243" type="curve" smooth="yes"/>
      <point x="587" y="302"/>
      <point x="576" y="346"/>
      <point x="548" y="389" type="curve"/>
      <point x="883" y="389" type="line"/>
      <point x="883" y="509" type="line"/>
      <point x="332" y="509" type="line" smooth="yes"/>
      <point x="168" y="509"/>
      <point x="59" y="412"/>
      <point x="59" y="250" type="curve" smooth="yes"/>
      <point x="59" y="90"/>
      <point x="164" y="-12"/>
    </contour>
    <contour>
      <point x="320" y="107" type="curve" smooth="yes"/>
      <point x="241" y="107"/>
      <point x="189" y="165"/>
      <point x="189" y="251" type="curve" smooth="yes"/>
      <point x="189" y="338"/>
      <point x="247" y="392"/>
      <point x="323" y="392" type="curve" smooth="yes"/>
      <point x="406" y="392"/>
      <point x="457" y="332"/>
      <point x="457" y="244" type="curve" smooth="yes"/>
      <point x="457" y="159"/>
      <point x="395" y="107"/>
    </contour>
  </outline>
</glyph>
<glyph name="uni14C4" format="2">
  <advance width="931"/>
  <unicode hex="14C4"/>
  <note>
uni14C4
</note>
  <outline>
    <contour>
      <point x="49" y="0" type="line"/>
      <point x="600" y="0" type="line" smooth="yes"/>
      <point x="764" y="0"/>
      <point x="873" y="97"/>
      <point x="873" y="259" type="curve" smooth="yes"/>
      <point x="873" y="420"/>
      <point x="768" y="522"/>
      <point x="611" y="522" type="curve" smooth="yes"/>
      <point x="458" y="522"/>
      <point x="346" y="420"/>
      <point x="346" y="267" type="curve" smooth="yes"/>
      <point x="346" y="208"/>
      <point x="357" y="164"/>
      <point x="385" y="121" type="curve"/>
      <point x="49" y="121" type="line"/>
    </contour>
    <contour>
      <point x="609" y="118" type="curve" smooth="yes"/>
      <point x="526" y="118"/>
      <point x="475" y="178"/>
      <point x="475" y="265" type="curve" smooth="yes"/>
      <point x="475" y="351"/>
      <point x="537" y="402"/>
      <point x="612" y="402" type="curve" smooth="yes"/>
      <point x="691" y="402"/>
      <point x="743" y="345"/>
      <point x="743" y="259" type="curve" smooth="yes"/>
      <point x="743" y="172"/>
      <point x="685" y="118"/>
    </contour>
  </outline>
</glyph>
<glyph name="uni14C7" format="2">
  <advance width="932"/>
  <unicode hex="14C7"/>
  <note>
uni14C7
</note>
  <outline>
    <contour>
      <point x="332" y="0" type="curve" smooth="yes"/>
      <point x="883" y="0" type="line"/>
      <point x="883" y="121" type="line"/>
      <point x="548" y="121" type="line"/>
      <point x="575" y="163"/>
      <point x="587" y="207"/>
      <point x="587" y="267" type="curve" smooth="yes"/>
      <point x="587" y="420"/>
      <point x="474" y="522"/>
      <point x="321" y="522" type="curve" smooth="yes"/>
      <point x="164" y="522"/>
      <point x="59" y="420"/>
      <point x="59" y="259" type="curve" smooth="yes"/>
      <point x="59" y="97"/>
      <point x="168" y="0"/>
    </contour>
    <contour>
      <point x="323" y="118" type="curve" smooth="yes"/>
      <point x="247" y="118"/>
      <point x="189" y="172"/>
      <point x="189" y="259" type="curve" smooth="yes"/>
      <point x="189" y="346"/>
      <point x="242" y="402"/>
      <point x="320" y="402" type="curve" smooth="yes"/>
      <point x="395" y="402"/>
      <point x="457" y="351"/>
      <point x="457" y="265" type="curve" smooth="yes"/>
      <point x="457" y="178"/>
      <point x="406" y="118"/>
    </contour>
  </outline>
</glyph>
<glyph name="uni14D0" format="2">
  <advance width="597"/>
  <unicode hex="14D0"/>
  <note>
uni14D0
</note>
  <outline>
    <contour>
      <point x="208" y="381" type="curve" smooth="yes"/>
      <point x="573" y="381" type="line"/>
      <point x="573" y="471" type="line"/>
      <point x="360" y="471" type="line"/>
      <point x="374" y="496"/>
      <point x="381" y="522"/>
      <point x="381" y="553" type="curve" smooth="yes"/>
      <point x="381" y="639"/>
      <point x="321" y="720"/>
      <point x="210" y="720" type="curve" smooth="yes"/>
      <point x="99" y="720"/>
      <point x="39" y="639"/>
      <point x="39" y="552" type="curve" smooth="yes"/>
      <point x="39" y="464"/>
      <point x="99" y="381"/>
    </contour>
    <contour>
      <point x="210" y="473" type="curve" smooth="yes"/>
      <point x="166" y="473"/>
      <point x="138" y="508"/>
      <point x="138" y="552" type="curve" smooth="yes"/>
      <point x="138" y="594"/>
      <point x="165" y="630"/>
      <point x="210" y="630" type="curve" smooth="yes"/>
      <point x="254" y="630"/>
      <point x="282" y="595"/>
      <point x="282" y="552" type="curve" smooth="yes"/>
      <point x="282" y="509"/>
      <point x="254" y="473"/>
    </contour>
  </outline>
</glyph>
<glyph name="uni14D1" format="2">
	<advance width="441"/>
	<unicode hex="14D1"/>
	<note>
		uni14D1
	</note>
	<outline>
		<contour>
			<point x="39" y="554" type="line"/>
			<point x="39" y="343" type="line" smooth="yes"/>
			<point x="39" y="203"/>
			<point x="105" y="154"/>
			<point x="220" y="154" type="curve" smooth="yes"/>
			<point x="349" y="154"/>
			<point x="402" y="215"/>
			<point x="402" y="349" type="curve" smooth="yes"/>
			<point x="402" y="554" type="line"/>
			<point x="303" y="554" type="line"/>
			<point x="303" y="340" type="line" smooth="yes"/>
			<point x="303" y="272"/>
			<point x="275" y="244"/>
			<point x="220" y="244" type="curve" smooth="yes"/>
			<point x="166" y="244"/>
			<point x="138" y="272"/>
			<point x="138" y="340" type="curve" smooth="yes"/>
			<point x="138" y="554" type="line"/>
		</contour>
	</outline>
</glyph>
<glyph name="uni14D2" format="2">
  <advance width="597"/>
  <unicode hex="14D2"/>
  <note>
uni14D2
</note>
  <outline>
    <contour>
      <point x="24" y="381" type="line"/>
      <point x="389" y="381" type="line" smooth="yes"/>
      <point x="498" y="381"/>
      <point x="558" y="464"/>
      <point x="558" y="552" type="curve" smooth="yes"/>
      <point x="558" y="638"/>
      <point x="498" y="720"/>
      <point x="387" y="720" type="curve" smooth="yes"/>
      <point x="276" y="720"/>
      <point x="216" y="639"/>
      <point x="216" y="553" type="curve" smooth="yes"/>
      <point x="216" y="522"/>
      <point x="223" y="496"/>
      <point x="237" y="471" type="curve"/>
      <point x="24" y="471" type="line"/>
    </contour>
    <contour>
      <point x="387" y="473" type="curve" smooth="yes"/>
      <point x="342" y="473"/>
      <point x="315" y="510"/>
      <point x="315" y="552" type="curve" smooth="yes"/>
      <point x="315" y="595"/>
      <point x="343" y="630"/>
      <point x="387" y="630" type="curve" smooth="yes"/>
      <point x="432" y="630"/>
      <point x="459" y="594"/>
      <point x="459" y="552" type="curve" smooth="yes"/>
      <point x="459" y="508"/>
      <point x="431" y="473"/>
    </contour>
  </outline>
</glyph>
<glyph name="uni14D3" format="2">
  <advance width="919"/>
  <unicode hex="14D3"/>
  <note>
uni14D3
</note>
  <outline>
    <contour>
      <point x="475" y="0" type="line"/>
      <point x="603" y="0" type="line" smooth="yes"/>
      <point x="759" y="0"/>
      <point x="860" y="98"/>
      <point x="860" y="259" type="curve" smooth="yes"/>
      <point x="860" y="423"/>
      <point x="767" y="511"/>
      <point x="580" y="511" type="curve" smooth="yes"/>
      <point x="49" y="511" type="line"/>
      <point x="49" y="389" type="line"/>
      <point x="579" y="389" type="line" smooth="yes"/>
      <point x="682" y="389"/>
      <point x="733" y="348"/>
      <point x="733" y="257" type="curve" smooth="yes"/>
      <point x="733" y="175"/>
      <point x="683" y="121"/>
      <point x="607" y="121" type="curve" smooth="yes"/>
      <point x="475" y="121" type="line"/>
    </contour>
  </outline>
</glyph>
<glyph name="uni14D5" format="2">
  <advance width="919"/>
  <unicode hex="14D5"/>
  <note>
uni14D5
</note>
  <outline>
    <contour>
      <point x="324" y="0" type="curve" smooth="yes"/>
      <point x="445" y="0" type="line"/>
      <point x="445" y="121" type="line"/>
      <point x="319" y="121" type="line" smooth="yes"/>
      <point x="239" y="121"/>
      <point x="186" y="170"/>
      <point x="186" y="255" type="curve" smooth="yes"/>
      <point x="186" y="350"/>
      <point x="241" y="389"/>
      <point x="336" y="389" type="curve" smooth="yes"/>
      <point x="870" y="389" type="line"/>
      <point x="870" y="510" type="line"/>
      <point x="333" y="510" type="line" smooth="yes"/>
      <point x="144" y="510"/>
      <point x="59" y="400"/>
      <point x="59" y="254" type="curve" smooth="yes"/>
      <point x="59" y="116"/>
      <point x="148" y="0"/>
    </contour>
  </outline>
</glyph>
<glyph name="uni14D7" format="2">
  <advance width="919"/>
  <unicode hex="14D7"/>
  <note>
uni14D7
</note>
  <outline>
    <contour>
      <point x="49" y="0" type="line"/>
      <point x="587" y="0" type="line" smooth="yes"/>
      <point x="775" y="0"/>
      <point x="860" y="111"/>
      <point x="860" y="256" type="curve" smooth="yes"/>
      <point x="860" y="394"/>
      <point x="771" y="510"/>
      <point x="596" y="510" type="curve" smooth="yes"/>
      <point x="475" y="510" type="line"/>
      <point x="475" y="389" type="line"/>
      <point x="601" y="389" type="line" smooth="yes"/>
      <point x="681" y="389"/>
      <point x="733" y="340"/>
      <point x="733" y="255" type="curve" smooth="yes"/>
      <point x="733" y="161"/>
      <point x="679" y="121"/>
      <point x="584" y="121" type="curve" smooth="yes"/>
      <point x="49" y="121" type="line"/>
    </contour>
  </outline>
</glyph>
<glyph name="uni14DA" format="2">
  <advance width="919"/>
  <unicode hex="14DA"/>
  <note>
uni14DA
</note>
  <outline>
    <contour>
      <point x="333" y="0" type="curve" smooth="yes"/>
      <point x="870" y="0" type="line"/>
      <point x="870" y="121" type="line"/>
      <point x="336" y="121" type="line" smooth="yes"/>
      <point x="241" y="121"/>
      <point x="186" y="161"/>
      <point x="186" y="255" type="curve" smooth="yes"/>
      <point x="186" y="339"/>
      <point x="239" y="389"/>
      <point x="319" y="389" type="curve" smooth="yes"/>
      <point x="445" y="389" type="line"/>
      <point x="445" y="510" type="line"/>
      <point x="324" y="510" type="line" smooth="yes"/>
      <point x="148" y="510"/>
      <point x="59" y="394"/>
      <point x="59" y="256" type="curve" smooth="yes"/>
      <point x="59" y="111"/>
      <point x="144" y="0"/>
    </contour>
  </outline>
</glyph>
<glyph name="uni14EA" format="2">
  <advance width="542"/>
  <unicode hex="14EA"/>
  <note>
uni14EA
</note>
  <outline>
    <contour>
      <point x="215" y="377" type="curve" smooth="yes"/>
      <point x="503" y="377" type="line"/>
      <point x="503" y="467" type="line"/>
      <point x="215" y="467" type="line" smooth="yes"/>
      <point x="165" y="467"/>
      <point x="138" y="500"/>
      <point x="138" y="547" type="curve" smooth="yes"/>
      <point x="138" y="590"/>
      <point x="166" y="625"/>
      <point x="214" y="625" type="curve" smooth="yes"/>
      <point x="248" y="625" type="line"/>
      <point x="248" y="714" type="line"/>
      <point x="212" y="714" type="line" smooth="yes"/>
      <point x="98" y="714"/>
      <point x="39" y="637"/>
      <point x="39" y="548" type="curve" smooth="yes"/>
      <point x="39" y="454"/>
      <point x="97" y="377"/>
    </contour>
  </outline>
</glyph>
<glyph name="uni14EB" format="2">
  <advance width="383"/>
  <unicode hex="14EB"/>
  <note>
uni14EB
</note>
  <outline>
    <contour>
      <point x="322" y="305" type="line"/>
      <point x="343" y="305" type="line"/>
      <point x="343" y="382" type="line"/>
      <point x="174" y="434" type="line"/>
      <point x="344" y="492" type="line"/>
      <point x="344" y="541" type="line"/>
      <point x="174" y="597" type="line"/>
      <point x="343" y="648" type="line"/>
      <point x="343" y="725" type="line"/>
      <point x="322" y="725" type="line"/>
      <point x="39" y="630" type="line"/>
      <point x="39" y="575" type="line"/>
      <point x="200" y="517" type="line"/>
      <point x="39" y="457" type="line"/>
      <point x="39" y="402" type="line"/>
    </contour>
  </outline>
</glyph>
<glyph name="uni14EC" format="2">
  <advance width="651"/>
  <unicode hex="14EC"/>
  <note>
uni14EC
</note>
  <outline>
    <contour>
      <point x="561" y="-12" type="line"/>
      <point x="591" y="-12" type="line"/>
      <point x="591" y="101" type="line"/>
      <point x="261" y="212" type="line"/>
      <point x="592" y="328" type="line"/>
      <point x="592" y="385" type="line"/>
      <point x="261" y="502" type="line"/>
      <point x="591" y="612" type="line"/>
      <point x="591" y="725" type="line"/>
      <point x="561" y="725" type="line"/>
      <point x="59" y="556" type="line"/>
      <point x="59" y="468" type="line"/>
      <point x="370" y="357" type="line"/>
      <point x="59" y="246" type="line"/>
      <point x="59" y="157" type="line"/>
    </contour>
  </outline>
</glyph>
<glyph name="uni14ED" format="2">
  <advance width="628"/>
  <unicode hex="14ED"/>
  <note>
uni14ED
</note>
  <outline>
    <contour>
      <point x="414" y="0" type="line"/>
      <point x="559" y="0" type="line"/>
      <point x="559" y="371" type="line"/>
      <point x="481" y="371" type="line" smooth="yes"/>
      <point x="290" y="371"/>
      <point x="204" y="436"/>
      <point x="204" y="647" type="curve" smooth="yes"/>
      <point x="204" y="714" type="line"/>
      <point x="59" y="714" type="line"/>
      <point x="59" y="629" type="line" smooth="yes"/>
      <point x="59" y="391"/>
      <point x="184" y="256"/>
      <point x="399" y="256" type="curve" smooth="yes"/>
      <point x="414" y="256" type="line"/>
    </contour>
  </outline>
</glyph>
<glyph name="uni14EF" format="2">
  <advance width="627"/>
  <unicode hex="14EF"/>
  <note>
uni14EF
</note>
  <outline>
    <contour>
      <point x="68" y="0" type="line"/>
      <point x="213" y="0" type="line"/>
      <point x="213" y="256" type="line"/>
      <point x="228" y="256" type="line" smooth="yes"/>
      <point x="443" y="256"/>
      <point x="568" y="391"/>
      <point x="568" y="629" type="curve" smooth="yes"/>
      <point x="568" y="714" type="line"/>
      <point x="422" y="714" type="line"/>
      <point x="422" y="647" type="line" smooth="yes"/>
      <point x="422" y="435"/>
      <point x="337" y="371"/>
      <point x="146" y="371" type="curve" smooth="yes"/>
      <point x="68" y="371" type="line"/>
    </contour>
  </outline>
</glyph>
<glyph name="uni14F1" format="2">
  <advance width="628"/>
  <unicode hex="14F1"/>
  <note>
uni14F1
</note>
  <outline>
    <contour>
      <point x="59" y="0" type="line"/>
      <point x="204" y="0" type="line"/>
      <point x="204" y="67" type="line" smooth="yes"/>
      <point x="204" y="278"/>
      <point x="290" y="343"/>
      <point x="481" y="343" type="curve" smooth="yes"/>
      <point x="559" y="343" type="line"/>
      <point x="559" y="714" type="line"/>
      <point x="414" y="714" type="line"/>
      <point x="414" y="458" type="line"/>
      <point x="399" y="458" type="line" smooth="yes"/>
      <point x="184" y="458"/>
      <point x="59" y="323"/>
      <point x="59" y="85" type="curve" smooth="yes"/>
    </contour>
  </outline>
</glyph>
<glyph name="uni14F4" format="2">
  <advance width="628"/>
  <unicode hex="14F4"/>
  <note>
uni14F4
</note>
  <outline>
    <contour>
      <point x="423" y="0" type="line"/>
      <point x="569" y="0" type="line"/>
      <point x="569" y="85" type="line" smooth="yes"/>
      <point x="569" y="323"/>
      <point x="444" y="458"/>
      <point x="229" y="458" type="curve" smooth="yes"/>
      <point x="214" y="458" type="line"/>
      <point x="214" y="714" type="line"/>
      <point x="69" y="714" type="line"/>
      <point x="69" y="343" type="line"/>
      <point x="147" y="343" type="line" smooth="yes"/>
      <point x="338" y="343"/>
      <point x="423" y="278"/>
      <point x="423" y="67" type="curve" smooth="yes"/>
    </contour>
  </outline>
</glyph>
<glyph name="uni1505" format="2">
  <advance width="376"/>
  <unicode hex="1505"/>
  <note>
uni1505
</note>
  <outline>
    <contour>
      <point x="238" y="332" type="line"/>
      <point x="337" y="332" type="line"/>
      <point x="337" y="404" type="line" smooth="yes"/>
      <point x="337" y="535"/>
      <point x="281" y="594"/>
      <point x="154" y="594" type="curve" smooth="yes"/>
      <point x="138" y="594" type="line"/>
      <point x="138" y="714" type="line"/>
      <point x="39" y="714" type="line"/>
      <point x="39" y="504" type="line"/>
      <point x="96" y="504" type="line" smooth="yes"/>
      <point x="204" y="504"/>
      <point x="238" y="481"/>
      <point x="238" y="383" type="curve" smooth="yes"/>
    </contour>
  </outline>
</glyph>
<glyph name="uni1506" format="2">
	<advance width="384"/>
	<unicode hex="1506"/>
	<note>
		uni1506
	</note>
	<outline>
		<contour>
			<point x="195" y="160" type="curve" smooth="yes"/>
			<point x="280" y="160"/>
			<point x="345" y="198"/>
			<point x="345" y="271" type="curve" smooth="yes"/>
			<point x="345" y="347"/>
			<point x="275" y="372"/>
			<point x="198" y="399" type="curve" smooth="yes"/>
			<point x="169" y="409"/>
			<point x="135" y="421"/>
			<point x="135" y="444" type="curve" smooth="yes"/>
			<point x="135" y="465"/>
			<point x="161" y="472"/>
			<point x="184" y="472" type="curve" smooth="yes"/>
			<point x="219" y="472"/>
			<point x="247" y="456"/>
			<point x="264" y="435" type="curve"/>
			<point x="345" y="472" type="line"/>
			<point x="313" y="522"/>
			<point x="268" y="555"/>
			<point x="189" y="555" type="curve" smooth="yes"/>
			<point x="104" y="555"/>
			<point x="39" y="517"/>
			<point x="39" y="444" type="curve" smooth="yes"/>
			<point x="39" y="368"/>
			<point x="109" y="343"/>
			<point x="186" y="316" type="curve" smooth="yes"/>
			<point x="215" y="306"/>
			<point x="249" y="294"/>
			<point x="249" y="271" type="curve" smooth="yes"/>
			<point x="249" y="250"/>
			<point x="223" y="243"/>
			<point x="200" y="243" type="curve" smooth="yes"/>
			<point x="165" y="243"/>
			<point x="137" y="259"/>
			<point x="120" y="280" type="curve"/>
			<point x="39" y="243" type="line"/>
			<point x="71" y="193"/>
			<point x="116" y="160"/>
		</contour>
	</outline>
</glyph>
<glyph name="uni1507" format="2">
  <advance width="376"/>
  <unicode hex="1507"/>
  <note>
uni1507
</note>
  <outline>
    <contour>
      <point x="39" y="332" type="line"/>
      <point x="138" y="332" type="line"/>
      <point x="138" y="383" type="line" smooth="yes"/>
      <point x="138" y="480"/>
      <point x="171" y="504"/>
      <point x="280" y="504" type="curve" smooth="yes"/>
      <point x="337" y="504" type="line"/>
      <point x="337" y="714" type="line"/>
      <point x="237" y="714" type="line"/>
      <point x="237" y="594" type="line"/>
      <point x="222" y="594" type="line" smooth="yes"/>
      <point x="95" y="594"/>
      <point x="39" y="535"/>
      <point x="39" y="404" type="curve" smooth="yes"/>
    </contour>
  </outline>
</glyph>
<glyph name="uni1508" format="2">
  <advance width="447"/>
  <unicode hex="1508"/>
  <note>
uni1508
</note>
  <outline>
    <contour>
      <point x="217" y="332" type="curve" smooth="yes"/>
      <point x="408" y="332" type="line"/>
      <point x="408" y="422" type="line"/>
      <point x="263" y="422" type="line" smooth="yes"/>
      <point x="177" y="422"/>
      <point x="138" y="446"/>
      <point x="138" y="544" type="curve" smooth="yes"/>
      <point x="138" y="702" type="line"/>
      <point x="39" y="702" type="line"/>
      <point x="39" y="523" type="line" smooth="yes"/>
      <point x="39" y="394"/>
      <point x="104" y="332"/>
    </contour>
  </outline>
</glyph>
<glyph name="uni1509" format="2">
  <advance width="376"/>
  <unicode hex="1509"/>
  <note>
uni1509
</note>
  <outline>
    <contour>
      <point x="190" y="250" type="curve" smooth="yes"/>
      <point x="287" y="250"/>
      <point x="337" y="313"/>
      <point x="337" y="415" type="curve" smooth="yes"/>
      <point x="337" y="533"/>
      <point x="269" y="594"/>
      <point x="151" y="594" type="curve" smooth="yes"/>
      <point x="138" y="594" type="line"/>
      <point x="138" y="714" type="line"/>
      <point x="39" y="714" type="line"/>
      <point x="39" y="509" type="line"/>
      <point x="105" y="509" type="line" smooth="yes"/>
      <point x="213" y="509"/>
      <point x="241" y="464"/>
      <point x="241" y="393" type="curve" smooth="yes"/>
      <point x="241" y="344"/>
      <point x="226" y="324"/>
      <point x="200" y="324" type="curve" smooth="yes"/>
      <point x="176" y="324"/>
      <point x="166" y="339"/>
      <point x="166" y="360" type="curve" smooth="yes"/>
      <point x="166" y="391"/>
      <point x="190" y="408"/>
      <point x="249" y="408" type="curve" smooth="yes"/>
      <point x="263" y="408" type="line"/>
      <point x="263" y="480" type="line"/>
      <point x="252" y="480" type="line" smooth="yes"/>
      <point x="132" y="480"/>
      <point x="72" y="433"/>
      <point x="72" y="359" type="curve" smooth="yes"/>
      <point x="72" y="293"/>
      <point x="116" y="250"/>
    </contour>
  </outline>
</glyph>
<glyph name="uni150A" format="2">
  <advance width="376"/>
  <unicode hex="150A"/>
  <note>
uni150A
</note>
  <outline>
    <contour>
      <point x="186" y="250" type="curve" smooth="yes"/>
      <point x="260" y="250"/>
      <point x="304" y="293"/>
      <point x="304" y="359" type="curve" smooth="yes"/>
      <point x="304" y="433"/>
      <point x="244" y="480"/>
      <point x="124" y="480" type="curve" smooth="yes"/>
      <point x="113" y="480" type="line"/>
      <point x="113" y="408" type="line"/>
      <point x="127" y="408" type="line" smooth="yes"/>
      <point x="186" y="408"/>
      <point x="210" y="391"/>
      <point x="210" y="360" type="curve" smooth="yes"/>
      <point x="210" y="339"/>
      <point x="200" y="324"/>
      <point x="176" y="324" type="curve" smooth="yes"/>
      <point x="150" y="324"/>
      <point x="135" y="344"/>
      <point x="135" y="393" type="curve" smooth="yes"/>
      <point x="135" y="464"/>
      <point x="163" y="509"/>
      <point x="271" y="509" type="curve" smooth="yes"/>
      <point x="337" y="509" type="line"/>
      <point x="337" y="714" type="line"/>
      <point x="238" y="714" type="line"/>
      <point x="238" y="594" type="line"/>
      <point x="225" y="594" type="line" smooth="yes"/>
      <point x="107" y="594"/>
      <point x="39" y="533"/>
      <point x="39" y="415" type="curve" smooth="yes"/>
      <point x="39" y="313"/>
      <point x="89" y="250"/>
    </contour>
  </outline>
</glyph>
<glyph name="uni150B" format="2">
  <advance width="404"/>
  <unicode hex="150B"/>
  <note>
uni150B
</note>
  <outline>
    <contour>
      <point x="242" y="335" type="line"/>
      <point x="341" y="335" type="line"/>
      <point x="341" y="384" type="line" smooth="yes"/>
      <point x="341" y="511"/>
      <point x="291" y="568"/>
      <point x="183" y="568" type="curve" smooth="yes"/>
      <point x="163" y="568" type="line"/>
      <point x="163" y="664" type="line"/>
      <point x="64" y="664" type="line"/>
      <point x="64" y="477" type="line"/>
      <point x="129" y="477" type="line" smooth="yes"/>
      <point x="215" y="477"/>
      <point x="242" y="454"/>
      <point x="242" y="368" type="curve" smooth="yes"/>
    </contour>
    <contour>
      <point x="292" y="152" type="curve" smooth="yes"/>
      <point x="332" y="152"/>
      <point x="365" y="185"/>
      <point x="365" y="226" type="curve" smooth="yes"/>
      <point x="365" y="267"/>
      <point x="332" y="300"/>
      <point x="292" y="300" type="curve" smooth="yes"/>
      <point x="250" y="300"/>
      <point x="217" y="267"/>
      <point x="217" y="226" type="curve" smooth="yes"/>
      <point x="217" y="185"/>
      <point x="250" y="152"/>
    </contour>
    <contour>
      <point x="113" y="699" type="curve" smooth="yes"/>
      <point x="154" y="699"/>
      <point x="187" y="732"/>
      <point x="187" y="773" type="curve" smooth="yes"/>
      <point x="187" y="814"/>
      <point x="154" y="847"/>
      <point x="113" y="847" type="curve" smooth="yes"/>
      <point x="72" y="847"/>
      <point x="39" y="814"/>
      <point x="39" y="773" type="curve" smooth="yes"/>
      <point x="39" y="732"/>
      <point x="72" y="699"/>
    </contour>
  </outline>
</glyph>
<glyph name="uni150C" format="2">
  <advance width="736"/>
  <unicode hex="150C"/>
  <note>
uni150C
</note>
  <outline>
    <contour>
      <point x="656" y="-10" type="line"/>
      <point x="687" y="-10" type="line"/>
      <point x="687" y="125" type="line"/>
      <point x="274" y="358" type="line"/>
      <point x="687" y="591" type="line"/>
      <point x="687" y="725" type="line"/>
      <point x="656" y="725" type="line"/>
      <point x="39" y="373" type="line"/>
      <point x="39" y="341" type="line"/>
    </contour>
    <contour>
      <point x="119" y="500" type="curve" smooth="yes"/>
      <point x="160" y="500"/>
      <point x="193" y="532"/>
      <point x="193" y="574" type="curve" smooth="yes"/>
      <point x="193" y="614"/>
      <point x="160" y="648"/>
      <point x="119" y="648" type="curve" smooth="yes"/>
      <point x="78" y="648"/>
      <point x="45" y="614"/>
      <point x="45" y="574" type="curve" smooth="yes"/>
      <point x="45" y="532"/>
      <point x="78" y="500"/>
    </contour>
    <contour>
      <point x="293" y="613" type="line"/>
      <point x="392" y="613" type="line"/>
      <point x="392" y="665" type="line" smooth="yes"/>
      <point x="392" y="792"/>
      <point x="341" y="849"/>
      <point x="233" y="849" type="curve" smooth="yes"/>
      <point x="214" y="849" type="line"/>
      <point x="214" y="946" type="line"/>
      <point x="115" y="946" type="line"/>
      <point x="115" y="758" type="line"/>
      <point x="179" y="758" type="line" smooth="yes"/>
      <point x="266" y="758"/>
      <point x="293" y="735"/>
      <point x="293" y="649" type="curve" smooth="yes"/>
    </contour>
    <contour>
      <point x="523" y="732" type="curve" smooth="yes"/>
      <point x="563" y="732"/>
      <point x="597" y="765"/>
      <point x="597" y="806" type="curve" smooth="yes"/>
      <point x="597" y="846"/>
      <point x="563" y="880"/>
      <point x="523" y="880" type="curve" smooth="yes"/>
      <point x="482" y="880"/>
      <point x="449" y="846"/>
      <point x="449" y="806" type="curve" smooth="yes"/>
      <point x="449" y="765"/>
      <point x="482" y="732"/>
    </contour>
  </outline>
</glyph>
<glyph name="uni1510" format="2">
  <advance width="870"/>
  <unicode hex="1510"/>
  <note>
uni1510
</note>
  <outline>
    <contour>
      <point x="587" y="-12" type="curve" smooth="yes"/>
      <point x="738" y="-12"/>
      <point x="811" y="68"/>
      <point x="811" y="244" type="curve" smooth="yes"/>
      <point x="811" y="292" type="line"/>
      <point x="667" y="292" type="line"/>
      <point x="667" y="231" type="line" smooth="yes"/>
      <point x="667" y="143"/>
      <point x="642" y="107"/>
      <point x="584" y="107" type="curve" smooth="yes"/>
      <point x="530" y="107"/>
      <point x="507" y="142"/>
      <point x="507" y="232" type="curve" smooth="yes"/>
      <point x="507" y="483" type="line" smooth="yes"/>
      <point x="507" y="645"/>
      <point x="430" y="726"/>
      <point x="283" y="726" type="curve" smooth="yes"/>
      <point x="133" y="726"/>
      <point x="59" y="646"/>
      <point x="59" y="470" type="curve" smooth="yes"/>
      <point x="59" y="422" type="line"/>
      <point x="203" y="422" type="line"/>
      <point x="203" y="483" type="line" smooth="yes"/>
      <point x="203" y="569"/>
      <point x="228" y="607"/>
      <point x="287" y="607" type="curve" smooth="yes"/>
      <point x="340" y="607"/>
      <point x="363" y="573"/>
      <point x="363" y="482" type="curve" smooth="yes"/>
      <point x="363" y="231" type="line" smooth="yes"/>
      <point x="363" y="68"/>
      <point x="440" y="-12"/>
    </contour>
  </outline>
</glyph>
<glyph name="uni1511" format="2">
  <advance width="870"/>
  <unicode hex="1511"/>
  <note>
uni1511
</note>
  <outline>
    <contour>
      <point x="283" y="-12" type="curve" smooth="yes"/>
      <point x="430" y="-12"/>
      <point x="507" y="68"/>
      <point x="507" y="231" type="curve" smooth="yes"/>
      <point x="507" y="482" type="line" smooth="yes"/>
      <point x="507" y="573"/>
      <point x="530" y="607"/>
      <point x="583" y="607" type="curve" smooth="yes"/>
      <point x="642" y="607"/>
      <point x="667" y="569"/>
      <point x="667" y="483" type="curve" smooth="yes"/>
      <point x="667" y="422" type="line"/>
      <point x="811" y="422" type="line"/>
      <point x="811" y="470" type="line" smooth="yes"/>
      <point x="811" y="646"/>
      <point x="738" y="726"/>
      <point x="587" y="726" type="curve" smooth="yes"/>
      <point x="440" y="726"/>
      <point x="363" y="645"/>
      <point x="363" y="483" type="curve" smooth="yes"/>
      <point x="363" y="232" type="line" smooth="yes"/>
      <point x="363" y="142"/>
      <point x="341" y="107"/>
      <point x="286" y="107" type="curve" smooth="yes"/>
      <point x="228" y="107"/>
      <point x="203" y="143"/>
      <point x="203" y="231" type="curve" smooth="yes"/>
      <point x="203" y="292" type="line"/>
      <point x="59" y="292" type="line"/>
      <point x="59" y="244" type="line" smooth="yes"/>
      <point x="59" y="68"/>
      <point x="133" y="-12"/>
    </contour>
  </outline>
</glyph>
<glyph name="uni1513" format="2">
  <advance width="1022"/>
  <unicode hex="1513"/>
  <note>
uni1513
</note>
  <outline>
    <contour>
      <point x="199" y="-17" type="curve"/>
      <point x="288" y="80" type="line"/>
      <point x="237" y="119"/>
      <point x="204" y="164"/>
      <point x="204" y="223" type="curve" smooth="yes"/>
      <point x="204" y="275"/>
      <point x="230" y="310"/>
      <point x="280" y="310" type="curve" smooth="yes"/>
      <point x="353" y="310"/>
      <point x="409" y="233"/>
      <point x="474" y="154" type="curve" smooth="yes"/>
      <point x="563" y="47"/>
      <point x="638" y="-12"/>
      <point x="746" y="-12" type="curve" smooth="yes"/>
      <point x="880" y="-12"/>
      <point x="963" y="76"/>
      <point x="963" y="194" type="curve" smooth="yes"/>
      <point x="963" y="297"/>
      <point x="901" y="391"/>
      <point x="825" y="440" type="curve"/>
      <point x="734" y="343" type="line"/>
      <point x="781" y="311"/>
      <point x="818" y="261"/>
      <point x="818" y="200" type="curve" smooth="yes"/>
      <point x="818" y="148"/>
      <point x="792" y="113"/>
      <point x="743" y="113" type="curve" smooth="yes"/>
      <point x="679" y="113"/>
      <point x="629" y="173"/>
      <point x="561" y="253" type="curve" smooth="yes"/>
      <point x="467" y="366"/>
      <point x="394" y="435"/>
      <point x="277" y="435" type="curve" smooth="yes"/>
      <point x="144" y="435"/>
      <point x="59" y="347"/>
      <point x="59" y="228" type="curve" smooth="yes"/>
      <point x="59" y="128"/>
      <point x="118" y="37"/>
    </contour>
  </outline>
</glyph>
<glyph name="uni1515" format="2">
  <advance width="1022"/>
  <unicode hex="1515"/>
  <note>
uni1515
</note>
  <outline>
    <contour>
      <point x="826" y="-17" type="line"/>
      <point x="906" y="37"/>
      <point x="963" y="128"/>
      <point x="963" y="228" type="curve" smooth="yes"/>
      <point x="963" y="347"/>
      <point x="881" y="435"/>
      <point x="746" y="435" type="curve" smooth="yes"/>
      <point x="645" y="435"/>
      <point x="571" y="386"/>
      <point x="474" y="268" type="curve" smooth="yes"/>
      <point x="411" y="191"/>
      <point x="353" y="113"/>
      <point x="280" y="113" type="curve" smooth="yes"/>
      <point x="231" y="113"/>
      <point x="204" y="148"/>
      <point x="204" y="200" type="curve" smooth="yes"/>
      <point x="204" y="259"/>
      <point x="240" y="309"/>
      <point x="289" y="343" type="curve"/>
      <point x="199" y="440" type="line"/>
      <point x="123" y="390"/>
      <point x="59" y="296"/>
      <point x="59" y="194" type="curve" smooth="yes"/>
      <point x="59" y="76"/>
      <point x="145" y="-12"/>
      <point x="277" y="-12" type="curve" smooth="yes"/>
      <point x="403" y="-12"/>
      <point x="477" y="69"/>
      <point x="561" y="168" type="curve" smooth="yes"/>
      <point x="626" y="245"/>
      <point x="677" y="310"/>
      <point x="744" y="310" type="curve" smooth="yes"/>
      <point x="791" y="310"/>
      <point x="818" y="276"/>
      <point x="818" y="223" type="curve" smooth="yes"/>
      <point x="818" y="163"/>
      <point x="783" y="116"/>
      <point x="734" y="80" type="curve"/>
    </contour>
  </outline>
</glyph>
<glyph name="uni1525" format="2">
  <advance width="667"/>
  <unicode hex="1525"/>
  <note>
uni1525
</note>
  <outline>
    <contour>
      <point x="525" y="368" type="line"/>
      <point x="583" y="413"/>
      <point x="628" y="480"/>
      <point x="628" y="568" type="curve" smooth="yes"/>
      <point x="628" y="661"/>
      <point x="578" y="723"/>
      <point x="488" y="723" type="curve" smooth="yes"/>
      <point x="421" y="723"/>
      <point x="381" y="688"/>
      <point x="304" y="585" type="curve" smooth="yes"/>
      <point x="250" y="513"/>
      <point x="216" y="463"/>
      <point x="178" y="463" type="curve" smooth="yes"/>
      <point x="151" y="463"/>
      <point x="138" y="486"/>
      <point x="138" y="527" type="curve" smooth="yes"/>
      <point x="138" y="580"/>
      <point x="162" y="621"/>
      <point x="199" y="658" type="curve"/>
      <point x="141" y="728" type="line"/>
      <point x="83" y="681"/>
      <point x="39" y="611"/>
      <point x="39" y="527" type="curve" smooth="yes"/>
      <point x="39" y="434"/>
      <point x="93" y="373"/>
      <point x="176" y="373" type="curve" smooth="yes"/>
      <point x="263" y="373"/>
      <point x="311" y="442"/>
      <point x="362" y="511" type="curve" smooth="yes"/>
      <point x="428" y="600"/>
      <point x="457" y="633"/>
      <point x="487" y="633" type="curve" smooth="yes"/>
      <point x="515" y="633"/>
      <point x="528" y="608"/>
      <point x="528" y="567" type="curve" smooth="yes"/>
      <point x="528" y="513"/>
      <point x="506" y="471"/>
      <point x="470" y="441" type="curve"/>
    </contour>
  </outline>
</glyph>
<glyph name="uni1526" format="2">
  <advance width="607"/>
  <unicode hex="1526"/>
  <note>
uni1526
</note>
  <outline>
    <contour>
      <point x="402" y="0" type="line"/>
      <point x="548" y="0" type="line"/>
      <point x="548" y="359" type="line"/>
      <point x="263" y="359" type="line"/>
      <point x="484" y="650" type="line"/>
      <point x="376" y="726" type="line"/>
      <point x="39" y="276" type="line"/>
      <point x="39" y="238" type="line"/>
      <point x="402" y="238" type="line"/>
    </contour>
  </outline>
</glyph>
<glyph name="uni1528" format="2">
  <advance width="607"/>
  <unicode hex="1528"/>
  <note>
uni1528
</note>
  <outline>
    <contour>
      <point x="59" y="0" type="line"/>
      <point x="205" y="0" type="line"/>
      <point x="205" y="238" type="line"/>
      <point x="568" y="238" type="line"/>
      <point x="568" y="276" type="line"/>
      <point x="232" y="726" type="line"/>
      <point x="123" y="650" type="line"/>
      <point x="344" y="359" type="line"/>
      <point x="59" y="359" type="line"/>
    </contour>
  </outline>
</glyph>
<glyph name="uni152A" format="2">
  <advance width="607"/>
  <unicode hex="152A"/>
  <note>
uni152A
</note>
  <outline>
    <contour>
      <point x="376" y="-12" type="line"/>
      <point x="484" y="64" type="line"/>
      <point x="263" y="354" type="line"/>
      <point x="548" y="354" type="line"/>
      <point x="548" y="714" type="line"/>
      <point x="402" y="714" type="line"/>
      <point x="402" y="476" type="line"/>
      <point x="39" y="476" type="line"/>
      <point x="39" y="438" type="line"/>
    </contour>
  </outline>
</glyph>
<glyph name="uni152D" format="2">
  <advance width="607"/>
  <unicode hex="152D"/>
  <note>
uni152D
</note>
  <outline>
    <contour>
      <point x="232" y="-12" type="line"/>
      <point x="568" y="438" type="line"/>
      <point x="568" y="476" type="line"/>
      <point x="205" y="476" type="line"/>
      <point x="205" y="714" type="line"/>
      <point x="59" y="714" type="line"/>
      <point x="59" y="354" type="line"/>
      <point x="344" y="354" type="line"/>
      <point x="123" y="64" type="line"/>
    </contour>
  </outline>
</glyph>
<glyph name="uni153E" format="2">
  <advance width="384"/>
  <unicode hex="153E"/>
  <note>
uni153E
</note>
  <outline>
    <contour>
      <point x="153" y="304" type="line"/>
      <point x="345" y="559" type="line"/>
      <point x="345" y="587" type="line"/>
      <point x="148" y="587" type="line"/>
      <point x="148" y="714" type="line"/>
      <point x="49" y="714" type="line"/>
      <point x="49" y="497" type="line"/>
      <point x="185" y="497" type="line"/>
      <point x="78" y="356" type="line"/>
    </contour>
  </outline>
</glyph>
<glyph name="uni153F" format="2">
  <advance width="574"/>
  <unicode hex="153F"/>
  <note>
uni153F
</note>
  <outline>
    <contour>
      <point x="39" y="332" type="line"/>
      <point x="126" y="332" type="line"/>
      <point x="168" y="556" type="line"/>
      <point x="264" y="331" type="line"/>
      <point x="312" y="331" type="line"/>
      <point x="406" y="557" type="line"/>
      <point x="449" y="332" type="line"/>
      <point x="535" y="332" type="line"/>
      <point x="535" y="359" type="line"/>
      <point x="463" y="714" type="line"/>
      <point x="386" y="714" type="line"/>
      <point x="290" y="477" type="line"/>
      <point x="188" y="714" type="line"/>
      <point x="111" y="714" type="line"/>
      <point x="39" y="358" type="line"/>
    </contour>
  </outline>
</glyph>
<glyph name="uni1540" format="2">
  <advance width="399"/>
  <unicode hex="1540"/>
  <note>
uni1540
</note>
  <outline>
    <contour>
      <point x="150" y="203" type="line"/>
      <point x="250" y="203" type="line"/>
      <point x="250" y="322" type="line"/>
      <point x="360" y="322" type="line"/>
      <point x="360" y="412" type="line"/>
      <point x="250" y="412" type="line"/>
      <point x="250" y="532" type="line"/>
      <point x="150" y="532" type="line"/>
      <point x="150" y="412" type="line"/>
      <point x="39" y="412" type="line"/>
      <point x="39" y="322" type="line"/>
      <point x="150" y="322" type="line"/>
    </contour>
  </outline>
</glyph>
<glyph name="uni1541" format="2">
  <advance width="431"/>
  <unicode hex="1541"/>
  <note>
uni1541
</note>
  <outline>
    <contour>
      <point x="282" y="213" type="line"/>
      <point x="392" y="213" type="line"/>
      <point x="149" y="546" type="line"/>
      <point x="39" y="546" type="line"/>
    </contour>
    <contour>
      <point x="39" y="213" type="line"/>
      <point x="149" y="213" type="line"/>
      <point x="392" y="546" type="line"/>
      <point x="282" y="546" type="line"/>
    </contour>
  </outline>
</glyph>
<glyph name="uni1542" format="2">
  <advance width="955"/>
  <unicode hex="1542"/>
  <note>
uni1542
</note>
  <outline>
    <contour>
      <point x="366" y="-12" type="curve" smooth="yes"/>
      <point x="558" y="-12"/>
      <point x="671" y="99"/>
      <point x="671" y="283" type="curve" smooth="yes"/>
      <point x="671" y="389" type="line"/>
      <point x="906" y="389" type="line"/>
      <point x="906" y="510" type="line"/>
      <point x="526" y="510" type="line"/>
      <point x="526" y="273" type="line" smooth="yes"/>
      <point x="526" y="171"/>
      <point x="468" y="113"/>
      <point x="366" y="113" type="curve" smooth="yes"/>
      <point x="264" y="113"/>
      <point x="205" y="171"/>
      <point x="205" y="273" type="curve" smooth="yes"/>
      <point x="205" y="510" type="line"/>
      <point x="59" y="510" type="line"/>
      <point x="59" y="283" type="line" smooth="yes"/>
      <point x="59" y="98"/>
      <point x="175" y="-12"/>
    </contour>
  </outline>
</glyph>
<glyph name="uni1543" format="2">
  <advance width="955"/>
  <unicode hex="1543"/>
  <note>
uni1543
</note>
  <outline>
    <contour>
      <point x="589" y="-12" type="curve" smooth="yes"/>
      <point x="780" y="-12"/>
      <point x="896" y="98"/>
      <point x="896" y="283" type="curve" smooth="yes"/>
      <point x="896" y="510" type="line"/>
      <point x="750" y="510" type="line"/>
      <point x="750" y="273" type="line" smooth="yes"/>
      <point x="750" y="171"/>
      <point x="691" y="113"/>
      <point x="589" y="113" type="curve" smooth="yes"/>
      <point x="487" y="113"/>
      <point x="429" y="171"/>
      <point x="429" y="273" type="curve" smooth="yes"/>
      <point x="429" y="510" type="line"/>
      <point x="49" y="510" type="line"/>
      <point x="49" y="389" type="line"/>
      <point x="283" y="389" type="line"/>
      <point x="283" y="283" type="line" smooth="yes"/>
      <point x="283" y="99"/>
      <point x="397" y="-12"/>
    </contour>
  </outline>
</glyph>
<glyph name="uni1544" format="2">
  <advance width="955"/>
  <unicode hex="1544"/>
  <note>
uni1544
</note>
  <outline>
    <contour>
      <point x="49" y="0" type="line"/>
      <point x="429" y="0" type="line"/>
      <point x="429" y="237" type="line" smooth="yes"/>
      <point x="429" y="340"/>
      <point x="487" y="397"/>
      <point x="589" y="397" type="curve" smooth="yes"/>
      <point x="691" y="397"/>
      <point x="750" y="340"/>
      <point x="750" y="237" type="curve" smooth="yes"/>
      <point x="750" y="0" type="line"/>
      <point x="896" y="0" type="line"/>
      <point x="896" y="227" type="line" smooth="yes"/>
      <point x="896" y="412"/>
      <point x="779" y="522"/>
      <point x="589" y="522" type="curve" smooth="yes"/>
      <point x="397" y="522"/>
      <point x="283" y="411"/>
      <point x="283" y="227" type="curve" smooth="yes"/>
      <point x="283" y="121" type="line"/>
      <point x="49" y="121" type="line"/>
    </contour>
  </outline>
</glyph>
<glyph name="uni1546" format="2">
  <advance width="955"/>
  <unicode hex="1546"/>
  <note>
uni1546
</note>
  <outline>
    <contour>
      <point x="59" y="0" type="line"/>
      <point x="205" y="0" type="line"/>
      <point x="205" y="237" type="line" smooth="yes"/>
      <point x="205" y="340"/>
      <point x="264" y="397"/>
      <point x="366" y="397" type="curve" smooth="yes"/>
      <point x="468" y="397"/>
      <point x="526" y="340"/>
      <point x="526" y="237" type="curve" smooth="yes"/>
      <point x="526" y="0" type="line"/>
      <point x="906" y="0" type="line"/>
      <point x="906" y="121" type="line"/>
      <point x="671" y="121" type="line"/>
      <point x="671" y="227" type="line" smooth="yes"/>
      <point x="671" y="411"/>
      <point x="558" y="522"/>
      <point x="366" y="522" type="curve" smooth="yes"/>
      <point x="175" y="522"/>
      <point x="59" y="412"/>
      <point x="59" y="227" type="curve" smooth="yes"/>
    </contour>
  </outline>
</glyph>
<glyph name="uni1548" format="2">
  <advance width="620"/>
  <unicode hex="1548"/>
  <note>
uni1548
</note>
  <outline>
    <contour>
      <point x="69" y="1" type="line"/>
      <point x="215" y="1" type="line"/>
      <point x="215" y="220" type="line"/>
      <point x="310" y="220" type="line" smooth="yes"/>
      <point x="475" y="220"/>
      <point x="571" y="310"/>
      <point x="571" y="466" type="curve" smooth="yes"/>
      <point x="571" y="626"/>
      <point x="475" y="714"/>
      <point x="310" y="714" type="curve" smooth="yes"/>
      <point x="69" y="714" type="line"/>
      <point x="69" y="593" type="line"/>
      <point x="288" y="593" type="line" smooth="yes"/>
      <point x="380" y="593"/>
      <point x="428" y="551"/>
      <point x="428" y="466" type="curve" smooth="yes"/>
      <point x="428" y="384"/>
      <point x="379" y="342"/>
      <point x="288" y="342" type="curve" smooth="yes"/>
      <point x="69" y="342" type="line"/>
    </contour>
  </outline>
</glyph>
<glyph name="uni154A" format="2">
  <advance width="620"/>
  <unicode hex="154A"/>
  <note>
uni154A
</note>
  <outline>
    <contour>
      <point x="69" y="0" type="line"/>
      <point x="310" y="0" type="line" smooth="yes"/>
      <point x="475" y="0"/>
      <point x="571" y="88"/>
      <point x="571" y="248" type="curve" smooth="yes"/>
      <point x="571" y="403"/>
      <point x="475" y="494"/>
      <point x="310" y="494" type="curve" smooth="yes"/>
      <point x="215" y="494" type="line"/>
      <point x="215" y="713" type="line"/>
      <point x="69" y="713" type="line"/>
      <point x="69" y="372" type="line"/>
      <point x="288" y="372" type="line" smooth="yes"/>
      <point x="379" y="372"/>
      <point x="428" y="329"/>
      <point x="428" y="248" type="curve" smooth="yes"/>
      <point x="428" y="163"/>
      <point x="380" y="121"/>
      <point x="288" y="121" type="curve" smooth="yes"/>
      <point x="69" y="121" type="line"/>
    </contour>
  </outline>
</glyph>
<glyph name="uni154B" format="2">
  <advance width="620"/>
  <unicode hex="154B"/>
  <note>
uni154B
</note>
  <outline>
    <contour>
      <point x="406" y="0" type="line"/>
      <point x="551" y="0" type="line"/>
      <point x="551" y="341" type="line"/>
      <point x="332" y="341" type="line" smooth="yes"/>
      <point x="241" y="341"/>
      <point x="192" y="384"/>
      <point x="192" y="466" type="curve" smooth="yes"/>
      <point x="192" y="550"/>
      <point x="240" y="592"/>
      <point x="332" y="592" type="curve" smooth="yes"/>
      <point x="551" y="592" type="line"/>
      <point x="551" y="713" type="line"/>
      <point x="310" y="713" type="line" smooth="yes"/>
      <point x="145" y="713"/>
      <point x="49" y="625"/>
      <point x="49" y="465" type="curve" smooth="yes"/>
      <point x="49" y="310"/>
      <point x="145" y="220"/>
      <point x="310" y="220" type="curve" smooth="yes"/>
      <point x="406" y="220" type="line"/>
    </contour>
  </outline>
</glyph>
<glyph name="uni154D" format="2">
  <advance width="620"/>
  <unicode hex="154D"/>
  <note>
uni154D
</note>
  <outline>
    <contour>
      <point x="310" y="0" type="curve" smooth="yes"/>
      <point x="551" y="0" type="line"/>
      <point x="551" y="121" type="line"/>
      <point x="332" y="121" type="line" smooth="yes"/>
      <point x="240" y="121"/>
      <point x="192" y="163"/>
      <point x="192" y="248" type="curve" smooth="yes"/>
      <point x="192" y="329"/>
      <point x="241" y="372"/>
      <point x="332" y="372" type="curve" smooth="yes"/>
      <point x="551" y="372" type="line"/>
      <point x="551" y="713" type="line"/>
      <point x="406" y="713" type="line"/>
      <point x="406" y="494" type="line"/>
      <point x="310" y="494" type="line" smooth="yes"/>
      <point x="145" y="494"/>
      <point x="49" y="404"/>
      <point x="49" y="248" type="curve" smooth="yes"/>
      <point x="49" y="88"/>
      <point x="145" y="0"/>
    </contour>
  </outline>
</glyph>
<glyph name="uni1550" format="2">
  <advance width="379"/>
  <unicode hex="1550"/>
  <note>
uni1550
</note>
  <outline>
    <contour>
      <point x="230" y="332" type="line"/>
      <point x="330" y="332" type="line"/>
      <point x="330" y="521" type="line"/>
      <point x="219" y="521" type="line" smooth="yes"/>
      <point x="152" y="521"/>
      <point x="138" y="540"/>
      <point x="138" y="573" type="curve" smooth="yes"/>
      <point x="138" y="605"/>
      <point x="155" y="624"/>
      <point x="219" y="624" type="curve" smooth="yes"/>
      <point x="330" y="624" type="line"/>
      <point x="330" y="714" type="line"/>
      <point x="213" y="714" type="line" smooth="yes"/>
      <point x="106" y="714"/>
      <point x="39" y="661"/>
      <point x="39" y="572" type="curve" smooth="yes"/>
      <point x="39" y="481"/>
      <point x="105" y="431"/>
      <point x="213" y="431" type="curve" smooth="yes"/>
      <point x="230" y="431" type="line"/>
    </contour>
  </outline>
</glyph>
<glyph name="uni1551" format="2">
  <advance width="413"/>
  <unicode hex="1551"/>
  <note>
uni1551
</note>
  <outline>
    <contour>
      <point x="40" y="305" type="line"/>
      <point x="61" y="305" type="line"/>
      <point x="344" y="402" type="line"/>
      <point x="344" y="457" type="line"/>
      <point x="183" y="517" type="line"/>
      <point x="344" y="575" type="line"/>
      <point x="344" y="630" type="line"/>
      <point x="61" y="725" type="line"/>
      <point x="40" y="725" type="line"/>
      <point x="40" y="648" type="line"/>
      <point x="209" y="597" type="line"/>
      <point x="39" y="541" type="line"/>
      <point x="39" y="492" type="line"/>
      <point x="209" y="434" type="line"/>
      <point x="40" y="382" type="line"/>
    </contour>
  </outline>
</glyph>
<glyph name="uni1553" format="2">
  <advance width="819"/>
  <unicode hex="1553"/>
  <note>
uni1553
</note>
  <outline>
    <contour>
      <point x="371" y="-12" type="line"/>
      <point x="405" y="-12" type="line"/>
      <point x="780" y="683" type="line"/>
      <point x="780" y="714" type="line"/>
      <point x="640" y="714" type="line"/>
      <point x="378" y="219" type="line"/>
      <point x="231" y="448" type="line" smooth="yes"/>
      <point x="205" y="489"/>
      <point x="191" y="524"/>
      <point x="191" y="552" type="curve" smooth="yes"/>
      <point x="191" y="587"/>
      <point x="212" y="618"/>
      <point x="254" y="618" type="curve" smooth="yes"/>
      <point x="293" y="618"/>
      <point x="317" y="591"/>
      <point x="317" y="550" type="curve" smooth="yes"/>
      <point x="317" y="499"/>
      <point x="280" y="460"/>
      <point x="209" y="460" type="curve" smooth="yes"/>
      <point x="164" y="460" type="line"/>
      <point x="164" y="359" type="line"/>
      <point x="196" y="359" type="line" smooth="yes"/>
      <point x="354" y="359"/>
      <point x="445" y="434"/>
      <point x="445" y="549" type="curve" smooth="yes"/>
      <point x="445" y="653"/>
      <point x="371" y="726"/>
      <point x="253" y="726" type="curve" smooth="yes"/>
      <point x="133" y="726"/>
      <point x="59" y="652"/>
      <point x="59" y="553" type="curve" smooth="yes"/>
      <point x="59" y="484"/>
      <point x="96" y="419"/>
      <point x="145" y="342" type="curve" smooth="yes"/>
    </contour>
  </outline>
</glyph>
<glyph name="uni1555" format="2">
  <advance width="819"/>
  <unicode hex="1555"/>
  <note>
uni1555
</note>
  <outline>
    <contour>
      <point x="253" y="-12" type="curve" smooth="yes"/>
      <point x="371" y="-12"/>
      <point x="445" y="61"/>
      <point x="445" y="165" type="curve" smooth="yes"/>
      <point x="445" y="280"/>
      <point x="354" y="355"/>
      <point x="196" y="355" type="curve" smooth="yes"/>
      <point x="164" y="355" type="line"/>
      <point x="164" y="254" type="line"/>
      <point x="209" y="254" type="line" smooth="yes"/>
      <point x="280" y="254"/>
      <point x="317" y="215"/>
      <point x="317" y="164" type="curve" smooth="yes"/>
      <point x="317" y="123"/>
      <point x="293" y="96"/>
      <point x="254" y="96" type="curve" smooth="yes"/>
      <point x="212" y="96"/>
      <point x="191" y="127"/>
      <point x="191" y="162" type="curve" smooth="yes"/>
      <point x="191" y="190"/>
      <point x="205" y="225"/>
      <point x="231" y="266" type="curve" smooth="yes"/>
      <point x="378" y="495" type="line"/>
      <point x="640" y="0" type="line"/>
      <point x="780" y="0" type="line"/>
      <point x="780" y="31" type="line"/>
      <point x="405" y="726" type="line"/>
      <point x="371" y="726" type="line"/>
      <point x="145" y="372" type="line" smooth="yes"/>
      <point x="96" y="295"/>
      <point x="59" y="230"/>
      <point x="59" y="161" type="curve" smooth="yes"/>
      <point x="59" y="62"/>
      <point x="133" y="-12"/>
    </contour>
  </outline>
</glyph>
<glyph name="uni1557" format="2">
  <advance width="815"/>
  <unicode hex="1557"/>
  <note>
uni1557
</note>
  <outline>
    <contour>
      <point x="83" y="-11" type="line"/>
      <point x="114" y="-11" type="line"/>
      <point x="776" y="383" type="line"/>
      <point x="776" y="417" type="line"/>
      <point x="459" y="637" type="line" smooth="yes"/>
      <point x="371" y="698"/>
      <point x="320" y="725"/>
      <point x="251" y="725" type="curve" smooth="yes"/>
      <point x="131" y="725"/>
      <point x="49" y="652"/>
      <point x="49" y="534" type="curve" smooth="yes"/>
      <point x="49" y="417"/>
      <point x="129" y="342"/>
      <point x="245" y="342" type="curve" smooth="yes"/>
      <point x="373" y="342"/>
      <point x="451" y="441"/>
      <point x="451" y="588" type="curve" smooth="yes"/>
      <point x="451" y="625" type="line"/>
      <point x="332" y="625" type="line"/>
      <point x="332" y="585" type="line" smooth="yes"/>
      <point x="332" y="500"/>
      <point x="305" y="456"/>
      <point x="251" y="456" type="curve" smooth="yes"/>
      <point x="207" y="456"/>
      <point x="180" y="488"/>
      <point x="180" y="531" type="curve" smooth="yes"/>
      <point x="180" y="577"/>
      <point x="205" y="608"/>
      <point x="251" y="608" type="curve" smooth="yes"/>
      <point x="284" y="608"/>
      <point x="316" y="590"/>
      <point x="352" y="566" type="curve" smooth="yes"/>
      <point x="576" y="416" type="line"/>
      <point x="83" y="122" type="line"/>
    </contour>
  </outline>
</glyph>
<glyph name="uni1559" format="2">
  <advance width="815"/>
  <unicode hex="1559"/>
  <note>
uni1559
</note>
  <outline>
    <contour>
      <point x="702" y="-11" type="line"/>
      <point x="732" y="-11" type="line"/>
      <point x="732" y="122" type="line"/>
      <point x="240" y="416" type="line"/>
      <point x="464" y="566" type="line" smooth="yes"/>
      <point x="500" y="590"/>
      <point x="532" y="608"/>
      <point x="565" y="608" type="curve" smooth="yes"/>
      <point x="611" y="608"/>
      <point x="636" y="577"/>
      <point x="636" y="531" type="curve" smooth="yes"/>
      <point x="636" y="488"/>
      <point x="609" y="456"/>
      <point x="564" y="456" type="curve" smooth="yes"/>
      <point x="511" y="456"/>
      <point x="483" y="500"/>
      <point x="483" y="585" type="curve" smooth="yes"/>
      <point x="483" y="627" type="line"/>
      <point x="365" y="627" type="line"/>
      <point x="365" y="588" type="line" smooth="yes"/>
      <point x="365" y="441"/>
      <point x="442" y="342"/>
      <point x="571" y="342" type="curve" smooth="yes"/>
      <point x="687" y="342"/>
      <point x="766" y="417"/>
      <point x="766" y="534" type="curve" smooth="yes"/>
      <point x="766" y="652"/>
      <point x="684" y="725"/>
      <point x="564" y="725" type="curve" smooth="yes"/>
      <point x="495" y="725"/>
      <point x="445" y="698"/>
      <point x="357" y="637" type="curve" smooth="yes"/>
      <point x="39" y="417" type="line"/>
      <point x="39" y="383" type="line"/>
    </contour>
  </outline>
</glyph>
<glyph name="uni155D" format="2">
  <advance width="522"/>
  <unicode hex="155D"/>
  <note>
uni155D
</note>
  <outline>
    <contour>
      <point x="430" y="298" type="line"/>
      <point x="453" y="298" type="line"/>
      <point x="453" y="391" type="line"/>
      <point x="174" y="536" type="line"/>
      <point x="309" y="626" type="line" smooth="yes"/>
      <point x="326" y="638"/>
      <point x="342" y="647"/>
      <point x="359" y="647" type="curve" smooth="yes"/>
      <point x="382" y="647"/>
      <point x="395" y="631"/>
      <point x="395" y="609" type="curve" smooth="yes"/>
      <point x="395" y="589"/>
      <point x="381" y="573"/>
      <point x="359" y="573" type="curve" smooth="yes"/>
      <point x="333" y="573"/>
      <point x="319" y="595"/>
      <point x="319" y="643" type="curve" smooth="yes"/>
      <point x="319" y="667" type="line"/>
      <point x="239" y="654" type="line"/>
      <point x="239" y="624" type="line" smooth="yes"/>
      <point x="239" y="560"/>
      <point x="284" y="495"/>
      <point x="364" y="495" type="curve" smooth="yes"/>
      <point x="430" y="495"/>
      <point x="483" y="544"/>
      <point x="483" y="611" type="curve" smooth="yes"/>
      <point x="483" y="680"/>
      <point x="431" y="726"/>
      <point x="359" y="726" type="curve" smooth="yes"/>
      <point x="317" y="726"/>
      <point x="284" y="708"/>
      <point x="236" y="675" type="curve" smooth="yes"/>
      <point x="39" y="542" type="line"/>
      <point x="39" y="513" type="line"/>
    </contour>
  </outline>
</glyph>
<glyph name="uni155E" format="2">
  <advance width="793"/>
  <unicode hex="155E"/>
  <note>
uni155E
</note>
  <outline>
    <contour>
      <point x="396" y="-12" type="curve" smooth="yes"/>
      <point x="653" y="-12"/>
      <point x="724" y="128"/>
      <point x="724" y="404" type="curve" smooth="yes"/>
      <point x="724" y="714" type="line"/>
      <point x="578" y="714" type="line"/>
      <point x="578" y="369" type="line" smooth="yes"/>
      <point x="578" y="204"/>
      <point x="550" y="113"/>
      <point x="396" y="113" type="curve" smooth="yes"/>
      <point x="252" y="113"/>
      <point x="211" y="193"/>
      <point x="211" y="355" type="curve" smooth="yes"/>
      <point x="211" y="476" type="line" smooth="yes"/>
      <point x="211" y="564"/>
      <point x="226" y="615"/>
      <point x="284" y="615" type="curve" smooth="yes"/>
      <point x="324" y="615"/>
      <point x="352" y="592"/>
      <point x="352" y="533" type="curve" smooth="yes"/>
      <point x="352" y="468"/>
      <point x="317" y="440"/>
      <point x="239" y="440" type="curve" smooth="yes"/>
      <point x="167" y="440" type="line"/>
      <point x="167" y="330" type="line"/>
      <point x="251" y="330" type="line" smooth="yes"/>
      <point x="385" y="330"/>
      <point x="476" y="394"/>
      <point x="476" y="531" type="curve" smooth="yes"/>
      <point x="476" y="653"/>
      <point x="403" y="726"/>
      <point x="281" y="726" type="curve" smooth="yes"/>
      <point x="152" y="726"/>
      <point x="68" y="645"/>
      <point x="68" y="471" type="curve" smooth="yes"/>
      <point x="68" y="404" type="line" smooth="yes"/>
      <point x="68" y="131"/>
      <point x="137" y="-12"/>
    </contour>
  </outline>
</glyph>
<glyph name="uni155F" format="2">
  <advance width="793"/>
  <unicode hex="155F"/>
  <note>
uni155F
</note>
  <outline>
    <contour>
      <point x="395" y="-12" type="curve" smooth="yes"/>
      <point x="654" y="-12"/>
      <point x="724" y="131"/>
      <point x="724" y="404" type="curve" smooth="yes"/>
      <point x="724" y="471" type="line" smooth="yes"/>
      <point x="724" y="645"/>
      <point x="639" y="726"/>
      <point x="511" y="726" type="curve" smooth="yes"/>
      <point x="388" y="726"/>
      <point x="316" y="653"/>
      <point x="316" y="531" type="curve" smooth="yes"/>
      <point x="316" y="394"/>
      <point x="407" y="330"/>
      <point x="540" y="330" type="curve" smooth="yes"/>
      <point x="625" y="330" type="line"/>
      <point x="625" y="440" type="line"/>
      <point x="553" y="440" type="line" smooth="yes"/>
      <point x="474" y="440"/>
      <point x="439" y="468"/>
      <point x="439" y="533" type="curve" smooth="yes"/>
      <point x="439" y="592"/>
      <point x="468" y="615"/>
      <point x="507" y="615" type="curve" smooth="yes"/>
      <point x="566" y="615"/>
      <point x="580" y="564"/>
      <point x="580" y="476" type="curve" smooth="yes"/>
      <point x="580" y="355" type="line" smooth="yes"/>
      <point x="580" y="193"/>
      <point x="540" y="113"/>
      <point x="395" y="113" type="curve" smooth="yes"/>
      <point x="242" y="113"/>
      <point x="214" y="204"/>
      <point x="214" y="369" type="curve" smooth="yes"/>
      <point x="214" y="714" type="line"/>
      <point x="68" y="714" type="line"/>
      <point x="68" y="404" type="line" smooth="yes"/>
      <point x="68" y="128"/>
      <point x="138" y="-12"/>
    </contour>
  </outline>
</glyph>
<glyph name="uni1560" format="2">
  <advance width="793"/>
  <unicode hex="1560"/>
  <note>
uni1560
</note>
  <outline>
    <contour>
      <point x="281" y="-12" type="curve" smooth="yes"/>
      <point x="403" y="-12"/>
      <point x="476" y="61"/>
      <point x="476" y="183" type="curve" smooth="yes"/>
      <point x="476" y="320"/>
      <point x="385" y="384"/>
      <point x="251" y="384" type="curve" smooth="yes"/>
      <point x="167" y="384" type="line"/>
      <point x="167" y="274" type="line"/>
      <point x="239" y="274" type="line" smooth="yes"/>
      <point x="317" y="274"/>
      <point x="352" y="246"/>
      <point x="352" y="181" type="curve" smooth="yes"/>
      <point x="352" y="122"/>
      <point x="324" y="99"/>
      <point x="284" y="99" type="curve" smooth="yes"/>
      <point x="226" y="99"/>
      <point x="211" y="150"/>
      <point x="211" y="238" type="curve" smooth="yes"/>
      <point x="211" y="359" type="line" smooth="yes"/>
      <point x="211" y="521"/>
      <point x="252" y="601"/>
      <point x="396" y="601" type="curve" smooth="yes"/>
      <point x="550" y="601"/>
      <point x="578" y="510"/>
      <point x="578" y="345" type="curve" smooth="yes"/>
      <point x="578" y="0" type="line"/>
      <point x="724" y="0" type="line"/>
      <point x="724" y="310" type="line" smooth="yes"/>
      <point x="724" y="586"/>
      <point x="653" y="726"/>
      <point x="396" y="726" type="curve" smooth="yes"/>
      <point x="137" y="726"/>
      <point x="68" y="583"/>
      <point x="68" y="310" type="curve" smooth="yes"/>
      <point x="68" y="243" type="line" smooth="yes"/>
      <point x="68" y="69"/>
      <point x="152" y="-12"/>
    </contour>
  </outline>
</glyph>
<glyph name="uni1561" format="2">
  <advance width="793"/>
  <unicode hex="1561"/>
  <note>
uni1561
</note>
  <outline>
    <contour>
      <point x="511" y="-12" type="curve" smooth="yes"/>
      <point x="639" y="-12"/>
      <point x="724" y="69"/>
      <point x="724" y="243" type="curve" smooth="yes"/>
      <point x="724" y="310" type="line" smooth="yes"/>
      <point x="724" y="583"/>
      <point x="654" y="726"/>
      <point x="395" y="726" type="curve" smooth="yes"/>
      <point x="138" y="726"/>
      <point x="68" y="586"/>
      <point x="68" y="310" type="curve" smooth="yes"/>
      <point x="68" y="0" type="line"/>
      <point x="214" y="0" type="line"/>
      <point x="214" y="345" type="line" smooth="yes"/>
      <point x="214" y="510"/>
      <point x="242" y="601"/>
      <point x="395" y="601" type="curve" smooth="yes"/>
      <point x="540" y="601"/>
      <point x="580" y="521"/>
      <point x="580" y="359" type="curve" smooth="yes"/>
      <point x="580" y="238" type="line" smooth="yes"/>
      <point x="580" y="150"/>
      <point x="566" y="99"/>
      <point x="507" y="99" type="curve" smooth="yes"/>
      <point x="468" y="99"/>
      <point x="439" y="122"/>
      <point x="439" y="181" type="curve" smooth="yes"/>
      <point x="439" y="246"/>
      <point x="474" y="274"/>
      <point x="553" y="274" type="curve" smooth="yes"/>
      <point x="625" y="274" type="line"/>
      <point x="625" y="384" type="line"/>
      <point x="540" y="384" type="line" smooth="yes"/>
      <point x="407" y="384"/>
      <point x="316" y="320"/>
      <point x="316" y="183" type="curve" smooth="yes"/>
      <point x="316" y="61"/>
      <point x="388" y="-12"/>
    </contour>
  </outline>
</glyph>
<glyph name="uni1564" format="2">
  <advance width="750"/>
  <unicode hex="1564"/>
  <note>
uni1564
</note>
  <outline>
    <contour>
      <point x="73" y="-1" type="line"/>
      <point x="256" y="-1" type="line" smooth="yes"/>
      <point x="554" y="-1"/>
      <point x="691" y="72"/>
      <point x="691" y="350" type="curve" smooth="yes"/>
      <point x="691" y="603"/>
      <point x="577" y="713"/>
      <point x="323" y="713" type="curve" smooth="yes"/>
      <point x="155" y="713"/>
      <point x="49" y="664"/>
      <point x="49" y="512" type="curve" smooth="yes"/>
      <point x="49" y="384"/>
      <point x="123" y="312"/>
      <point x="249" y="312" type="curve" smooth="yes"/>
      <point x="395" y="312"/>
      <point x="455" y="413"/>
      <point x="455" y="560" type="curve" smooth="yes"/>
      <point x="455" y="609" type="line"/>
      <point x="340" y="609" type="line"/>
      <point x="340" y="573" type="line" smooth="yes"/>
      <point x="340" y="482"/>
      <point x="317" y="429"/>
      <point x="254" y="429" type="curve" smooth="yes"/>
      <point x="199" y="429"/>
      <point x="174" y="466"/>
      <point x="174" y="514" type="curve" smooth="yes"/>
      <point x="174" y="572"/>
      <point x="209" y="594"/>
      <point x="303" y="594" type="curve" smooth="yes"/>
      <point x="323" y="594" type="line" smooth="yes"/>
      <point x="480" y="594"/>
      <point x="544" y="497"/>
      <point x="544" y="349" type="curve" smooth="yes"/>
      <point x="544" y="164"/>
      <point x="453" y="121"/>
      <point x="256" y="121" type="curve" smooth="yes"/>
      <point x="73" y="121" type="line"/>
    </contour>
  </outline>
</glyph>
<glyph name="uni1566" format="2">
  <advance width="750"/>
  <unicode hex="1566"/>
  <note>
uni1566
</note>
  <outline>
    <contour>
      <point x="494" y="-1" type="curve" smooth="yes"/>
      <point x="677" y="-1" type="line"/>
      <point x="677" y="121" type="line"/>
      <point x="494" y="121" type="line" smooth="yes"/>
      <point x="297" y="121"/>
      <point x="206" y="164"/>
      <point x="206" y="349" type="curve" smooth="yes"/>
      <point x="206" y="497"/>
      <point x="270" y="594"/>
      <point x="426" y="594" type="curve" smooth="yes"/>
      <point x="447" y="594" type="line" smooth="yes"/>
      <point x="540" y="594"/>
      <point x="576" y="572"/>
      <point x="576" y="514" type="curve" smooth="yes"/>
      <point x="576" y="466"/>
      <point x="550" y="429"/>
      <point x="496" y="429" type="curve" smooth="yes"/>
      <point x="433" y="429"/>
      <point x="410" y="482"/>
      <point x="410" y="573" type="curve" smooth="yes"/>
      <point x="410" y="609" type="line"/>
      <point x="295" y="609" type="line"/>
      <point x="295" y="560" type="line" smooth="yes"/>
      <point x="295" y="413"/>
      <point x="354" y="312"/>
      <point x="500" y="312" type="curve" smooth="yes"/>
      <point x="626" y="312"/>
      <point x="701" y="384"/>
      <point x="701" y="512" type="curve" smooth="yes"/>
      <point x="701" y="664"/>
      <point x="595" y="713"/>
      <point x="427" y="713" type="curve" smooth="yes"/>
      <point x="172" y="713"/>
      <point x="59" y="603"/>
      <point x="59" y="350" type="curve" smooth="yes"/>
      <point x="59" y="72"/>
      <point x="196" y="-1"/>
    </contour>
  </outline>
</glyph>
<glyph name="uni156A" format="2">
  <advance width="472"/>
  <unicode hex="156A"/>
  <note>
uni156A
</note>
  <outline>
    <contour>
      <point x="305" y="332" type="curve" smooth="yes"/>
      <point x="421" y="332" type="line"/>
      <point x="421" y="423" type="line"/>
      <point x="305" y="423" type="line" smooth="yes"/>
      <point x="191" y="423"/>
      <point x="148" y="443"/>
      <point x="148" y="523" type="curve" smooth="yes"/>
      <point x="148" y="612"/>
      <point x="193" y="639"/>
      <point x="285" y="639" type="curve" smooth="yes"/>
      <point x="292" y="639" type="line" smooth="yes"/>
      <point x="331" y="639"/>
      <point x="343" y="627"/>
      <point x="343" y="605" type="curve" smooth="yes"/>
      <point x="343" y="583"/>
      <point x="332" y="570"/>
      <point x="309" y="570" type="curve" smooth="yes"/>
      <point x="283" y="570"/>
      <point x="269" y="588"/>
      <point x="269" y="621" type="curve" smooth="yes"/>
      <point x="269" y="649" type="line"/>
      <point x="187" y="649" type="line"/>
      <point x="187" y="622" type="line" smooth="yes"/>
      <point x="187" y="545"/>
      <point x="217" y="489"/>
      <point x="313" y="489" type="curve" smooth="yes"/>
      <point x="381" y="489"/>
      <point x="433" y="525"/>
      <point x="433" y="601" type="curve" smooth="yes"/>
      <point x="433" y="688"/>
      <point x="365" y="721"/>
      <point x="274" y="721" type="curve" smooth="yes"/>
      <point x="127" y="721"/>
      <point x="49" y="653"/>
      <point x="49" y="520" type="curve" smooth="yes"/>
      <point x="49" y="382"/>
      <point x="122" y="332"/>
    </contour>
  </outline>
</glyph>
<glyph name="uni156B" format="2">
  <advance width="795"/>
  <unicode hex="156B"/>
  <note>
uni156B
</note>
  <outline>
    <contour>
      <point x="397" y="-12" type="curve" smooth="yes"/>
      <point x="654" y="-12"/>
      <point x="726" y="128"/>
      <point x="726" y="404" type="curve" smooth="yes"/>
      <point x="726" y="714" type="line"/>
      <point x="580" y="714" type="line"/>
      <point x="580" y="369" type="line" smooth="yes"/>
      <point x="580" y="204"/>
      <point x="547" y="113"/>
      <point x="397" y="113" type="curve" smooth="yes"/>
      <point x="248" y="113"/>
      <point x="214" y="202"/>
      <point x="214" y="369" type="curve" smooth="yes"/>
      <point x="214" y="714" type="line"/>
      <point x="68" y="714" type="line"/>
      <point x="68" y="404" type="line" smooth="yes"/>
      <point x="68" y="129"/>
      <point x="140" y="-12"/>
    </contour>
    <contour>
      <point x="332" y="349" type="line"/>
      <point x="460" y="349" type="line"/>
      <point x="460" y="714" type="line"/>
      <point x="332" y="714" type="line"/>
    </contour>
  </outline>
</glyph>
<glyph name="uni156C" format="2">
  <advance width="795"/>
  <unicode hex="156C"/>
  <note>
uni156C
</note>
  <outline>
    <contour>
      <point x="68" y="0" type="line"/>
      <point x="214" y="0" type="line"/>
      <point x="214" y="345" type="line" smooth="yes"/>
      <point x="214" y="512"/>
      <point x="248" y="601"/>
      <point x="397" y="601" type="curve" smooth="yes"/>
      <point x="547" y="601"/>
      <point x="580" y="510"/>
      <point x="580" y="345" type="curve" smooth="yes"/>
      <point x="580" y="0" type="line"/>
      <point x="726" y="0" type="line"/>
      <point x="726" y="310" type="line" smooth="yes"/>
      <point x="726" y="586"/>
      <point x="654" y="726"/>
      <point x="397" y="726" type="curve" smooth="yes"/>
      <point x="140" y="726"/>
      <point x="68" y="585"/>
      <point x="68" y="310" type="curve" smooth="yes"/>
    </contour>
    <contour>
      <point x="332" y="0" type="line"/>
      <point x="460" y="0" type="line"/>
      <point x="460" y="365" type="line"/>
      <point x="332" y="365" type="line"/>
    </contour>
  </outline>
</glyph>
<glyph name="uni156D" format="2">
  <advance width="707"/>
  <unicode hex="156D"/>
  <note>
uni156D
</note>
  <outline>
    <contour>
      <point x="49" y="0" type="line"/>
      <point x="220" y="0" type="line" smooth="yes"/>
      <point x="521" y="0"/>
      <point x="638" y="73"/>
      <point x="638" y="357" type="curve" smooth="yes"/>
      <point x="638" y="642"/>
      <point x="519" y="714"/>
      <point x="220" y="714" type="curve" smooth="yes"/>
      <point x="49" y="714" type="line"/>
      <point x="49" y="593" type="line"/>
      <point x="219" y="593" type="line" smooth="yes"/>
      <point x="420" y="593"/>
      <point x="491" y="555"/>
      <point x="491" y="356" type="curve" smooth="yes"/>
      <point x="491" y="161"/>
      <point x="425" y="121"/>
      <point x="219" y="121" type="curve" smooth="yes"/>
      <point x="49" y="121" type="line"/>
    </contour>
    <contour>
      <point x="49" y="297" type="line"/>
      <point x="381" y="297" type="line"/>
      <point x="381" y="418" type="line"/>
      <point x="49" y="418" type="line"/>
    </contour>
  </outline>
</glyph>
<glyph name="uni156E" format="2">
  <advance width="706"/>
  <unicode hex="156E"/>
  <note>
uni156E
</note>
  <outline>
    <contour>
      <point x="486" y="0" type="curve" smooth="yes"/>
      <point x="657" y="0" type="line"/>
      <point x="657" y="121" type="line"/>
      <point x="487" y="121" type="line" smooth="yes"/>
      <point x="282" y="121"/>
      <point x="215" y="161"/>
      <point x="215" y="356" type="curve" smooth="yes"/>
      <point x="215" y="554"/>
      <point x="286" y="593"/>
      <point x="487" y="593" type="curve" smooth="yes"/>
      <point x="657" y="593" type="line"/>
      <point x="657" y="714" type="line"/>
      <point x="486" y="714" type="line" smooth="yes"/>
      <point x="189" y="714"/>
      <point x="68" y="642"/>
      <point x="68" y="357" type="curve" smooth="yes"/>
      <point x="68" y="72"/>
      <point x="186" y="0"/>
    </contour>
    <contour>
      <point x="325" y="297" type="line"/>
      <point x="657" y="297" type="line"/>
      <point x="657" y="418" type="line"/>
      <point x="325" y="418" type="line"/>
    </contour>
  </outline>
</glyph>
<glyph name="uni156F" format="2">
  <advance width="900"/>
  <unicode hex="156F"/>
  <note>
uni156F
</note>
  <outline>
    <contour>
      <point x="587" y="364" type="line"/>
      <point x="668" y="466" type="line"/>
      <point x="746" y="365" type="line"/>
      <point x="827" y="413" type="line"/>
      <point x="748" y="518" type="line"/>
      <point x="861" y="587" type="line"/>
      <point x="809" y="661" type="line"/>
      <point x="716" y="605" type="line"/>
      <point x="716" y="714" type="line"/>
      <point x="618" y="714" type="line"/>
      <point x="618" y="605" type="line"/>
      <point x="526" y="661" type="line"/>
      <point x="473" y="587" type="line"/>
      <point x="587" y="518" type="line"/>
      <point x="507" y="413" type="line"/>
    </contour>
    <contour>
      <point x="153" y="364" type="line"/>
      <point x="233" y="466" type="line"/>
      <point x="312" y="365" type="line"/>
      <point x="393" y="413" type="line"/>
      <point x="315" y="518" type="line"/>
      <point x="427" y="587" type="line"/>
      <point x="375" y="661" type="line"/>
      <point x="282" y="605" type="line"/>
      <point x="282" y="714" type="line"/>
      <point x="184" y="714" type="line"/>
      <point x="184" y="605" type="line"/>
      <point x="92" y="661" type="line"/>
      <point x="39" y="587" type="line"/>
      <point x="152" y="518" type="line"/>
      <point x="73" y="413" type="line"/>
    </contour>
  </outline>
</glyph>
<glyph name="uni1570" format="2">
  <advance width="795"/>
  <unicode hex="1570"/>
  <note>
uni1570
</note>
  <outline>
    <contour>
      <point x="396" y="-12" type="curve" smooth="yes"/>
      <point x="666" y="-12"/>
      <point x="726" y="155"/>
      <point x="726" y="455" type="curve" smooth="yes"/>
      <point x="726" y="714" type="line"/>
      <point x="580" y="714" type="line"/>
      <point x="580" y="420" type="line" smooth="yes"/>
      <point x="580" y="229"/>
      <point x="556" y="113"/>
      <point x="396" y="113" type="curve" smooth="yes"/>
      <point x="240" y="113"/>
      <point x="214" y="226"/>
      <point x="214" y="420" type="curve" smooth="yes"/>
      <point x="214" y="714" type="line"/>
      <point x="68" y="714" type="line"/>
      <point x="68" y="455" type="line" smooth="yes"/>
      <point x="68" y="157"/>
      <point x="128" y="-12"/>
    </contour>
    <contour>
      <point x="396" y="361" type="curve" smooth="yes"/>
      <point x="494" y="361"/>
      <point x="520" y="425"/>
      <point x="520" y="535" type="curve" smooth="yes"/>
      <point x="520" y="714" type="line"/>
      <point x="438" y="714" type="line"/>
      <point x="438" y="514" type="line" smooth="yes"/>
      <point x="438" y="465"/>
      <point x="430" y="436"/>
      <point x="397" y="436" type="curve" smooth="yes"/>
      <point x="368" y="436"/>
      <point x="356" y="455"/>
      <point x="356" y="514" type="curve" smooth="yes"/>
      <point x="356" y="714" type="line"/>
      <point x="274" y="714" type="line"/>
      <point x="274" y="535" type="line" smooth="yes"/>
      <point x="274" y="428"/>
      <point x="297" y="361"/>
    </contour>
  </outline>
</glyph>
<glyph name="uni1571" format="2">
  <advance width="795"/>
  <unicode hex="1571"/>
  <note>
uni1571
</note>
  <outline>
    <contour>
      <point x="68" y="0" type="line"/>
      <point x="214" y="0" type="line"/>
      <point x="214" y="294" type="line" smooth="yes"/>
      <point x="214" y="487"/>
      <point x="239" y="601"/>
      <point x="396" y="601" type="curve" smooth="yes"/>
      <point x="555" y="601"/>
      <point x="580" y="486"/>
      <point x="580" y="294" type="curve" smooth="yes"/>
      <point x="580" y="0" type="line"/>
      <point x="726" y="0" type="line"/>
      <point x="726" y="259" type="line" smooth="yes"/>
      <point x="726" y="558"/>
      <point x="666" y="726"/>
      <point x="396" y="726" type="curve" smooth="yes"/>
      <point x="128" y="726"/>
      <point x="68" y="559"/>
      <point x="68" y="259" type="curve" smooth="yes"/>
    </contour>
    <contour>
      <point x="274" y="0" type="line"/>
      <point x="356" y="0" type="line"/>
      <point x="356" y="206" type="line" smooth="yes"/>
      <point x="356" y="265"/>
      <point x="368" y="284"/>
      <point x="397" y="284" type="curve" smooth="yes"/>
      <point x="429" y="284"/>
      <point x="438" y="256"/>
      <point x="438" y="206" type="curve" smooth="yes"/>
      <point x="438" y="0" type="line"/>
      <point x="520" y="0" type="line"/>
      <point x="520" y="185" type="line" smooth="yes"/>
      <point x="520" y="294"/>
      <point x="495" y="359"/>
      <point x="396" y="359" type="curve" smooth="yes"/>
      <point x="298" y="359"/>
      <point x="274" y="294"/>
      <point x="274" y="185" type="curve" smooth="yes"/>
    </contour>
  </outline>
</glyph>
<glyph name="uni1572" format="2">
  <advance width="707"/>
  <unicode hex="1572"/>
  <note>
uni1572
</note>
  <outline>
    <contour>
      <point x="49" y="0" type="line"/>
      <point x="220" y="0" type="line" smooth="yes"/>
      <point x="521" y="0"/>
      <point x="638" y="73"/>
      <point x="638" y="357" type="curve" smooth="yes"/>
      <point x="638" y="642"/>
      <point x="519" y="714"/>
      <point x="220" y="714" type="curve" smooth="yes"/>
      <point x="49" y="714" type="line"/>
      <point x="49" y="593" type="line"/>
      <point x="219" y="593" type="line" smooth="yes"/>
      <point x="420" y="593"/>
      <point x="491" y="555"/>
      <point x="491" y="356" type="curve" smooth="yes"/>
      <point x="491" y="161"/>
      <point x="425" y="121"/>
      <point x="219" y="121" type="curve" smooth="yes"/>
      <point x="49" y="121" type="line"/>
    </contour>
    <contour>
      <point x="49" y="190" type="line"/>
      <point x="119" y="190" type="line" smooth="yes"/>
      <point x="280" y="190"/>
      <point x="356" y="219"/>
      <point x="356" y="363" type="curve" smooth="yes"/>
      <point x="356" y="477"/>
      <point x="293" y="525"/>
      <point x="128" y="525" type="curve" smooth="yes"/>
      <point x="49" y="525" type="line"/>
      <point x="49" y="435" type="line"/>
      <point x="119" y="435" type="line" smooth="yes"/>
      <point x="226" y="435"/>
      <point x="250" y="409"/>
      <point x="250" y="363" type="curve" smooth="yes"/>
      <point x="250" y="293"/>
      <point x="213" y="281"/>
      <point x="112" y="281" type="curve" smooth="yes"/>
      <point x="49" y="281" type="line"/>
    </contour>
  </outline>
</glyph>
<glyph name="uni1573" format="2">
  <advance width="706"/>
  <unicode hex="1573"/>
  <note>
uni1573
</note>
  <outline>
    <contour>
      <point x="486" y="0" type="curve" smooth="yes"/>
      <point x="657" y="0" type="line"/>
      <point x="657" y="121" type="line"/>
      <point x="487" y="121" type="line" smooth="yes"/>
      <point x="282" y="121"/>
      <point x="215" y="161"/>
      <point x="215" y="356" type="curve" smooth="yes"/>
      <point x="215" y="554"/>
      <point x="286" y="593"/>
      <point x="487" y="593" type="curve" smooth="yes"/>
      <point x="657" y="593" type="line"/>
      <point x="657" y="714" type="line"/>
      <point x="486" y="714" type="line" smooth="yes"/>
      <point x="189" y="714"/>
      <point x="68" y="642"/>
      <point x="68" y="357" type="curve" smooth="yes"/>
      <point x="68" y="72"/>
      <point x="186" y="0"/>
    </contour>
    <contour>
      <point x="587" y="190" type="curve" smooth="yes"/>
      <point x="657" y="190" type="line"/>
      <point x="657" y="281" type="line"/>
      <point x="595" y="281" type="line" smooth="yes"/>
      <point x="490" y="281"/>
      <point x="456" y="294"/>
      <point x="456" y="363" type="curve" smooth="yes"/>
      <point x="456" y="409"/>
      <point x="480" y="435"/>
      <point x="587" y="435" type="curve" smooth="yes"/>
      <point x="657" y="435" type="line"/>
      <point x="657" y="525" type="line"/>
      <point x="578" y="525" type="line" smooth="yes"/>
      <point x="413" y="525"/>
      <point x="350" y="477"/>
      <point x="350" y="363" type="curve" smooth="yes"/>
      <point x="350" y="219"/>
      <point x="425" y="190"/>
    </contour>
  </outline>
</glyph>
<glyph name="uni1574" format="2">
  <advance width="864"/>
  <unicode hex="1574"/>
  <note>
uni1574
</note>
  <outline>
    <contour>
      <point x="433" y="0" type="line"/>
      <point x="580" y="0" type="line"/>
      <point x="580" y="457" type="line" smooth="yes"/>
      <point x="580" y="610"/>
      <point x="506" y="726"/>
      <point x="321" y="726" type="curve" smooth="yes"/>
      <point x="138" y="726"/>
      <point x="59" y="610"/>
      <point x="59" y="466" type="curve" smooth="yes"/>
      <point x="59" y="318"/>
      <point x="148" y="205"/>
      <point x="318" y="205" type="curve" smooth="yes"/>
      <point x="365" y="205"/>
      <point x="400" y="214"/>
      <point x="433" y="231" type="curve"/>
    </contour>
    <contour>
      <point x="324" y="329" type="curve" smooth="yes"/>
      <point x="245" y="329"/>
      <point x="204" y="384"/>
      <point x="204" y="470" type="curve" smooth="yes"/>
      <point x="204" y="551"/>
      <point x="245" y="602"/>
      <point x="318" y="602" type="curve" smooth="yes"/>
      <point x="388" y="602"/>
      <point x="435" y="551"/>
      <point x="435" y="481" type="curve" smooth="yes"/>
      <point x="435" y="442" type="line" smooth="yes"/>
      <point x="435" y="387"/>
      <point x="394" y="329"/>
    </contour>
    <contour>
      <point x="580" y="0" type="line"/>
      <point x="835" y="187" type="line"/>
      <point x="762" y="287" type="line"/>
      <point x="521" y="107" type="line"/>
    </contour>
  </outline>
</glyph>
<glyph name="uni1575" format="2">
  <advance width="864"/>
  <unicode hex="1575"/>
  <note>
uni1575
</note>
  <outline>
    <contour>
      <point x="284" y="0" type="line"/>
      <point x="430" y="0" type="line"/>
      <point x="430" y="231" type="line"/>
      <point x="463" y="214"/>
      <point x="499" y="205"/>
      <point x="546" y="205" type="curve" smooth="yes"/>
      <point x="715" y="205"/>
      <point x="805" y="317"/>
      <point x="805" y="466" type="curve" smooth="yes"/>
      <point x="805" y="610"/>
      <point x="726" y="726"/>
      <point x="543" y="726" type="curve" smooth="yes"/>
      <point x="359" y="726"/>
      <point x="284" y="611"/>
      <point x="284" y="457" type="curve" smooth="yes"/>
    </contour>
    <contour>
      <point x="284" y="0" type="line"/>
      <point x="343" y="107" type="line"/>
      <point x="102" y="287" type="line"/>
      <point x="29" y="187" type="line"/>
    </contour>
    <contour>
      <point x="540" y="329" type="curve" smooth="yes"/>
      <point x="470" y="329"/>
      <point x="429" y="387"/>
      <point x="429" y="442" type="curve" smooth="yes"/>
      <point x="429" y="481" type="line" smooth="yes"/>
      <point x="429" y="550"/>
      <point x="476" y="602"/>
      <point x="546" y="602" type="curve" smooth="yes"/>
      <point x="619" y="602"/>
      <point x="660" y="551"/>
      <point x="660" y="470" type="curve" smooth="yes"/>
      <point x="660" y="384"/>
      <point x="619" y="329"/>
    </contour>
  </outline>
</glyph>
<glyph name="uni1577" format="2">
  <advance width="864"/>
  <unicode hex="1577"/>
  <note>
uni1577
</note>
  <outline>
    <contour>
      <point x="321" y="-12" type="curve" smooth="yes"/>
      <point x="505" y="-12"/>
      <point x="580" y="103"/>
      <point x="580" y="256" type="curve" smooth="yes"/>
      <point x="580" y="714" type="line"/>
      <point x="433" y="714" type="line"/>
      <point x="433" y="483" type="line"/>
      <point x="400" y="500"/>
      <point x="365" y="508"/>
      <point x="318" y="508" type="curve" smooth="yes"/>
      <point x="149" y="508"/>
      <point x="59" y="397"/>
      <point x="59" y="248" type="curve" smooth="yes"/>
      <point x="59" y="104"/>
      <point x="138" y="-12"/>
    </contour>
    <contour>
      <point x="318" y="112" type="curve" smooth="yes"/>
      <point x="245" y="112"/>
      <point x="204" y="163"/>
      <point x="204" y="244" type="curve" smooth="yes"/>
      <point x="204" y="330"/>
      <point x="245" y="385"/>
      <point x="324" y="385" type="curve" smooth="yes"/>
      <point x="394" y="385"/>
      <point x="435" y="327"/>
      <point x="435" y="272" type="curve" smooth="yes"/>
      <point x="435" y="233" type="line" smooth="yes"/>
      <point x="435" y="164"/>
      <point x="388" y="112"/>
    </contour>
    <contour>
      <point x="762" y="427" type="line"/>
      <point x="835" y="527" type="line"/>
      <point x="580" y="714" type="line"/>
      <point x="521" y="607" type="line"/>
    </contour>
  </outline>
</glyph>
<glyph name="uni1579" format="2">
  <advance width="864"/>
  <unicode hex="1579"/>
  <note>
uni1579
</note>
  <outline>
    <contour>
      <point x="543" y="-12" type="curve" smooth="yes"/>
      <point x="726" y="-12"/>
      <point x="805" y="104"/>
      <point x="805" y="248" type="curve" smooth="yes"/>
      <point x="805" y="396"/>
      <point x="716" y="508"/>
      <point x="546" y="508" type="curve" smooth="yes"/>
      <point x="499" y="508"/>
      <point x="463" y="500"/>
      <point x="430" y="483" type="curve"/>
      <point x="430" y="714" type="line"/>
      <point x="284" y="714" type="line"/>
      <point x="284" y="256" type="line" smooth="yes"/>
      <point x="284" y="104"/>
      <point x="358" y="-12"/>
    </contour>
    <contour>
      <point x="546" y="112" type="curve" smooth="yes"/>
      <point x="476" y="112"/>
      <point x="429" y="163"/>
      <point x="429" y="233" type="curve" smooth="yes"/>
      <point x="429" y="272" type="line" smooth="yes"/>
      <point x="429" y="327"/>
      <point x="470" y="385"/>
      <point x="540" y="385" type="curve" smooth="yes"/>
      <point x="619" y="385"/>
      <point x="660" y="330"/>
      <point x="660" y="244" type="curve" smooth="yes"/>
      <point x="660" y="163"/>
      <point x="619" y="112"/>
    </contour>
    <contour>
      <point x="102" y="427" type="line"/>
      <point x="343" y="607" type="line"/>
      <point x="284" y="714" type="line"/>
      <point x="29" y="527" type="line"/>
    </contour>
  </outline>
</glyph>
<glyph name="uni157B" format="2">
  <advance width="539"/>
  <unicode hex="157B"/>
  <note>
uni157B
</note>
  <outline>
    <contour>
      <point x="342" y="302" type="curve" smooth="yes"/>
      <point x="452" y="302"/>
      <point x="500" y="371"/>
      <point x="500" y="453" type="curve" smooth="yes"/>
      <point x="500" y="537"/>
      <point x="447" y="600"/>
      <point x="344" y="600" type="curve" smooth="yes"/>
      <point x="320" y="600"/>
      <point x="300" y="596"/>
      <point x="283" y="590" type="curve"/>
      <point x="283" y="715" type="line"/>
      <point x="189" y="715" type="line"/>
      <point x="39" y="606" type="line"/>
      <point x="87" y="541" type="line"/>
      <point x="184" y="612" type="line"/>
      <point x="184" y="461" type="line" smooth="yes"/>
      <point x="184" y="373"/>
      <point x="230" y="302"/>
    </contour>
    <contour>
      <point x="344" y="386" type="curve" smooth="yes"/>
      <point x="303" y="386"/>
      <point x="283" y="419"/>
      <point x="283" y="451" type="curve" smooth="yes"/>
      <point x="283" y="486"/>
      <point x="301" y="515"/>
      <point x="341" y="515" type="curve" smooth="yes"/>
      <point x="382" y="515"/>
      <point x="403" y="487"/>
      <point x="403" y="453" type="curve" smooth="yes"/>
      <point x="403" y="419"/>
      <point x="382" y="386"/>
    </contour>
  </outline>
</glyph>
<glyph name="uni157C" format="2">
  <advance width="735"/>
  <unicode hex="157C"/>
  <note>
uni157C
</note>
  <outline>
    <contour>
      <point x="68" y="0" type="line"/>
      <point x="214" y="0" type="line"/>
      <point x="214" y="322" type="line"/>
      <point x="520" y="322" type="line"/>
      <point x="520" y="0" type="line"/>
      <point x="667" y="0" type="line"/>
      <point x="667" y="714" type="line"/>
      <point x="520" y="714" type="line"/>
      <point x="520" y="444" type="line"/>
      <point x="214" y="444" type="line"/>
      <point x="214" y="714" type="line"/>
      <point x="68" y="714" type="line"/>
    </contour>
  </outline>
</glyph>
<glyph name="uni157D" format="2">
  <advance width="431"/>
  <unicode hex="157D"/>
  <note>
uni157D
</note>
  <outline>
    <contour>
      <point x="282" y="381" type="line"/>
      <point x="392" y="381" type="line"/>
      <point x="149" y="714" type="line"/>
      <point x="39" y="714" type="line"/>
    </contour>
    <contour>
      <point x="39" y="381" type="line"/>
      <point x="149" y="381" type="line"/>
      <point x="392" y="714" type="line"/>
      <point x="282" y="714" type="line"/>
    </contour>
  </outline>
</glyph>
<glyph name="uni1586" format="2">
  <advance width="649"/>
  <unicode hex="1586"/>
  <note>
uni1586
</note>
  <outline>
    <contour>
      <point x="433" y="0" type="line"/>
      <point x="580" y="0" type="line"/>
      <point x="580" y="457" type="line" smooth="yes"/>
      <point x="580" y="610"/>
      <point x="506" y="726"/>
      <point x="321" y="726" type="curve" smooth="yes"/>
      <point x="138" y="726"/>
      <point x="59" y="614"/>
      <point x="59" y="476" type="curve" smooth="yes"/>
      <point x="59" y="333"/>
      <point x="149" y="225"/>
      <point x="313" y="225" type="curve" smooth="yes"/>
      <point x="361" y="225"/>
      <point x="395" y="230"/>
      <point x="433" y="251" type="curve"/>
    </contour>
    <contour>
      <point x="322" y="350" type="curve" smooth="yes"/>
      <point x="241" y="350"/>
      <point x="204" y="401"/>
      <point x="204" y="479" type="curve" smooth="yes"/>
      <point x="204" y="556"/>
      <point x="245" y="602"/>
      <point x="318" y="602" type="curve" smooth="yes"/>
      <point x="391" y="602"/>
      <point x="432" y="553"/>
      <point x="432" y="474" type="curve" smooth="yes"/>
      <point x="432" y="399"/>
      <point x="395" y="350"/>
    </contour>
    <contour>
      <point x="85" y="0" type="line"/>
      <point x="230" y="0" type="line"/>
      <point x="357" y="277" type="line"/>
      <point x="211" y="277" type="line"/>
    </contour>
  </outline>
</glyph>
<glyph name="uni1587" format="2">
  <advance width="649"/>
  <unicode hex="1587"/>
  <note>
uni1587
</note>
  <outline>
    <contour>
      <point x="69" y="0" type="line"/>
      <point x="216" y="0" type="line"/>
      <point x="216" y="251" type="line"/>
      <point x="254" y="230"/>
      <point x="288" y="225"/>
      <point x="336" y="225" type="curve" smooth="yes"/>
      <point x="500" y="225"/>
      <point x="590" y="333"/>
      <point x="590" y="476" type="curve" smooth="yes"/>
      <point x="590" y="614"/>
      <point x="511" y="726"/>
      <point x="328" y="726" type="curve" smooth="yes"/>
      <point x="143" y="726"/>
      <point x="69" y="610"/>
      <point x="69" y="457" type="curve" smooth="yes"/>
    </contour>
    <contour>
      <point x="419" y="0" type="line"/>
      <point x="564" y="0" type="line"/>
      <point x="438" y="277" type="line"/>
      <point x="292" y="277" type="line"/>
    </contour>
    <contour>
      <point x="327" y="350" type="curve" smooth="yes"/>
      <point x="254" y="350"/>
      <point x="217" y="399"/>
      <point x="217" y="474" type="curve" smooth="yes"/>
      <point x="217" y="553"/>
      <point x="258" y="602"/>
      <point x="331" y="602" type="curve" smooth="yes"/>
      <point x="404" y="602"/>
      <point x="445" y="556"/>
      <point x="445" y="479" type="curve" smooth="yes"/>
      <point x="445" y="401"/>
      <point x="408" y="350"/>
    </contour>
  </outline>
</glyph>
<glyph name="uni1588" format="2">
  <advance width="649"/>
  <unicode hex="1588"/>
  <note>
uni1588
</note>
  <outline>
    <contour>
      <point x="321" y="-12" type="curve" smooth="yes"/>
      <point x="506" y="-12"/>
      <point x="580" y="104"/>
      <point x="580" y="257" type="curve" smooth="yes"/>
      <point x="580" y="714" type="line"/>
      <point x="433" y="714" type="line"/>
      <point x="433" y="463" type="line"/>
      <point x="395" y="484"/>
      <point x="361" y="489"/>
      <point x="313" y="489" type="curve" smooth="yes"/>
      <point x="149" y="489"/>
      <point x="59" y="381"/>
      <point x="59" y="238" type="curve" smooth="yes"/>
      <point x="59" y="100"/>
      <point x="138" y="-12"/>
    </contour>
    <contour>
      <point x="318" y="112" type="curve" smooth="yes"/>
      <point x="245" y="112"/>
      <point x="204" y="158"/>
      <point x="204" y="235" type="curve" smooth="yes"/>
      <point x="204" y="313"/>
      <point x="241" y="364"/>
      <point x="322" y="364" type="curve" smooth="yes"/>
      <point x="395" y="364"/>
      <point x="432" y="315"/>
      <point x="432" y="240" type="curve" smooth="yes"/>
      <point x="432" y="161"/>
      <point x="391" y="112"/>
    </contour>
    <contour>
      <point x="211" y="437" type="line"/>
      <point x="357" y="437" type="line"/>
      <point x="230" y="714" type="line"/>
      <point x="85" y="714" type="line"/>
    </contour>
  </outline>
</glyph>
<glyph name="uni1589" format="2">
  <advance width="649"/>
  <unicode hex="1589"/>
  <note>
uni1589
</note>
  <outline>
    <contour>
      <point x="328" y="-12" type="curve" smooth="yes"/>
      <point x="511" y="-12"/>
      <point x="590" y="100"/>
      <point x="590" y="238" type="curve" smooth="yes"/>
      <point x="590" y="381"/>
      <point x="500" y="489"/>
      <point x="336" y="489" type="curve" smooth="yes"/>
      <point x="288" y="489"/>
      <point x="254" y="484"/>
      <point x="216" y="463" type="curve"/>
      <point x="216" y="714" type="line"/>
      <point x="69" y="714" type="line"/>
      <point x="69" y="257" type="line" smooth="yes"/>
      <point x="69" y="104"/>
      <point x="143" y="-12"/>
    </contour>
    <contour>
      <point x="331" y="112" type="curve" smooth="yes"/>
      <point x="258" y="112"/>
      <point x="217" y="161"/>
      <point x="217" y="240" type="curve" smooth="yes"/>
      <point x="217" y="315"/>
      <point x="254" y="364"/>
      <point x="327" y="364" type="curve" smooth="yes"/>
      <point x="408" y="364"/>
      <point x="445" y="313"/>
      <point x="445" y="235" type="curve" smooth="yes"/>
      <point x="445" y="158"/>
      <point x="404" y="112"/>
    </contour>
    <contour>
      <point x="292" y="437" type="line"/>
      <point x="438" y="437" type="line"/>
      <point x="564" y="714" type="line"/>
      <point x="419" y="714" type="line"/>
    </contour>
  </outline>
</glyph>
<glyph name="uni158A" format="2">
  <advance width="880"/>
  <unicode hex="158A"/>
  <note>
uni158A
</note>
  <outline>
    <contour>
      <point x="450" y="0" type="line"/>
      <point x="597" y="0" type="line"/>
      <point x="597" y="425" type="line" smooth="yes"/>
      <point x="597" y="598"/>
      <point x="536" y="726"/>
      <point x="330" y="726" type="curve" smooth="yes"/>
      <point x="128" y="726"/>
      <point x="59" y="610"/>
      <point x="59" y="450" type="curve" smooth="yes"/>
      <point x="59" y="401" type="line"/>
      <point x="206" y="401" type="line"/>
      <point x="206" y="452" type="line" smooth="yes"/>
      <point x="206" y="550"/>
      <point x="235" y="602"/>
      <point x="327" y="602" type="curve" smooth="yes"/>
      <point x="418" y="602"/>
      <point x="450" y="543"/>
      <point x="450" y="446" type="curve" smooth="yes"/>
    </contour>
    <contour>
      <point x="597" y="0" type="line"/>
      <point x="851" y="187" type="line"/>
      <point x="778" y="287" type="line"/>
      <point x="538" y="108" type="line"/>
    </contour>
  </outline>
</glyph>
<glyph name="uni158B" format="2">
  <advance width="880"/>
  <unicode hex="158B"/>
  <note>
uni158B
</note>
  <outline>
    <contour>
      <point x="283" y="0" type="line"/>
      <point x="430" y="0" type="line"/>
      <point x="430" y="446" type="line" smooth="yes"/>
      <point x="430" y="543"/>
      <point x="462" y="602"/>
      <point x="553" y="602" type="curve" smooth="yes"/>
      <point x="645" y="602"/>
      <point x="674" y="550"/>
      <point x="674" y="452" type="curve" smooth="yes"/>
      <point x="674" y="401" type="line"/>
      <point x="821" y="401" type="line"/>
      <point x="821" y="450" type="line" smooth="yes"/>
      <point x="821" y="610"/>
      <point x="751" y="726"/>
      <point x="549" y="726" type="curve" smooth="yes"/>
      <point x="344" y="726"/>
      <point x="283" y="598"/>
      <point x="283" y="425" type="curve" smooth="yes"/>
    </contour>
    <contour>
      <point x="283" y="0" type="line"/>
      <point x="342" y="108" type="line"/>
      <point x="102" y="287" type="line"/>
      <point x="29" y="187" type="line"/>
    </contour>
  </outline>
</glyph>
<glyph name="uni158C" format="2">
  <advance width="880"/>
  <unicode hex="158C"/>
  <note>
uni158C
</note>
  <outline>
    <contour>
      <point x="330" y="-12" type="curve" smooth="yes"/>
      <point x="536" y="-12"/>
      <point x="597" y="116"/>
      <point x="597" y="289" type="curve" smooth="yes"/>
      <point x="597" y="714" type="line"/>
      <point x="450" y="714" type="line"/>
      <point x="450" y="268" type="line" smooth="yes"/>
      <point x="450" y="171"/>
      <point x="418" y="112"/>
      <point x="327" y="112" type="curve" smooth="yes"/>
      <point x="235" y="112"/>
      <point x="206" y="164"/>
      <point x="206" y="262" type="curve" smooth="yes"/>
      <point x="206" y="313" type="line"/>
      <point x="59" y="313" type="line"/>
      <point x="59" y="264" type="line" smooth="yes"/>
      <point x="59" y="104"/>
      <point x="128" y="-12"/>
    </contour>
    <contour>
      <point x="778" y="427" type="line"/>
      <point x="851" y="527" type="line"/>
      <point x="597" y="714" type="line"/>
      <point x="538" y="606" type="line"/>
    </contour>
  </outline>
</glyph>
<glyph name="uni158D" format="2">
  <advance width="880"/>
  <unicode hex="158D"/>
  <note>
uni158D
</note>
  <outline>
    <contour>
      <point x="549" y="-12" type="curve" smooth="yes"/>
      <point x="751" y="-12"/>
      <point x="821" y="104"/>
      <point x="821" y="264" type="curve" smooth="yes"/>
      <point x="821" y="313" type="line"/>
      <point x="674" y="313" type="line"/>
      <point x="674" y="262" type="line" smooth="yes"/>
      <point x="674" y="164"/>
      <point x="645" y="112"/>
      <point x="553" y="112" type="curve" smooth="yes"/>
      <point x="462" y="112"/>
      <point x="430" y="171"/>
      <point x="430" y="268" type="curve" smooth="yes"/>
      <point x="430" y="714" type="line"/>
      <point x="283" y="714" type="line"/>
      <point x="283" y="289" type="line" smooth="yes"/>
      <point x="283" y="116"/>
      <point x="344" y="-12"/>
    </contour>
    <contour>
      <point x="102" y="427" type="line"/>
      <point x="342" y="606" type="line"/>
      <point x="283" y="714" type="line"/>
      <point x="29" y="527" type="line"/>
    </contour>
  </outline>
</glyph>
<glyph name="uni1591" format="2">
  <advance width="953"/>
  <unicode hex="1591"/>
  <note>
uni1591
</note>
  <outline>
    <contour>
      <point x="616" y="-12" type="curve" smooth="yes"/>
      <point x="828" y="-12"/>
      <point x="884" y="90"/>
      <point x="884" y="315" type="curve" smooth="yes"/>
      <point x="884" y="714" type="line"/>
      <point x="738" y="714" type="line"/>
      <point x="738" y="282" type="line" smooth="yes"/>
      <point x="738" y="170"/>
      <point x="711" y="112"/>
      <point x="616" y="112" type="curve" smooth="yes"/>
      <point x="533" y="112"/>
      <point x="500" y="144"/>
      <point x="494" y="237" type="curve"/>
      <point x="348" y="237" type="line"/>
      <point x="358" y="61"/>
      <point x="430" y="-12"/>
    </contour>
    <contour>
      <point x="173" y="566" type="curve" smooth="yes"/>
      <point x="149" y="566"/>
      <point x="132" y="583"/>
      <point x="132" y="609" type="curve" smooth="yes"/>
      <point x="132" y="636"/>
      <point x="149" y="652"/>
      <point x="173" y="652" type="curve" smooth="yes"/>
      <point x="197" y="652"/>
      <point x="213" y="637"/>
      <point x="213" y="608" type="curve" smooth="yes"/>
      <point x="213" y="583"/>
      <point x="195" y="566"/>
    </contour>
    <contour>
      <point x="441" y="311" type="curve" smooth="yes"/>
      <point x="532" y="311"/>
      <point x="566" y="362"/>
      <point x="566" y="434" type="curve" smooth="yes"/>
      <point x="566" y="468" type="line"/>
      <point x="484" y="468" type="line"/>
      <point x="484" y="433" type="line" smooth="yes"/>
      <point x="484" y="399"/>
      <point x="472" y="379"/>
      <point x="443" y="379" type="curve" smooth="yes"/>
      <point x="412" y="379"/>
      <point x="403" y="409"/>
      <point x="403" y="445" type="curve" smooth="yes"/>
      <point x="403" y="565" type="line"/>
      <point x="285" y="565" type="line"/>
      <point x="292" y="578"/>
      <point x="295" y="593"/>
      <point x="295" y="610" type="curve" smooth="yes"/>
      <point x="295" y="678"/>
      <point x="241" y="727"/>
      <point x="173" y="727" type="curve" smooth="yes"/>
      <point x="103" y="727"/>
      <point x="49" y="677"/>
      <point x="49" y="610" type="curve" smooth="yes"/>
      <point x="49" y="539"/>
      <point x="100" y="490"/>
      <point x="176" y="490" type="curve" smooth="yes"/>
      <point x="320" y="490" type="line"/>
      <point x="320" y="439" type="line" smooth="yes"/>
      <point x="320" y="363"/>
      <point x="353" y="311"/>
    </contour>
  </outline>
</glyph>
<glyph name="uni1595" format="2">
  <advance width="615"/>
  <unicode hex="1595"/>
  <note>
uni1595
</note>
  <outline>
    <contour>
      <point x="441" y="314" type="curve" smooth="yes"/>
      <point x="532" y="314"/>
      <point x="566" y="366"/>
      <point x="566" y="438" type="curve" smooth="yes"/>
      <point x="566" y="472" type="line"/>
      <point x="484" y="472" type="line"/>
      <point x="484" y="437" type="line" smooth="yes"/>
      <point x="484" y="403"/>
      <point x="472" y="383"/>
      <point x="443" y="383" type="curve" smooth="yes"/>
      <point x="412" y="383"/>
      <point x="403" y="413"/>
      <point x="403" y="449" type="curve" smooth="yes"/>
      <point x="403" y="565" type="line"/>
      <point x="285" y="565" type="line"/>
      <point x="292" y="578"/>
      <point x="295" y="593"/>
      <point x="295" y="610" type="curve" smooth="yes"/>
      <point x="295" y="678"/>
      <point x="241" y="727"/>
      <point x="173" y="727" type="curve" smooth="yes"/>
      <point x="103" y="727"/>
      <point x="49" y="677"/>
      <point x="49" y="610" type="curve" smooth="yes"/>
      <point x="49" y="539"/>
      <point x="100" y="490"/>
      <point x="176" y="490" type="curve" smooth="yes"/>
      <point x="320" y="490" type="line"/>
      <point x="320" y="443" type="line" smooth="yes"/>
      <point x="320" y="367"/>
      <point x="353" y="314"/>
    </contour>
    <contour>
      <point x="173" y="566" type="curve" smooth="yes"/>
      <point x="149" y="566"/>
      <point x="132" y="583"/>
      <point x="132" y="609" type="curve" smooth="yes"/>
      <point x="132" y="636"/>
      <point x="149" y="652"/>
      <point x="173" y="652" type="curve" smooth="yes"/>
      <point x="197" y="652"/>
      <point x="213" y="637"/>
      <point x="213" y="608" type="curve" smooth="yes"/>
      <point x="213" y="583"/>
      <point x="195" y="566"/>
    </contour>
  </outline>
</glyph>
<glyph name="uni1596" format="2">
  <advance width="886"/>
  <unicode hex="1596"/>
  <note>
uni1596
</note>
  <outline>
    <contour>
      <point x="712" y="314" type="curve" smooth="yes"/>
      <point x="802" y="314"/>
      <point x="837" y="366"/>
      <point x="837" y="438" type="curve" smooth="yes"/>
      <point x="837" y="472" type="line"/>
      <point x="754" y="472" type="line"/>
      <point x="754" y="437" type="line" smooth="yes"/>
      <point x="754" y="403"/>
      <point x="743" y="383"/>
      <point x="714" y="383" type="curve" smooth="yes"/>
      <point x="683" y="383"/>
      <point x="673" y="411"/>
      <point x="673" y="449" type="curve" smooth="yes"/>
      <point x="673" y="565" type="line"/>
      <point x="568" y="565" type="line"/>
      <point x="574" y="578"/>
      <point x="578" y="593"/>
      <point x="578" y="610" type="curve" smooth="yes"/>
      <point x="578" y="678"/>
      <point x="523" y="727"/>
      <point x="455" y="727" type="curve" smooth="yes"/>
      <point x="385" y="727"/>
      <point x="331" y="677"/>
      <point x="331" y="610" type="curve" smooth="yes"/>
      <point x="331" y="594"/>
      <point x="334" y="578"/>
      <point x="340" y="565" type="curve"/>
      <point x="285" y="565" type="line"/>
      <point x="292" y="578"/>
      <point x="295" y="593"/>
      <point x="295" y="610" type="curve" smooth="yes"/>
      <point x="295" y="678"/>
      <point x="241" y="727"/>
      <point x="173" y="727" type="curve" smooth="yes"/>
      <point x="103" y="727"/>
      <point x="49" y="677"/>
      <point x="49" y="610" type="curve" smooth="yes"/>
      <point x="49" y="539"/>
      <point x="100" y="490"/>
      <point x="176" y="490" type="curve" smooth="yes"/>
      <point x="591" y="490" type="line"/>
      <point x="591" y="443" type="line" smooth="yes"/>
      <point x="591" y="367"/>
      <point x="624" y="314"/>
    </contour>
    <contour>
      <point x="173" y="566" type="curve" smooth="yes"/>
      <point x="149" y="566"/>
      <point x="132" y="583"/>
      <point x="132" y="609" type="curve" smooth="yes"/>
      <point x="132" y="636"/>
      <point x="149" y="652"/>
      <point x="173" y="652" type="curve" smooth="yes"/>
      <point x="197" y="652"/>
      <point x="213" y="637"/>
      <point x="213" y="608" type="curve" smooth="yes"/>
      <point x="213" y="583"/>
      <point x="195" y="566"/>
    </contour>
    <contour>
      <point x="455" y="566" type="curve" smooth="yes"/>
      <point x="431" y="566"/>
      <point x="414" y="583"/>
      <point x="414" y="609" type="curve" smooth="yes"/>
      <point x="414" y="636"/>
      <point x="431" y="652"/>
      <point x="455" y="652" type="curve" smooth="yes"/>
      <point x="479" y="652"/>
      <point x="495" y="637"/>
      <point x="495" y="608" type="curve" smooth="yes"/>
      <point x="495" y="583"/>
      <point x="478" y="566"/>
    </contour>
  </outline>
</glyph>
<glyph name="uni1597" format="2">
  <advance width="654"/>
  <unicode hex="1597"/>
  <note>
uni1597
</note>
  <outline>
    <contour>
      <point x="441" y="0" type="line"/>
      <point x="585" y="0" type="line"/>
      <point x="585" y="457" type="line" smooth="yes"/>
      <point x="585" y="631"/>
      <point x="490" y="726"/>
      <point x="327" y="726" type="curve" smooth="yes"/>
      <point x="154" y="726"/>
      <point x="59" y="620"/>
      <point x="59" y="462" type="curve" smooth="yes"/>
      <point x="59" y="324"/>
      <point x="131" y="233"/>
      <point x="238" y="233" type="curve" smooth="yes"/>
      <point x="347" y="233"/>
      <point x="404" y="302"/>
      <point x="407" y="417" type="curve"/>
      <point x="314" y="429" type="line"/>
      <point x="310" y="381"/>
      <point x="292" y="357"/>
      <point x="261" y="357" type="curve" smooth="yes"/>
      <point x="220" y="357"/>
      <point x="202" y="401"/>
      <point x="202" y="462" type="curve" smooth="yes"/>
      <point x="202" y="560"/>
      <point x="246" y="602"/>
      <point x="320" y="602" type="curve" smooth="yes"/>
      <point x="404" y="602"/>
      <point x="441" y="547"/>
      <point x="441" y="458" type="curve" smooth="yes"/>
    </contour>
  </outline>
</glyph>
<glyph name="uni1598" format="2">
  <advance width="654"/>
  <unicode hex="1598"/>
  <note>
uni1598
</note>
  <outline>
    <contour>
      <point x="69" y="0" type="line"/>
      <point x="213" y="0" type="line"/>
      <point x="213" y="458" type="line" smooth="yes"/>
      <point x="213" y="547"/>
      <point x="250" y="602"/>
      <point x="334" y="602" type="curve" smooth="yes"/>
      <point x="408" y="602"/>
      <point x="453" y="560"/>
      <point x="453" y="462" type="curve" smooth="yes"/>
      <point x="453" y="401"/>
      <point x="434" y="357"/>
      <point x="394" y="357" type="curve" smooth="yes"/>
      <point x="362" y="357"/>
      <point x="344" y="381"/>
      <point x="341" y="429" type="curve"/>
      <point x="247" y="417" type="line"/>
      <point x="251" y="302"/>
      <point x="307" y="233"/>
      <point x="416" y="233" type="curve" smooth="yes"/>
      <point x="523" y="233"/>
      <point x="595" y="324"/>
      <point x="595" y="462" type="curve" smooth="yes"/>
      <point x="595" y="620"/>
      <point x="501" y="726"/>
      <point x="328" y="726" type="curve" smooth="yes"/>
      <point x="164" y="726"/>
      <point x="69" y="631"/>
      <point x="69" y="457" type="curve" smooth="yes"/>
    </contour>
  </outline>
</glyph>
<glyph name="uni1599" format="2">
  <advance width="654"/>
  <unicode hex="1599"/>
  <note>
uni1599
</note>
  <outline>
    <contour>
      <point x="327" y="-12" type="curve" smooth="yes"/>
      <point x="490" y="-12"/>
      <point x="585" y="83"/>
      <point x="585" y="257" type="curve" smooth="yes"/>
      <point x="585" y="714" type="line"/>
      <point x="441" y="714" type="line"/>
      <point x="441" y="256" type="line" smooth="yes"/>
      <point x="441" y="167"/>
      <point x="404" y="112"/>
      <point x="320" y="112" type="curve" smooth="yes"/>
      <point x="246" y="112"/>
      <point x="202" y="154"/>
      <point x="202" y="252" type="curve" smooth="yes"/>
      <point x="202" y="313"/>
      <point x="220" y="357"/>
      <point x="261" y="357" type="curve" smooth="yes"/>
      <point x="292" y="357"/>
      <point x="310" y="333"/>
      <point x="314" y="285" type="curve"/>
      <point x="407" y="297" type="line"/>
      <point x="404" y="412"/>
      <point x="347" y="481"/>
      <point x="238" y="481" type="curve" smooth="yes"/>
      <point x="131" y="481"/>
      <point x="59" y="390"/>
      <point x="59" y="252" type="curve" smooth="yes"/>
      <point x="59" y="94"/>
      <point x="154" y="-12"/>
    </contour>
  </outline>
</glyph>
<glyph name="uni159A" format="2">
  <advance width="654"/>
  <unicode hex="159A"/>
  <note>
uni159A
</note>
  <outline>
    <contour>
      <point x="328" y="-12" type="curve" smooth="yes"/>
      <point x="501" y="-12"/>
      <point x="595" y="94"/>
      <point x="595" y="253" type="curve" smooth="yes"/>
      <point x="595" y="390"/>
      <point x="526" y="481"/>
      <point x="411" y="481" type="curve" smooth="yes"/>
      <point x="310" y="481"/>
      <point x="251" y="412"/>
      <point x="247" y="297" type="curve"/>
      <point x="341" y="285" type="line"/>
      <point x="344" y="333"/>
      <point x="362" y="357"/>
      <point x="394" y="357" type="curve" smooth="yes"/>
      <point x="434" y="357"/>
      <point x="453" y="313"/>
      <point x="453" y="252" type="curve" smooth="yes"/>
      <point x="453" y="154"/>
      <point x="408" y="112"/>
      <point x="334" y="112" type="curve" smooth="yes"/>
      <point x="250" y="112"/>
      <point x="213" y="167"/>
      <point x="213" y="256" type="curve" smooth="yes"/>
      <point x="213" y="714" type="line"/>
      <point x="69" y="714" type="line"/>
      <point x="69" y="257" type="line" smooth="yes"/>
      <point x="69" y="83"/>
      <point x="164" y="-12"/>
    </contour>
  </outline>
</glyph>
<glyph name="uni159B" format="2">
  <advance width="932"/>
  <unicode hex="159B"/>
  <note>
uni159B
</note>
  <outline>
    <contour>
      <point x="611" y="-12" type="curve" smooth="yes"/>
      <point x="768" y="-12"/>
      <point x="873" y="90"/>
      <point x="873" y="250" type="curve" smooth="yes"/>
      <point x="873" y="412"/>
      <point x="764" y="509"/>
      <point x="600" y="509" type="curve" smooth="yes"/>
      <point x="49" y="509" type="line"/>
      <point x="49" y="389" type="line"/>
      <point x="385" y="389" type="line"/>
      <point x="357" y="347"/>
      <point x="346" y="303"/>
      <point x="346" y="243" type="curve" smooth="yes"/>
      <point x="346" y="90"/>
      <point x="458" y="-12"/>
    </contour>
    <contour>
      <point x="612" y="107" type="curve" smooth="yes"/>
      <point x="537" y="107"/>
      <point x="475" y="159"/>
      <point x="475" y="244" type="curve" smooth="yes"/>
      <point x="475" y="332"/>
      <point x="526" y="392"/>
      <point x="609" y="392" type="curve" smooth="yes"/>
      <point x="685" y="392"/>
      <point x="743" y="338"/>
      <point x="743" y="251" type="curve" smooth="yes"/>
      <point x="743" y="164"/>
      <point x="690" y="107"/>
    </contour>
    <contour>
      <point x="49" y="579" type="line"/>
      <point x="840" y="579" type="line"/>
      <point x="840" y="700" type="line"/>
      <point x="49" y="700" type="line"/>
    </contour>
  </outline>
</glyph>
<glyph name="uni159D" format="2">
  <advance width="932"/>
  <unicode hex="159D"/>
  <note>
uni159D
</note>
  <outline>
    <contour>
      <point x="49" y="0" type="line"/>
      <point x="600" y="0" type="line" smooth="yes"/>
      <point x="764" y="0"/>
      <point x="873" y="97"/>
      <point x="873" y="259" type="curve" smooth="yes"/>
      <point x="873" y="420"/>
      <point x="768" y="522"/>
      <point x="611" y="522" type="curve" smooth="yes"/>
      <point x="458" y="522"/>
      <point x="346" y="420"/>
      <point x="346" y="267" type="curve" smooth="yes"/>
      <point x="346" y="208"/>
      <point x="357" y="164"/>
      <point x="385" y="121" type="curve"/>
      <point x="49" y="121" type="line"/>
    </contour>
    <contour>
      <point x="609" y="118" type="curve" smooth="yes"/>
      <point x="526" y="118"/>
      <point x="475" y="178"/>
      <point x="475" y="265" type="curve" smooth="yes"/>
      <point x="475" y="351"/>
      <point x="537" y="402"/>
      <point x="612" y="402" type="curve" smooth="yes"/>
      <point x="691" y="402"/>
      <point x="743" y="345"/>
      <point x="743" y="259" type="curve" smooth="yes"/>
      <point x="743" y="172"/>
      <point x="685" y="118"/>
    </contour>
    <contour>
      <point x="49" y="579" type="line"/>
      <point x="840" y="579" type="line"/>
      <point x="840" y="700" type="line"/>
      <point x="49" y="700" type="line"/>
    </contour>
  </outline>
</glyph>
<glyph name="uni159F" format="2">
  <advance width="612"/>
  <unicode hex="159F"/>
  <note>
uni159F
</note>
  <outline>
    <contour>
      <point x="208" y="381" type="curve" smooth="yes"/>
      <point x="573" y="381" type="line"/>
      <point x="573" y="469" type="line"/>
      <point x="360" y="469" type="line"/>
      <point x="374" y="495"/>
      <point x="381" y="520"/>
      <point x="381" y="551" type="curve" smooth="yes"/>
      <point x="381" y="635"/>
      <point x="321" y="716"/>
      <point x="210" y="716" type="curve" smooth="yes"/>
      <point x="99" y="716"/>
      <point x="39" y="635"/>
      <point x="39" y="550" type="curve" smooth="yes"/>
      <point x="39" y="462"/>
      <point x="99" y="381"/>
    </contour>
    <contour>
      <point x="210" y="471" type="curve" smooth="yes"/>
      <point x="166" y="471"/>
      <point x="138" y="506"/>
      <point x="138" y="550" type="curve" smooth="yes"/>
      <point x="138" y="593"/>
      <point x="165" y="627"/>
      <point x="210" y="627" type="curve" smooth="yes"/>
      <point x="254" y="627"/>
      <point x="282" y="593"/>
      <point x="282" y="550" type="curve" smooth="yes"/>
      <point x="282" y="507"/>
      <point x="254" y="471"/>
    </contour>
    <contour>
      <point x="54" y="757" type="line"/>
      <point x="573" y="757" type="line"/>
      <point x="573" y="845" type="line"/>
      <point x="54" y="845" type="line"/>
    </contour>
  </outline>
</glyph>
<glyph name="uni15A0" format="2">
  <advance width="919"/>
  <unicode hex="15A0"/>
  <note>
uni15A0
</note>
  <outline>
    <contour>
      <point x="324" y="0" type="curve" smooth="yes"/>
      <point x="445" y="0" type="line"/>
      <point x="445" y="121" type="line"/>
      <point x="319" y="121" type="line" smooth="yes"/>
      <point x="239" y="121"/>
      <point x="186" y="170"/>
      <point x="186" y="255" type="curve" smooth="yes"/>
      <point x="186" y="350"/>
      <point x="241" y="389"/>
      <point x="336" y="389" type="curve" smooth="yes"/>
      <point x="870" y="389" type="line"/>
      <point x="870" y="510" type="line"/>
      <point x="333" y="510" type="line" smooth="yes"/>
      <point x="144" y="510"/>
      <point x="59" y="400"/>
      <point x="59" y="254" type="curve" smooth="yes"/>
      <point x="59" y="116"/>
      <point x="148" y="0"/>
    </contour>
    <contour>
      <point x="743" y="473" type="line"/>
      <point x="870" y="510" type="line"/>
      <point x="671" y="777" type="line"/>
      <point x="573" y="705" type="line"/>
    </contour>
  </outline>
</glyph>
<glyph name="uni15A4" format="2">
  <advance width="919"/>
  <unicode hex="15A4"/>
  <note>
uni15A4
</note>
  <outline>
    <contour>
      <point x="333" y="0" type="curve" smooth="yes"/>
      <point x="870" y="0" type="line"/>
      <point x="870" y="121" type="line"/>
      <point x="336" y="121" type="line" smooth="yes"/>
      <point x="241" y="121"/>
      <point x="186" y="161"/>
      <point x="186" y="255" type="curve" smooth="yes"/>
      <point x="186" y="340"/>
      <point x="239" y="389"/>
      <point x="319" y="389" type="curve" smooth="yes"/>
      <point x="445" y="389" type="line"/>
      <point x="445" y="510" type="line"/>
      <point x="324" y="510" type="line" smooth="yes"/>
      <point x="148" y="510"/>
      <point x="59" y="394"/>
      <point x="59" y="256" type="curve" smooth="yes"/>
      <point x="59" y="111"/>
      <point x="145" y="0"/>
    </contour>
    <contour>
      <point x="671" y="-267" type="line"/>
      <point x="870" y="0" type="line"/>
      <point x="743" y="37" type="line"/>
      <point x="573" y="-195" type="line"/>
    </contour>
  </outline>
</glyph>
<glyph name="uni15A6" format="2">
  <advance width="578"/>
  <unicode hex="15A6"/>
  <note>
uni15A6
</note>
  <outline>
    <contour>
      <point x="215" y="377" type="curve" smooth="yes"/>
      <point x="539" y="377" type="line"/>
      <point x="539" y="467" type="line"/>
      <point x="215" y="467" type="line" smooth="yes"/>
      <point x="165" y="467"/>
      <point x="138" y="500"/>
      <point x="138" y="547" type="curve" smooth="yes"/>
      <point x="138" y="590"/>
      <point x="166" y="625"/>
      <point x="214" y="625" type="curve" smooth="yes"/>
      <point x="260" y="625" type="line"/>
      <point x="260" y="714" type="line"/>
      <point x="212" y="714" type="line" smooth="yes"/>
      <point x="98" y="714"/>
      <point x="39" y="637"/>
      <point x="39" y="548" type="curve" smooth="yes"/>
      <point x="39" y="454"/>
      <point x="97" y="377"/>
    </contour>
    <contour>
      <point x="426" y="222" type="line"/>
      <point x="539" y="377" type="line"/>
      <point x="454" y="402" type="line"/>
      <point x="356" y="272" type="line"/>
    </contour>
  </outline>
</glyph>
<glyph name="uni15A7" format="2">
  <advance width="664"/>
  <unicode hex="15A7"/>
  <note>
uni15A7
</note>
  <outline>
    <contour>
      <point x="402" y="0" type="line"/>
      <point x="548" y="0" type="line"/>
      <point x="548" y="359" type="line"/>
      <point x="263" y="359" type="line"/>
      <point x="484" y="650" type="line"/>
      <point x="376" y="726" type="line"/>
      <point x="39" y="276" type="line"/>
      <point x="39" y="238" type="line"/>
      <point x="402" y="238" type="line"/>
    </contour>
    <contour>
      <point x="207" y="84" type="line"/>
      <point x="615" y="84" type="line"/>
      <point x="615" y="182" type="line"/>
      <point x="207" y="182" type="line"/>
    </contour>
  </outline>
</glyph>
<glyph name="uni15A8" format="2">
  <advance width="664"/>
  <unicode hex="15A8"/>
  <note>
uni15A8
</note>
  <outline>
    <contour>
      <point x="116" y="0" type="line"/>
      <point x="262" y="0" type="line"/>
      <point x="262" y="238" type="line"/>
      <point x="625" y="238" type="line"/>
      <point x="625" y="276" type="line"/>
      <point x="289" y="726" type="line"/>
      <point x="180" y="650" type="line"/>
      <point x="401" y="359" type="line"/>
      <point x="116" y="359" type="line"/>
    </contour>
    <contour>
      <point x="49" y="84" type="line"/>
      <point x="458" y="84" type="line"/>
      <point x="458" y="182" type="line"/>
      <point x="49" y="182" type="line"/>
    </contour>
  </outline>
</glyph>
<glyph name="uni15AA" format="2">
  <advance width="664"/>
  <unicode hex="15AA"/>
  <note>
uni15AA
</note>
  <outline>
    <contour>
      <point x="376" y="-12" type="line"/>
      <point x="484" y="64" type="line"/>
      <point x="263" y="354" type="line"/>
      <point x="548" y="354" type="line"/>
      <point x="548" y="714" type="line"/>
      <point x="402" y="714" type="line"/>
      <point x="402" y="476" type="line"/>
      <point x="39" y="476" type="line"/>
      <point x="39" y="438" type="line"/>
    </contour>
    <contour>
      <point x="207" y="532" type="line"/>
      <point x="615" y="532" type="line"/>
      <point x="615" y="630" type="line"/>
      <point x="207" y="630" type="line"/>
    </contour>
  </outline>
</glyph>
<glyph name="uni15AC" format="2">
  <advance width="664"/>
  <unicode hex="15AC"/>
  <note>
uni15AC
</note>
  <outline>
    <contour>
      <point x="289" y="-12" type="line"/>
      <point x="625" y="438" type="line"/>
      <point x="625" y="476" type="line"/>
      <point x="262" y="476" type="line"/>
      <point x="262" y="714" type="line"/>
      <point x="116" y="714" type="line"/>
      <point x="116" y="354" type="line"/>
      <point x="401" y="354" type="line"/>
      <point x="180" y="64" type="line"/>
    </contour>
    <contour>
      <point x="49" y="532" type="line"/>
      <point x="458" y="532" type="line"/>
      <point x="458" y="630" type="line"/>
      <point x="49" y="630" type="line"/>
    </contour>
  </outline>
</glyph>
<glyph name="uni15AE" format="2">
  <advance width="415"/>
  <unicode hex="15AE"/>
  <note>
uni15AE
</note>
  <outline>
    <contour>
      <point x="184" y="304" type="line"/>
      <point x="376" y="559" type="line"/>
      <point x="376" y="587" type="line"/>
      <point x="179" y="587" type="line"/>
      <point x="179" y="714" type="line"/>
      <point x="80" y="714" type="line"/>
      <point x="80" y="497" type="line"/>
      <point x="216" y="497" type="line"/>
      <point x="109" y="356" type="line"/>
    </contour>
    <contour>
      <point x="39" y="618" type="line"/>
      <point x="284" y="618" type="line"/>
      <point x="284" y="682" type="line"/>
      <point x="39" y="682" type="line"/>
    </contour>
  </outline>
</glyph>
<glyph name="uni15AF" format="2">
  <advance width="649"/>
  <unicode hex="15AF"/>
  <note>
uni15AF
</note>
  <outline>
    <contour>
      <point x="350" y="-12" type="curve" smooth="yes"/>
      <point x="509" y="-12"/>
      <point x="590" y="112"/>
      <point x="590" y="248" type="curve" smooth="yes"/>
      <point x="590" y="394"/>
      <point x="501" y="508"/>
      <point x="344" y="508" type="curve" smooth="yes"/>
      <point x="289" y="508"/>
      <point x="240" y="492"/>
      <point x="213" y="470" type="curve"/>
      <point x="213" y="714" type="line"/>
      <point x="69" y="714" type="line"/>
      <point x="69" y="0" type="line"/>
      <point x="205" y="0" type="line"/>
      <point x="205" y="37" type="line"/>
      <point x="245" y="5"/>
      <point x="292" y="-12"/>
    </contour>
    <contour>
      <point x="331" y="112" type="curve" smooth="yes"/>
      <point x="263" y="112"/>
      <point x="214" y="167"/>
      <point x="214" y="233" type="curve" smooth="yes"/>
      <point x="214" y="268" type="line" smooth="yes"/>
      <point x="214" y="323"/>
      <point x="258" y="385"/>
      <point x="327" y="385" type="curve" smooth="yes"/>
      <point x="403" y="385"/>
      <point x="446" y="328"/>
      <point x="446" y="244" type="curve" smooth="yes"/>
      <point x="446" y="164"/>
      <point x="403" y="112"/>
    </contour>
  </outline>
</glyph>
<glyph name="uni15B0" format="2">
  <advance width="593"/>
  <unicode hex="15B0"/>
  <note>
uni15B0
</note>
  <outline>
    <contour>
      <point x="69" y="0" type="line"/>
      <point x="213" y="0" type="line"/>
      <point x="213" y="400" type="line"/>
      <point x="239" y="376"/>
      <point x="293" y="357"/>
      <point x="350" y="357" type="curve" smooth="yes"/>
      <point x="461" y="357"/>
      <point x="534" y="432"/>
      <point x="534" y="540" type="curve" smooth="yes"/>
      <point x="534" y="655"/>
      <point x="463" y="726"/>
      <point x="351" y="726" type="curve" smooth="yes"/>
      <point x="299" y="726"/>
      <point x="248" y="711"/>
      <point x="213" y="680" type="curve"/>
      <point x="213" y="714" type="line"/>
      <point x="69" y="714" type="line"/>
    </contour>
  </outline>
</glyph>
<glyph name="uni15B1" format="2">
  <advance width="593"/>
  <unicode hex="15B1"/>
  <note>
uni15B1
</note>
  <outline>
    <contour>
      <point x="243" y="-12" type="curve" smooth="yes"/>
      <point x="294" y="-12"/>
      <point x="345" y="3"/>
      <point x="380" y="34" type="curve"/>
      <point x="380" y="0" type="line"/>
      <point x="524" y="0" type="line"/>
      <point x="524" y="714" type="line"/>
      <point x="380" y="714" type="line"/>
      <point x="380" y="310" type="line"/>
      <point x="350" y="337"/>
      <point x="302" y="357"/>
      <point x="244" y="357" type="curve" smooth="yes"/>
      <point x="132" y="357"/>
      <point x="59" y="284"/>
      <point x="59" y="173" type="curve" smooth="yes"/>
      <point x="59" y="60"/>
      <point x="130" y="-12"/>
    </contour>
  </outline>
</glyph>
<glyph name="uni15B2" format="2">
  <advance width="593"/>
  <unicode hex="15B2"/>
  <note>
uni15B2
</note>
  <outline>
    <contour>
      <point x="351" y="-12" type="curve" smooth="yes"/>
      <point x="463" y="-12"/>
      <point x="534" y="59"/>
      <point x="534" y="173" type="curve" smooth="yes"/>
      <point x="534" y="284"/>
      <point x="461" y="357"/>
      <point x="350" y="357" type="curve" smooth="yes"/>
      <point x="291" y="357"/>
      <point x="243" y="337"/>
      <point x="213" y="310" type="curve"/>
      <point x="213" y="714" type="line"/>
      <point x="69" y="714" type="line"/>
      <point x="69" y="0" type="line"/>
      <point x="213" y="0" type="line"/>
      <point x="213" y="34" type="line"/>
      <point x="248" y="3"/>
      <point x="299" y="-12"/>
    </contour>
  </outline>
</glyph>
<glyph name="uni15B3" format="2">
  <advance width="593"/>
  <unicode hex="15B3"/>
  <note>
uni15B3
</note>
  <outline>
    <contour>
      <point x="380" y="0" type="line"/>
      <point x="524" y="0" type="line"/>
      <point x="524" y="714" type="line"/>
      <point x="380" y="714" type="line"/>
      <point x="380" y="680" type="line"/>
      <point x="345" y="711"/>
      <point x="294" y="726"/>
      <point x="242" y="726" type="curve" smooth="yes"/>
      <point x="130" y="726"/>
      <point x="59" y="655"/>
      <point x="59" y="540" type="curve" smooth="yes"/>
      <point x="59" y="432"/>
      <point x="132" y="357"/>
      <point x="244" y="357" type="curve" smooth="yes"/>
      <point x="301" y="357"/>
      <point x="354" y="376"/>
      <point x="380" y="400" type="curve"/>
    </contour>
  </outline>
</glyph>
<glyph name="uni15B5" format="2">
  <advance width="576"/>
  <unicode hex="15B5"/>
  <note>
uni15B5
</note>
  <outline>
    <contour>
      <point x="49" y="0" type="line"/>
      <point x="507" y="0" type="line"/>
      <point x="507" y="714" type="line"/>
      <point x="362" y="714" type="line"/>
      <point x="362" y="409" type="line"/>
      <point x="49" y="409" type="line"/>
      <point x="49" y="288" type="line"/>
      <point x="362" y="288" type="line"/>
      <point x="362" y="121" type="line"/>
      <point x="49" y="121" type="line"/>
    </contour>
  </outline>
</glyph>
<glyph name="uni15B6" format="2">
  <advance width="575"/>
  <unicode hex="15B6"/>
  <note>
uni15B6
</note>
  <outline>
    <contour>
      <point x="68" y="0" type="line"/>
      <point x="526" y="0" type="line"/>
      <point x="526" y="121" type="line"/>
      <point x="212" y="121" type="line"/>
      <point x="212" y="288" type="line"/>
      <point x="526" y="288" type="line"/>
      <point x="526" y="409" type="line"/>
      <point x="212" y="409" type="line"/>
      <point x="212" y="714" type="line"/>
      <point x="68" y="714" type="line"/>
    </contour>
  </outline>
</glyph>
<glyph name="uni15B7" format="2">
  <advance width="576"/>
  <unicode hex="15B7"/>
  <note>
uni15B7
</note>
  <outline>
    <contour>
      <point x="362" y="0" type="line"/>
      <point x="507" y="0" type="line"/>
      <point x="507" y="714" type="line"/>
      <point x="49" y="714" type="line"/>
      <point x="49" y="593" type="line"/>
      <point x="362" y="593" type="line"/>
      <point x="362" y="426" type="line"/>
      <point x="49" y="426" type="line"/>
      <point x="49" y="305" type="line"/>
      <point x="362" y="305" type="line"/>
    </contour>
  </outline>
</glyph>
<glyph name="uni15B8" format="2">
  <advance width="746"/>
  <unicode hex="15B8"/>
  <note>
uni15B8
</note>
  <outline>
    <contour>
      <point x="461" y="385" type="curve" smooth="yes"/>
      <point x="612" y="385"/>
      <point x="697" y="479"/>
      <point x="697" y="622" type="curve" smooth="yes"/>
      <point x="697" y="714" type="line"/>
      <point x="555" y="714" type="line"/>
      <point x="555" y="627" type="line" smooth="yes"/>
      <point x="555" y="553"/>
      <point x="525" y="509"/>
      <point x="462" y="509" type="curve" smooth="yes"/>
      <point x="401" y="509"/>
      <point x="374" y="553"/>
      <point x="374" y="628" type="curve" smooth="yes"/>
      <point x="374" y="714" type="line"/>
      <point x="232" y="714" type="line"/>
      <point x="232" y="620" type="line" smooth="yes"/>
      <point x="232" y="479"/>
      <point x="315" y="385"/>
    </contour>
    <contour>
      <point x="69" y="0" type="line"/>
      <point x="213" y="0" type="line"/>
      <point x="213" y="593" type="line"/>
      <point x="301" y="593" type="line"/>
      <point x="301" y="714" type="line"/>
      <point x="69" y="714" type="line"/>
    </contour>
  </outline>
</glyph>
<glyph name="uni15B9" format="2">
  <advance width="746"/>
  <unicode hex="15B9"/>
  <note>
uni15B9
</note>
  <outline>
    <contour>
      <point x="49" y="0" type="line"/>
      <point x="191" y="0" type="line"/>
      <point x="191" y="87" type="line" smooth="yes"/>
      <point x="191" y="161"/>
      <point x="221" y="205"/>
      <point x="284" y="205" type="curve" smooth="yes"/>
      <point x="345" y="205"/>
      <point x="372" y="161"/>
      <point x="372" y="86" type="curve" smooth="yes"/>
      <point x="372" y="0" type="line"/>
      <point x="514" y="0" type="line"/>
      <point x="514" y="94" type="line" smooth="yes"/>
      <point x="514" y="235"/>
      <point x="431" y="329"/>
      <point x="285" y="329" type="curve" smooth="yes"/>
      <point x="134" y="329"/>
      <point x="49" y="235"/>
      <point x="49" y="92" type="curve" smooth="yes"/>
    </contour>
    <contour>
      <point x="445" y="0" type="line"/>
      <point x="677" y="0" type="line"/>
      <point x="677" y="714" type="line"/>
      <point x="533" y="714" type="line"/>
      <point x="533" y="121" type="line"/>
      <point x="445" y="121" type="line"/>
    </contour>
  </outline>
</glyph>
<glyph name="uni15BA" format="2">
  <advance width="746"/>
  <unicode hex="15BA"/>
  <note>
uni15BA
</note>
  <outline>
    <contour>
      <point x="232" y="0" type="line"/>
      <point x="374" y="0" type="line"/>
      <point x="374" y="86" type="line" smooth="yes"/>
      <point x="374" y="161"/>
      <point x="401" y="205"/>
      <point x="462" y="205" type="curve" smooth="yes"/>
      <point x="525" y="205"/>
      <point x="555" y="161"/>
      <point x="555" y="87" type="curve" smooth="yes"/>
      <point x="555" y="0" type="line"/>
      <point x="697" y="0" type="line"/>
      <point x="697" y="92" type="line" smooth="yes"/>
      <point x="697" y="235"/>
      <point x="612" y="329"/>
      <point x="461" y="329" type="curve" smooth="yes"/>
      <point x="315" y="329"/>
      <point x="232" y="235"/>
      <point x="232" y="94" type="curve" smooth="yes"/>
    </contour>
    <contour>
      <point x="69" y="0" type="line"/>
      <point x="301" y="0" type="line"/>
      <point x="301" y="121" type="line"/>
      <point x="213" y="121" type="line"/>
      <point x="213" y="714" type="line"/>
      <point x="69" y="714" type="line"/>
    </contour>
  </outline>
</glyph>
<glyph name="uni15BB" format="2">
  <advance width="746"/>
  <unicode hex="15BB"/>
  <note>
uni15BB
</note>
  <outline>
    <contour>
      <point x="285" y="385" type="curve" smooth="yes"/>
      <point x="431" y="385"/>
      <point x="514" y="479"/>
      <point x="514" y="620" type="curve" smooth="yes"/>
      <point x="514" y="714" type="line"/>
      <point x="372" y="714" type="line"/>
      <point x="372" y="628" type="line" smooth="yes"/>
      <point x="372" y="553"/>
      <point x="345" y="509"/>
      <point x="285" y="509" type="curve" smooth="yes"/>
      <point x="221" y="509"/>
      <point x="191" y="553"/>
      <point x="191" y="627" type="curve" smooth="yes"/>
      <point x="191" y="714" type="line"/>
      <point x="49" y="714" type="line"/>
      <point x="49" y="622" type="line" smooth="yes"/>
      <point x="49" y="479"/>
      <point x="134" y="385"/>
    </contour>
    <contour>
      <point x="533" y="0" type="line"/>
      <point x="677" y="0" type="line"/>
      <point x="677" y="714" type="line"/>
      <point x="445" y="714" type="line"/>
      <point x="445" y="593" type="line"/>
      <point x="533" y="593" type="line"/>
    </contour>
  </outline>
</glyph>
<glyph name="uni15BC" format="2">
  <advance width="734"/>
  <unicode hex="15BC"/>
  <note>
uni15BC
</note>
  <outline>
    <contour>
      <point x="68" y="0" type="line"/>
      <point x="212" y="0" type="line"/>
      <point x="212" y="534" type="line"/>
      <point x="384" y="238" type="line"/>
      <point x="424" y="238" type="line"/>
      <point x="695" y="714" type="line"/>
      <point x="549" y="714" type="line"/>
      <point x="403" y="459" type="line"/>
      <point x="257" y="714" type="line"/>
      <point x="68" y="714" type="line"/>
    </contour>
  </outline>
</glyph>
<glyph name="uni15BD" format="2">
  <advance width="735"/>
  <unicode hex="15BD"/>
  <note>
uni15BD
</note>
  <outline>
    <contour>
      <point x="39" y="0" type="line"/>
      <point x="185" y="0" type="line"/>
      <point x="331" y="255" type="line"/>
      <point x="478" y="0" type="line"/>
      <point x="667" y="0" type="line"/>
      <point x="667" y="714" type="line"/>
      <point x="522" y="714" type="line"/>
      <point x="522" y="180" type="line"/>
      <point x="351" y="476" type="line"/>
      <point x="311" y="476" type="line"/>
    </contour>
  </outline>
</glyph>
<glyph name="uni15BE" format="2">
  <advance width="734"/>
  <unicode hex="15BE"/>
  <note>
uni15BE
</note>
  <outline>
    <contour>
      <point x="68" y="0" type="line"/>
      <point x="257" y="0" type="line"/>
      <point x="403" y="255" type="line"/>
      <point x="549" y="0" type="line"/>
      <point x="695" y="0" type="line"/>
      <point x="424" y="476" type="line"/>
      <point x="384" y="476" type="line"/>
      <point x="212" y="180" type="line"/>
      <point x="212" y="714" type="line"/>
      <point x="68" y="714" type="line"/>
    </contour>
  </outline>
</glyph>
<glyph name="uni15BF" format="2">
  <advance width="735"/>
  <unicode hex="15BF"/>
  <note>
uni15BF
</note>
  <outline>
    <contour>
      <point x="522" y="0" type="line"/>
      <point x="667" y="0" type="line"/>
      <point x="667" y="714" type="line"/>
      <point x="478" y="714" type="line"/>
      <point x="331" y="459" type="line"/>
      <point x="185" y="714" type="line"/>
      <point x="39" y="714" type="line"/>
      <point x="311" y="238" type="line"/>
      <point x="351" y="238" type="line"/>
      <point x="522" y="534" type="line"/>
    </contour>
  </outline>
</glyph>
<glyph name="uni15C0" format="2">
	<advance width="802"/>
	<unicode hex="15C0"/>
	<note>
		uni15C0
	</note>
	<outline>
		<contour>
			<point x="507" y="273" type="curve" smooth="yes"/>
			<point x="573" y="0" type="line"/>
			<point x="734" y="0" type="line"/>
			<point x="734" y="714" type="line"/>
			<point x="588" y="714" type="line"/>
			<point x="588" y="391" type="line"/>
			<point x="584" y="408" type="line" smooth="yes"/>
			<point x="531" y="631"/>
			<point x="443" y="726"/>
			<point x="288" y="726" type="curve" smooth="yes"/>
			<point x="143" y="726"/>
			<point x="64" y="643"/>
			<point x="64" y="490" type="curve" smooth="yes"/>
			<point x="64" y="411"/>
			<point x="89" y="316"/>
			<point x="125" y="263" type="curve"/>
			<point x="246" y="308" type="line"/>
			<point x="246" y="309"/>
			<point x="201" y="395"/>
			<point x="201" y="486" type="curve" smooth="yes"/>
			<point x="201" y="562"/>
			<point x="234" y="602"/>
			<point x="298" y="602" type="curve" smooth="yes"/>
			<point x="396" y="602"/>
			<point x="447" y="522"/>
		</contour>
	</outline>
</glyph>
<glyph name="uni15C1" format="2">
	<advance width="802"/>
	<unicode hex="15C1"/>
	<note>
		uni15C1
	</note>
	<outline>
		<contour>
			<point x="295" y="273" type="line" smooth="yes"/>
			<point x="355" y="522"/>
			<point x="406" y="602"/>
			<point x="504" y="602" type="curve" smooth="yes"/>
			<point x="568" y="602"/>
			<point x="601" y="562"/>
			<point x="601" y="486" type="curve" smooth="yes"/>
			<point x="601" y="395"/>
			<point x="556" y="309"/>
			<point x="556" y="308" type="curve"/>
			<point x="677" y="263" type="line"/>
			<point x="713" y="316"/>
			<point x="738" y="411"/>
			<point x="738" y="490" type="curve" smooth="yes"/>
			<point x="738" y="643"/>
			<point x="659" y="726"/>
			<point x="514" y="726" type="curve" smooth="yes"/>
			<point x="359" y="726"/>
			<point x="271" y="631"/>
			<point x="218" y="408" type="curve" smooth="yes"/>
			<point x="214" y="391" type="line"/>
			<point x="214" y="714" type="line"/>
			<point x="68" y="714" type="line"/>
			<point x="68" y="0" type="line"/>
			<point x="229" y="0" type="line"/>
		</contour>
	</outline>
</glyph>
<glyph name="uni15C2" format="2">
	<advance width="802"/>
	<unicode hex="15C2"/>
	<note>
		uni15C2
	</note>
	<outline>
		<contour>
			<point x="507" y="441" type="line" smooth="yes"/>
			<point x="447" y="192"/>
			<point x="396" y="112"/>
			<point x="298" y="112" type="curve" smooth="yes"/>
			<point x="234" y="112"/>
			<point x="201" y="152"/>
			<point x="201" y="228" type="curve" smooth="yes"/>
			<point x="201" y="319"/>
			<point x="246" y="405"/>
			<point x="246" y="406" type="curve"/>
			<point x="125" y="451" type="line"/>
			<point x="89" y="398"/>
			<point x="64" y="303"/>
			<point x="64" y="224" type="curve" smooth="yes"/>
			<point x="64" y="71"/>
			<point x="143" y="-12"/>
			<point x="288" y="-12" type="curve" smooth="yes"/>
			<point x="443" y="-12"/>
			<point x="531" y="83"/>
			<point x="584" y="306" type="curve" smooth="yes"/>
			<point x="588" y="323" type="line"/>
			<point x="588" y="0" type="line"/>
			<point x="734" y="0" type="line"/>
			<point x="734" y="714" type="line"/>
			<point x="573" y="714" type="line"/>
		</contour>
	</outline>
</glyph>
<glyph name="uni15C3" format="2">
	<advance width="802"/>
	<unicode hex="15C3"/>
	<note>
		uni15C3
	</note>
	<outline>
		<contour>
			<point x="295" y="441" type="curve" smooth="yes"/>
			<point x="229" y="714" type="line"/>
			<point x="68" y="714" type="line"/>
			<point x="68" y="0" type="line"/>
			<point x="214" y="0" type="line"/>
			<point x="214" y="323" type="line"/>
			<point x="218" y="306" type="line" smooth="yes"/>
			<point x="271" y="83"/>
			<point x="359" y="-12"/>
			<point x="514" y="-12" type="curve" smooth="yes"/>
			<point x="659" y="-12"/>
			<point x="738" y="71"/>
			<point x="738" y="224" type="curve" smooth="yes"/>
			<point x="738" y="303"/>
			<point x="713" y="398"/>
			<point x="677" y="451" type="curve"/>
			<point x="556" y="406" type="line"/>
			<point x="556" y="405"/>
			<point x="601" y="319"/>
			<point x="601" y="228" type="curve" smooth="yes"/>
			<point x="601" y="152"/>
			<point x="568" y="112"/>
			<point x="504" y="112" type="curve" smooth="yes"/>
			<point x="406" y="112"/>
			<point x="355" y="192"/>
		</contour>
	</outline>
</glyph>
<glyph name="uni15C4" format="2">
	<advance width="860"/>
	<unicode hex="15C4"/>
	<note>
		uni15C4
	</note>
	<outline>
		<contour>
			<point x="430" y="225" type="line"/>
			<point x="183" y="714" type="line"/>
			<point x="49" y="714" type="line"/>
			<point x="49" y="683" type="line"/>
			<point x="412" y="-12" type="line"/>
			<point x="447" y="-12" type="line"/>
			<point x="811" y="683" type="line"/>
			<point x="811" y="714" type="line"/>
			<point x="677" y="714" type="line"/>
		</contour>
		<contour>
			<point x="599" y="412" type="line"/>
			<point x="623" y="508" type="line"/>
			<point x="231" y="508" type="line"/>
			<point x="261" y="412" type="line"/>
		</contour>
	</outline>
</glyph>
<glyph name="uni15C5" format="2">
	<advance width="860"/>
	<unicode hex="15C5"/>
	<note>
		uni15C5
	</note>
	<outline>
		<contour>
			<point x="430" y="489" type="line"/>
			<point x="677" y="0" type="line"/>
			<point x="811" y="0" type="line"/>
			<point x="811" y="31" type="line"/>
			<point x="447" y="726" type="line"/>
			<point x="412" y="726" type="line"/>
			<point x="49" y="31" type="line"/>
			<point x="49" y="0" type="line"/>
			<point x="183" y="0" type="line"/>
		</contour>
		<contour>
			<point x="599" y="302" type="line"/>
			<point x="261" y="302" type="line"/>
			<point x="231" y="206" type="line"/>
			<point x="623" y="206" type="line"/>
		</contour>
	</outline>
</glyph>
<glyph name="uni15C6" format="2">
  <advance width="736"/>
  <unicode hex="15C6"/>
  <note>
uni15C6
</note>
  <outline>
    <contour>
      <point x="50" y="-10" type="line"/>
      <point x="80" y="-10" type="line"/>
      <point x="697" y="342" type="line"/>
      <point x="697" y="374" type="line"/>
      <point x="80" y="725" type="line"/>
      <point x="50" y="725" type="line"/>
      <point x="50" y="591" type="line"/>
      <point x="462" y="358" type="line"/>
      <point x="50" y="125" type="line"/>
    </contour>
    <contour>
      <point x="179" y="164" type="line"/>
      <point x="305" y="164" type="line"/>
      <point x="305" y="550" type="line"/>
      <point x="179" y="550" type="line"/>
    </contour>
  </outline>
</glyph>
<glyph name="uni15C8" format="2">
	<advance width="722"/>
	<unicode hex="15C8"/>
	<note>
		uni15C8
	</note>
	<outline>
		<contour>
			<point x="535" y="354" type="line"/>
			<point x="49" y="121" type="line"/>
			<point x="49" y="-10" type="line"/>
			<point x="79" y="-10" type="line"/>
			<point x="683" y="306" type="line"/>
			<point x="683" y="410" type="line"/>
			<point x="79" y="725" type="line"/>
			<point x="49" y="725" type="line"/>
			<point x="49" y="593" type="line"/>
			<point x="535" y="362" type="line"/>
		</contour>
		<contour>
			<point x="352" y="188" type="line"/>
			<point x="352" y="523" type="line"/>
			<point x="264" y="552" type="line"/>
			<point x="264" y="154" type="line"/>
		</contour>
		<contour>
			<point x="140" y="307" type="curve" smooth="yes"/>
			<point x="170" y="307"/>
			<point x="195" y="332"/>
			<point x="195" y="363" type="curve" smooth="yes"/>
			<point x="195" y="393"/>
			<point x="170" y="418"/>
			<point x="140" y="418" type="curve" smooth="yes"/>
			<point x="110" y="418"/>
			<point x="85" y="393"/>
			<point x="85" y="363" type="curve" smooth="yes"/>
			<point x="85" y="332"/>
			<point x="110" y="307"/>
		</contour>
	</outline>
</glyph>
<glyph name="uni15C9" format="2">
  <advance width="735"/>
  <unicode hex="15C9"/>
  <note>
uni15C9
</note>
  <outline>
    <contour>
      <point x="656" y="-10" type="line"/>
      <point x="687" y="-10" type="line"/>
      <point x="687" y="125" type="line"/>
      <point x="274" y="358" type="line"/>
      <point x="687" y="591" type="line"/>
      <point x="687" y="725" type="line"/>
      <point x="656" y="725" type="line"/>
      <point x="39" y="374" type="line"/>
      <point x="39" y="342" type="line"/>
    </contour>
    <contour>
      <point x="431" y="164" type="line"/>
      <point x="558" y="164" type="line"/>
      <point x="558" y="550" type="line"/>
      <point x="431" y="550" type="line"/>
    </contour>
  </outline>
</glyph>
<glyph name="uni15CA" format="2">
	<advance width="859"/>
	<unicode hex="15CA"/>
	<note>
		uni15CA
	</note>
	<outline>
		<contour>
			<point x="430" y="225" type="line"/>
			<point x="183" y="714" type="line"/>
			<point x="49" y="714" type="line"/>
			<point x="49" y="683" type="line"/>
			<point x="412" y="-12" type="line"/>
			<point x="447" y="-12" type="line"/>
			<point x="811" y="683" type="line"/>
			<point x="811" y="714" type="line"/>
			<point x="677" y="714" type="line"/>
		</contour>
		<contour>
			<point x="669" y="529" type="line"/>
			<point x="693" y="625" type="line"/>
			<point x="171" y="625" type="line"/>
			<point x="201" y="529" type="line"/>
		</contour>
	</outline>
</glyph>
<glyph name="uni15CB" format="2">
	<advance width="859"/>
	<unicode hex="15CB"/>
	<note>
		uni15CB
	</note>
	<outline>
		<contour>
			<point x="430" y="489" type="line"/>
			<point x="677" y="0" type="line"/>
			<point x="811" y="0" type="line"/>
			<point x="811" y="31" type="line"/>
			<point x="447" y="726" type="line"/>
			<point x="412" y="726" type="line"/>
			<point x="49" y="31" type="line"/>
			<point x="49" y="0" type="line"/>
			<point x="183" y="0" type="line"/>
		</contour>
		<contour>
			<point x="669" y="185" type="line"/>
			<point x="201" y="185" type="line"/>
			<point x="171" y="89" type="line"/>
			<point x="693" y="89" type="line"/>
		</contour>
	</outline>
</glyph>
<glyph name="uni15CC" format="2">
  <advance width="736"/>
  <unicode hex="15CC"/>
  <note>
uni15CC
</note>
  <outline>
    <contour>
      <point x="50" y="-10" type="line"/>
      <point x="81" y="-10" type="line"/>
      <point x="697" y="342" type="line"/>
      <point x="697" y="374" type="line"/>
      <point x="81" y="725" type="line"/>
      <point x="50" y="725" type="line"/>
      <point x="50" y="591" type="line"/>
      <point x="463" y="358" type="line"/>
      <point x="50" y="125" type="line"/>
    </contour>
    <contour>
      <point x="103" y="134" type="line"/>
      <point x="224" y="152" type="line"/>
      <point x="224" y="564" type="line"/>
      <point x="103" y="582" type="line"/>
    </contour>
  </outline>
</glyph>
<glyph name="uni15CD" format="2">
	<advance width="722"/>
	<unicode hex="15CD"/>
	<note>
		uni15CD
	</note>
	<outline>
		<contour>
			<point x="323" y="307" type="line"/>
			<point x="323" y="409" type="line"/>
			<point x="267" y="409" type="line"/>
			<point x="267" y="307" type="line"/>
		</contour>
		<contour>
			<point x="535" y="354" type="line"/>
			<point x="49" y="121" type="line"/>
			<point x="49" y="-10" type="line"/>
			<point x="79" y="-10" type="line"/>
			<point x="683" y="306" type="line"/>
			<point x="683" y="410" type="line"/>
			<point x="79" y="725" type="line"/>
			<point x="49" y="725" type="line"/>
			<point x="49" y="593" type="line"/>
			<point x="535" y="362" type="line"/>
		</contour>
		<contour>
			<point x="215" y="125" type="line"/>
			<point x="215" y="596" type="line"/>
			<point x="127" y="625" type="line"/>
			<point x="127" y="91" type="line"/>
		</contour>
	</outline>
</glyph>
